SplineFontDB: 3.2
FontName: HoeKomikaSlim
FullName: Hoe!Komika Slim
FamilyName: Hoe!Komika Slim
Weight: Book
Copyright: (c) 1999-2001, WolfBainX & Apostrophic Lab. All rights reserved. www.apostrophiclab.com or info@apostrophiclab.com for more information.
Version: 2.0
ItalicAngle: 0
UnderlinePosition: -125
UnderlineWidth: 50
Ascent: 800
Descent: 200
InvalidEm: 0
sfntRevision: 0x00010000
LayerCount: 2
Layer: 0 1 "Back" 1
Layer: 1 1 "Fore" 0
XUID: [1021 618 -23699139 14843944]
StyleMap: 0x0000
FSType: 0
OS2Version: 0
OS2_WeightWidthSlopeOnly: 0
OS2_UseTypoMetrics: 0
CreationTime: 992686335
ModificationTime: 1625152906
PfmFamily: 17
TTFWeight: 400
TTFWidth: 5
LineGap: 30
VLineGap: 0
Panose: 2 0 0 0 0 0 0 0 0 0
OS2TypoAscent: 753
OS2TypoAOffset: 0
OS2TypoDescent: -23
OS2TypoDOffset: 0
OS2TypoLinegap: 30
OS2WinAscent: 1024
OS2WinAOffset: 0
OS2WinDescent: 173
OS2WinDOffset: 0
HheadAscent: 1024
HheadAOffset: 0
HheadDescent: -173
HheadDOffset: 0
OS2SubXSize: 100
OS2SubYSize: 100
OS2SubXOff: 0
OS2SubYOff: 140
OS2SupXSize: 100
OS2SupYSize: 100
OS2SupXOff: 0
OS2SupYOff: 140
OS2StrikeYSize: 50
OS2StrikeYPos: 250
OS2Vendor: 'APOS'
OS2UnicodeRanges: 80000003.00000000.00000000.00000000
Lookup: 260 0 0 "'mark' Mark Positioning in Latin lookup 0" { "'mark' Mark Positioning in Latin lookup 0-1"  } ['mark' ('DFLT' <'dflt' > 'latn' <'dflt' > ) ]
MarkAttachClasses: 1
DEI: 91125
TtTable: prep
PUSHW_1
 0
CALL
EndTTInstrs
TtTable: fpgm
PUSHW_1
 0
FDEF
MPPEM
PUSHW_1
 9
LT
IF
PUSHB_2
 1
 1
INSTCTRL
EIF
PUSHW_1
 511
SCANCTRL
PUSHW_1
 68
SCVTCI
PUSHW_2
 9
 3
SDS
SDB
ENDF
PUSHW_1
 1
FDEF
DUP
DUP
RCVT
ROUND[Black]
WCVTP
PUSHB_1
 1
ADD
ENDF
PUSHW_1
 2
FDEF
PUSHW_1
 1
LOOPCALL
POP
ENDF
PUSHW_1
 3
FDEF
DUP
GC[cur]
PUSHB_1
 3
CINDEX
GC[cur]
GT
IF
SWAP
EIF
DUP
ROLL
DUP
ROLL
MD[grid]
ABS
ROLL
DUP
GC[cur]
DUP
ROUND[Grey]
SUB
ABS
PUSHB_1
 4
CINDEX
GC[cur]
DUP
ROUND[Grey]
SUB
ABS
GT
IF
SWAP
NEG
ROLL
EIF
MDAP[rnd]
DUP
PUSHB_1
 0
GTEQ
IF
ROUND[Black]
DUP
PUSHB_1
 0
EQ
IF
POP
PUSHB_1
 64
EIF
ELSE

StartChar: dotaccent
Encoding: 6 6 4
Width: 331
Flags: W
LayerCount: 2
Fore
SplineSet
126 856 m 0,0,1
 123 833 123 833 137.5 816 c 128,-1,2
 152 799 152 799 179 799 c 0,3,4
 191 799 191 799 202 805.5 c 128,-1,5
 213 812 213 812 222 822.5 c 128,-1,6
 231 833 231 833 236.5 845 c 128,-1,7
 242 857 242 857 242 868 c 0,8,9
 245 891 245 891 225.5 904 c 128,-1,10
 206 917 206 917 182 917 c 0,11,12
 154 917 154 917 140.5 898 c 128,-1,13
 127 879 127 879 126 856 c 0,0,1
EndSplineSet
Validated: 41
EndChar

StartChar: ring
Encoding: 8 8 5
Width: 539
Flags: W
LayerCount: 2
Fore
SplineSet
401 924 m 0,0,1
 401 942 401 942 396 960 c 128,-1,2
 391 978 391 978 379.5 992.5 c 128,-1,3
 368 1007 368 1007 351.5 1015.5 c 128,-1,4
 335 1024 335 1024 313 1024 c 0,5,6
 281 1024 281 1024 257.5 1009.5 c 128,-1,7
 234 995 234 995 217.5 973 c 128,-1,8
 201 951 201 951 192.5 924 c 128,-1,9
 184 897 184 897 183 873 c 0,10,11
 180 840 180 840 200 817.5 c 128,-1,12
 220 795 220 795 252 795 c 0,13,14
 282 795 282 795 308.5 805 c 128,-1,15
 335 815 335 815 355 832.5 c 128,-1,16
 375 850 375 850 387 873.5 c 128,-1,17
 399 897 399 897 401 924 c 0,0,1
241 884 m 0,18,19
 242 896 242 896 247.5 911.5 c 128,-1,20
 253 927 253 927 262 940 c 128,-1,21
 271 953 271 953 284 962 c 128,-1,22
 297 971 297 971 314 971 c 0,23,24
 335 971 335 971 341.5 953.5 c 128,-1,25
 348 936 348 936 348 921 c 0,26,27
 346 891 346 891 324.5 873.5 c 128,-1,28
 303 856 303 856 271 856 c 0,29,30
 267 856 267 856 259.5 858 c 128,-1,31
 252 860 252 860 242 869 c 0,32,33
 242 870 242 870 241.5 875 c 128,-1,34
 241 880 241 880 241 884 c 0,18,19
EndSplineSet
Validated: 41
EndChar

StartChar: caron
Encoding: 12 12 6
Width: 545
Flags: W
LayerCount: 2
Fore
SplineSet
270 872 m 0,0,1
 264 872 264 872 263 875 c 2,2,-1
 214 945 l 2,3,4
 212 949 212 949 201 948 c 128,-1,5
 190 947 190 947 186 947 c 0,6,7
 172 928 172 928 171.5 920 c 128,-1,8
 171 912 171 912 172 910 c 0,9,10
 184 892 184 892 198.5 871.5 c 128,-1,11
 213 851 213 851 224 831 c 0,12,13
 226 829 226 829 231 823 c 128,-1,14
 236 817 236 817 241.5 810.5 c 128,-1,15
 247 804 247 804 252.5 799 c 128,-1,16
 258 794 258 794 260 794 c 2,17,-1
 270 794 l 2,18,19
 271 794 271 794 280 801.5 c 128,-1,20
 289 809 289 809 301.5 819.5 c 128,-1,21
 314 830 314 830 326.5 841 c 128,-1,22
 339 852 339 852 347 860 c 0,23,24
 355 867 355 867 361 872 c 128,-1,25
 367 877 367 877 371 882.5 c 128,-1,26
 375 888 375 888 377.5 895.5 c 128,-1,27
 380 903 380 903 380 914 c 2,28,-1
 380 929 l 1,29,30
 374 942 374 942 364 942 c 0,31,32
 352 942 352 942 341 931 c 128,-1,33
 330 920 330 920 319 907 c 128,-1,34
 308 894 308 894 295.5 883 c 128,-1,35
 283 872 283 872 270 872 c 0,0,1
EndSplineSet
Validated: 9
EndChar

StartChar: dotlessi
Encoding: 13 13 7
Width: 177
Flags: W
LayerCount: 2
Fore
SplineSet
6 34 m 1,0,1
 11 11 11 11 22 5.5 c 128,-1,2
 33 0 33 0 56 0 c 0,3,4
 76 0 76 0 90 11 c 128,-1,5
 104 22 104 22 107 40 c 0,6,7
 129 169 129 169 142 292.5 c 128,-1,8
 155 416 155 416 162 545 c 1,9,-1
 164 567 l 2,10,11
 165 580 165 580 165.5 597 c 128,-1,12
 166 614 166 614 166 627 c 2,13,-1
 168 649 l 2,14,15
 168 660 168 660 165 672.5 c 128,-1,16
 162 685 162 685 155.5 695 c 128,-1,17
 149 705 149 705 138.5 711.5 c 128,-1,18
 128 718 128 718 113 718 c 0,19,20
 99 718 99 718 90.5 712 c 128,-1,21
 82 706 82 706 71 689 c 1,22,23
 67 617 67 617 58.5 544.5 c 128,-1,24
 50 472 50 472 40 399.5 c 128,-1,25
 30 327 30 327 21.5 254 c 128,-1,26
 13 181 13 181 9 109 c 1,27,-1
 9 94 l 2,28,29
 8 89 8 89 8 83 c 256,30,31
 8 77 8 77 8 71 c 0,32,33
 8 66 8 66 8 60 c 256,34,35
 8 54 8 54 6 48 c 2,36,-1
 6 34 l 1,0,1
EndSplineSet
Validated: 9
EndChar

StartChar: Zcaron
Encoding: 30 30 8
Width: 563
Flags: W
LayerCount: 2
Fore
SplineSet
10 52 m 0,0,1
 7 33 7 33 16.5 23 c 128,-1,2
 26 13 26 13 43 0 c 1,3,-1
 60 0 l 2,4,5
 63 0 63 0 64.5 -0.5 c 128,-1,6
 66 -1 66 -1 70 -1 c 2,7,-1
 92 -1 l 2,8,9
 128 -1 128 -1 165 7 c 128,-1,10
 202 15 202 15 240 26 c 1,11,-1
 247 26 l 1,12,-1
 251 29 l 1,13,14
 270 34 270 34 290 38.5 c 128,-1,15
 310 43 310 43 330 47 c 0,16,17
 360 54 360 54 393.5 56.5 c 128,-1,18
 427 59 427 59 461 62 c 0,19,20
 464 62 464 62 468.5 63 c 128,-1,21
 473 64 473 64 477 64 c 2,22,-1
 494 64 l 2,23,24
 499 64 499 64 500 65 c 0,25,26
 508 66 508 66 516.5 67 c 128,-1,27
 525 68 525 68 533 68 c 0,28,29
 542 68 542 68 546.5 76.5 c 128,-1,30
 551 85 551 85 552 96 c 0,31,32
 554 111 554 111 541.5 124 c 128,-1,33
 529 137 529 137 515 142 c 1,34,-1
 459 142 l 2,35,36
 423 142 423 142 387 136 c 128,-1,37
 351 130 351 130 312 122 c 0,38,39
 311 121 311 121 305 121 c 2,40,-1
 300 121 l 1,41,42
 300 121 300 121 298.5 120.5 c 128,-1,43
 297 120 297 120 292 118 c 2,44,-1
 291 118 l 1,45,46
 261 111 261 111 229.5 106 c 128,-1,47
 198 101 198 101 164 101 c 1,48,-1
 159 109 l 1,49,50
 160 126 160 126 170 145.5 c 128,-1,51
 180 165 180 165 194.5 185.5 c 128,-1,52
 209 206 209 206 226 226 c 128,-1,53
 243 246 243 246 259 264 c 0,54,55
 260 267 260 267 261 268 c 128,-1,56
 262 269 262 269 270 278 c 1,57,-1
 273 278 l 1,58,59
 276 285 276 285 279.5 288.5 c 128,-1,60
 283 292 283 292 285 294 c 0,61,62
 298 311 298 311 318.5 330.5 c 128,-1,63
 339 350 339 350 364 373 c 0,64,65
 395 406 395 406 427.5 441.5 c 128,-1,66
 460 477 460 477 487.5 515 c 128,-1,67
 515 553 515 553 533 593 c 128,-1,68
 551 633 551 633 554 675 c 0,69,70
 554 731 554 731 486 731 c 0,71,72
 477 731 477 731 442 727 c 128,-1,73
 407 723 407 723 360.5 716 c 128,-1,74
 314 709 314 709 261.5 699 c 128,-1,75
 209 689 209 689 165.5 677 c 128,-1,76
 122 665 122 665 93 652 c 128,-1,77
 64 639 64 639 64 625 c 0,78,79
 62 608 62 608 68 599.5 c 128,-1,80
 74 591 74 591 100 582 c 1,81,-1
 110 582 l 2,82,83
 112 582 112 582 112 581 c 1,84,-1
 113 581 l 2,85,86
 116 581 116 581 117 580.5 c 128,-1,87
 118 580 118 580 120 580 c 2,88,-1
 131 580 l 2,89,90
 163 580 163 580 195 583.5 c 128,-1,91
 227 587 227 587 261 594 c 1,92,-1
 269 594 l 2,93,94
 270 594 270 594 270.5 594.5 c 128,-1,95
 271 595 271 595 274 595 c 0,96,97
 276 595 276 595 278.5 596.5 c 128,-1,98
 281 598 281 598 282 598 c 0,99,100
 286 598 286 598 287 599 c 0,101,102
 315 603 315 603 344.5 607 c 128,-1,103
 374 611 374 611 406 611 c 1,104,-1
 411 604 l 1,105,106
 409 584 409 584 396.5 569 c 128,-1,107
 384 554 384 554 368 536 c 2,108,-1
 364 532 l 1,109,-1
 357 526 l 1,110,-1
 354 519 l 1,111,-1
 164 298 l 1,112,-1
 152 283 l 1,113,-1
 146 274 l 2,114,115
 143 270 143 270 140.5 267 c 128,-1,116
 138 264 138 264 135 260 c 1,117,-1
 134 260 l 1,118,-1
 133 256 l 1,119,120
 112 233 112 233 91 207.5 c 128,-1,121
 70 182 70 182 52.5 156 c 128,-1,122
 35 130 35 130 23 103.5 c 128,-1,123
 11 77 11 77 10 52 c 0,0,1
302 827 m 0,124,125
 296 827 296 827 295 830 c 2,126,-1
 246 900 l 2,127,128
 244 904 244 904 233 903 c 128,-1,129
 222 902 222 902 218 902 c 0,130,131
 204 883 204 883 203.5 875 c 128,-1,132
 203 867 203 867 204 865 c 0,133,134
 216 847 216 847 230.5 826.5 c 128,-1,135
 245 806 245 806 256 786 c 0,136,137
 258 784 258 784 263 778 c 128,-1,138
 268 772 268 772 273.5 765.5 c 128,-1,139
 279 759 279 759 284.5 754 c 128,-1,140
 290 749 290 749 292 749 c 2,141,-1
 302 749 l 2,142,143
 303 749 303 749 312 756.5 c 128,-1,144
 321 764 321 764 333.5 774.5 c 128,-1,145
 346 785 346 785 358.5 796 c 128,-1,146
 371 807 371 807 379 815 c 0,147,148
 387 822 387 822 393 827 c 128,-1,149
 399 832 399 832 403 837.5 c 128,-1,150
 407 843 407 843 409.5 850.5 c 128,-1,151
 412 858 412 858 412 869 c 2,152,-1
 412 884 l 1,153,154
 406 897 406 897 396 897 c 0,155,156
 384 897 384 897 373 886 c 128,-1,157
 362 875 362 875 351 862 c 128,-1,158
 340 849 340 849 327.5 838 c 128,-1,159
 315 827 315 827 302 827 c 0,124,125
273 276 m 1,160,-1
 272 278 l 1,161,162
 268 276 268 276 273 276 c 1,160,-1
EndSplineSet
Validated: 5
EndChar

StartChar: zcaron
Encoding: 31 31 9
Width: 646
Flags: W
LayerCount: 2
Fore
SplineSet
12 74 m 0,0,1
 9 48 9 48 15.5 32.5 c 128,-1,2
 22 17 22 17 47 0 c 1,3,-1
 88 0 l 2,4,5
 128 0 128 0 167 7.5 c 128,-1,6
 206 15 206 15 245 26 c 128,-1,7
 284 37 284 37 322 48.5 c 128,-1,8
 360 60 360 60 398 68 c 0,9,10
 405 69 405 69 430 72.5 c 128,-1,11
 455 76 455 76 483.5 80.5 c 128,-1,12
 512 85 512 85 537 89.5 c 128,-1,13
 562 94 562 94 568 96 c 0,14,15
 576 97 576 97 586.5 100.5 c 128,-1,16
 597 104 597 104 606.5 109.5 c 128,-1,17
 616 115 616 115 622.5 122.5 c 128,-1,18
 629 130 629 130 629 140 c 0,19,20
 629 155 629 155 622.5 165 c 128,-1,21
 616 175 616 175 605.5 181 c 128,-1,22
 595 187 595 187 581.5 189.5 c 128,-1,23
 568 192 568 192 555 192 c 0,24,25
 509 192 509 192 462.5 185 c 128,-1,26
 416 178 416 178 369.5 167 c 128,-1,27
 323 156 323 156 278 142.5 c 128,-1,28
 233 129 233 129 190 116 c 1,29,-1
 164 116 l 1,30,31
 165 137 165 137 177 157.5 c 128,-1,32
 189 178 189 178 205.5 197.5 c 128,-1,33
 222 217 222 217 240.5 236 c 128,-1,34
 259 255 259 255 274 273 c 2,35,-1
 386 403 l 2,36,37
 410 431 410 431 441.5 460.5 c 128,-1,38
 473 490 473 490 502 522 c 128,-1,39
 531 554 531 554 551.5 588 c 128,-1,40
 572 622 572 622 575 658 c 2,41,-1
 575 673 l 2,42,43
 575 681 575 681 574 689.5 c 128,-1,44
 573 698 573 698 570 705.5 c 128,-1,45
 567 713 567 713 561 718 c 128,-1,46
 555 723 555 723 546 723 c 2,47,-1
 441 723 l 2,48,49
 440 723 440 723 425 720 c 128,-1,50
 410 717 410 717 386 712.5 c 128,-1,51
 362 708 362 708 331.5 702 c 128,-1,52
 301 696 301 696 270.5 690 c 128,-1,53
 240 684 240 684 212 678 c 128,-1,54
 184 672 184 672 164 668 c 0,55,56
 148 666 148 666 128 659 c 128,-1,57
 108 652 108 652 90 641 c 128,-1,58
 72 630 72 630 59 615.5 c 128,-1,59
 46 601 46 601 45 584 c 0,60,61
 44 543 44 543 87 543 c 0,62,63
 90 543 90 543 96 544 c 128,-1,64
 102 545 102 545 105 545 c 0,65,66
 168 568 168 568 236.5 588 c 128,-1,67
 305 608 305 608 374 608 c 2,68,-1
 381 608 l 2,69,70
 386 608 386 608 391.5 607.5 c 128,-1,71
 397 607 397 607 404 607 c 2,72,-1
 412 607 l 2,73,74
 419 604 419 604 419.5 599 c 128,-1,75
 420 594 420 594 419 590 c 0,76,77
 419 578 419 578 411.5 566.5 c 128,-1,78
 404 555 404 555 393.5 543.5 c 128,-1,79
 383 532 383 532 372 522.5 c 128,-1,80
 361 513 361 513 354 506 c 0,81,82
 342 493 342 493 318.5 466 c 128,-1,83
 295 439 295 439 265.5 405.5 c 128,-1,84
 236 372 236 372 204 335 c 128,-1,85
 172 298 172 298 142.5 264.5 c 128,-1,86
 113 231 113 231 90 204 c 128,-1,87
 67 177 67 177 55 164 c 0,88,89
 41 148 41 148 33 137.5 c 128,-1,90
 25 127 25 127 21 117.5 c 128,-1,91
 17 108 17 108 15 98 c 128,-1,92
 13 88 13 88 12 74 c 0,0,1
326 823 m 0,93,94
 320 823 320 823 319 826 c 2,95,-1
 270 896 l 2,96,97
 268 900 268 900 257 899 c 128,-1,98
 246 898 246 898 242 898 c 0,99,100
 228 879 228 879 227.5 871 c 128,-1,101
 227 863 227 863 228 861 c 0,102,103
 240 843 240 843 254.5 822.5 c 128,-1,104
 269 802 269 802 280 782 c 0,105,106
 282 780 282 780 287 774 c 128,-1,107
 292 768 292 768 297.5 761.5 c 128,-1,108
 303 755 303 755 308.5 750 c 128,-1,109
 314 745 314 745 316 745 c 2,110,-1
 326 745 l 2,111,112
 327 745 327 745 336 752.5 c 128,-1,113
 345 760 345 760 357.5 770.5 c 128,-1,114
 370 781 370 781 382.5 792 c 128,-1,115
 395 803 395 803 403 811 c 0,116,117
 411 818 411 818 417 823 c 128,-1,118
 423 828 423 828 427 833.5 c 128,-1,119
 431 839 431 839 433.5 846.5 c 128,-1,120
 436 854 436 854 436 865 c 2,121,-1
 436 880 l 1,122,123
 430 893 430 893 420 893 c 0,124,125
 408 893 408 893 397 882 c 128,-1,126
 386 871 386 871 375 858 c 128,-1,127
 364 845 364 845 351.5 834 c 128,-1,128
 339 823 339 823 326 823 c 0,93,94
EndSplineSet
Validated: 41
EndChar

StartChar: exclam
Encoding: 33 33 10
Width: 330
Flags: W
LayerCount: 2
Fore
SplineSet
49 329 m 0,0,1
 49 321 49 321 50 311 c 128,-1,2
 51 301 51 301 54.5 292.5 c 128,-1,3
 58 284 58 284 65 278 c 128,-1,4
 72 272 72 272 83 272 c 0,5,6
 96 272 96 272 103 275.5 c 128,-1,7
 110 279 110 279 118 294 c 0,8,9
 143 348 143 348 165.5 402.5 c 128,-1,10
 188 457 188 457 209.5 511.5 c 128,-1,11
 231 566 231 566 252.5 621 c 128,-1,12
 274 676 274 676 299 731 c 0,13,14
 311 755 311 755 318.5 769.5 c 128,-1,15
 326 784 326 784 328 805 c 0,16,17
 328 823 328 823 316.5 831.5 c 128,-1,18
 305 840 305 840 286 840 c 0,19,20
 263 840 263 840 250.5 827.5 c 128,-1,21
 238 815 238 815 227 798 c 0,22,23
 221 787 221 787 211 768 c 128,-1,24
 201 749 201 749 192 730 c 128,-1,25
 183 711 183 711 176 697 c 128,-1,26
 169 683 169 683 169 682 c 0,27,28
 165 671 165 671 156.5 648 c 128,-1,29
 148 625 148 625 137 597 c 128,-1,30
 126 569 126 569 114.5 538 c 128,-1,31
 103 507 103 507 92.5 478.5 c 128,-1,32
 82 450 82 450 74 428 c 128,-1,33
 66 406 66 406 62 395 c 0,34,35
 54 375 54 375 53 361.5 c 128,-1,36
 52 348 52 348 49 329 c 0,0,1
5 64 m 0,37,38
 5 56 5 56 6.5 45 c 128,-1,39
 8 34 8 34 12.5 24 c 128,-1,40
 17 14 17 14 24.5 7 c 128,-1,41
 32 0 32 0 44 0 c 0,42,43
 62 0 62 0 77 8.5 c 128,-1,44
 92 17 92 17 103.5 30.5 c 128,-1,45
 115 44 115 44 121.5 60 c 128,-1,46
 128 76 128 76 130 91 c 0,47,48
 130 102 130 102 128 114 c 128,-1,49
 126 126 126 126 120.5 135.5 c 128,-1,50
 115 145 115 145 106 151 c 128,-1,51
 97 157 97 157 84 157 c 0,52,53
 66 157 66 157 52 147.5 c 128,-1,54
 38 138 38 138 28 123.5 c 128,-1,55
 18 109 18 109 12 93 c 128,-1,56
 6 77 6 77 5 64 c 0,37,38
EndSplineSet
Validated: 9
EndChar

StartChar: quotedbl
Encoding: 34 34 11
Width: 404
Flags: W
LayerCount: 2
Fore
SplineSet
186 536 m 0,0,1
 183 516 183 516 194.5 506.5 c 128,-1,2
 206 497 206 497 226 497 c 0,3,4
 240 497 240 497 248 501 c 128,-1,5
 256 505 256 505 261 511.5 c 128,-1,6
 266 518 266 518 269 527 c 128,-1,7
 272 536 272 536 276 546 c 0,8,9
 280 557 280 557 288 576.5 c 128,-1,10
 296 596 296 596 304.5 615.5 c 128,-1,11
 313 635 313 635 319.5 650.5 c 128,-1,12
 326 666 326 666 328 668 c 0,13,14
 335 684 335 684 346.5 698 c 128,-1,15
 358 712 358 712 368.5 726 c 128,-1,16
 379 740 379 740 387 754.5 c 128,-1,17
 395 769 395 769 396 785 c 0,18,19
 398 802 398 802 390.5 818.5 c 128,-1,20
 383 835 383 835 360 835 c 0,21,22
 339 835 339 835 318.5 817 c 128,-1,23
 298 799 298 799 279.5 770.5 c 128,-1,24
 261 742 261 742 244.5 707 c 128,-1,25
 228 672 228 672 215.5 639 c 128,-1,26
 203 606 203 606 195 578 c 128,-1,27
 187 550 187 550 186 536 c 0,0,1
9 524 m 0,28,29
 8 511 8 511 15.5 498 c 128,-1,30
 23 485 23 485 43 485 c 0,31,32
 56 485 56 485 70.5 502 c 128,-1,33
 85 519 85 519 100 545 c 128,-1,34
 115 571 115 571 130 603.5 c 128,-1,35
 145 636 145 636 158.5 666 c 128,-1,36
 172 696 172 696 183.5 721 c 128,-1,37
 195 746 195 746 204 758 c 0,38,39
 204 761 204 761 205.5 766.5 c 128,-1,40
 207 772 207 772 208 775 c 0,41,42
 209 806 209 806 178 806 c 0,43,44
 156 806 156 806 135.5 790 c 128,-1,45
 115 774 115 774 96.5 748 c 128,-1,46
 78 722 78 722 62.5 690 c 128,-1,47
 47 658 47 658 35.5 627 c 128,-1,48
 24 596 24 596 17 568.5 c 128,-1,49
 10 541 10 541 9 524 c 0,28,29
EndSplineSet
Validated: 41
EndChar

StartChar: numbersign
Encoding: 35 35 12
Width: 591
Flags: W
LayerCount: 2
Fore
SplineSet
131 192 m 256,0,1
 151 192 151 192 157 178 c 128,-1,2
 163 164 163 164 166 147.5 c 128,-1,3
 169 131 169 131 174.5 117 c 128,-1,4
 180 103 180 103 201 103 c 0,5,6
 214 103 214 103 226.5 110.5 c 128,-1,7
 239 118 239 118 239 131 c 2,8,-1
 243 204 l 2,9,10
 244 214 244 214 254.5 220 c 128,-1,11
 265 226 265 226 278 229 c 128,-1,12
 291 232 291 232 302.5 232.5 c 128,-1,13
 314 233 314 233 318 233 c 2,14,-1
 322 233 l 2,15,16
 324 231 324 231 329 229 c 128,-1,17
 334 227 334 227 335 226 c 0,18,19
 335 218 335 218 335.5 197.5 c 128,-1,20
 336 177 336 177 341 155.5 c 128,-1,21
 346 134 346 134 356 117.5 c 128,-1,22
 366 101 366 101 386 101 c 0,23,24
 409 101 409 101 419.5 119 c 128,-1,25
 430 137 430 137 433.5 160.5 c 128,-1,26
 437 184 437 184 436 205.5 c 128,-1,27
 435 227 435 227 435 233 c 0,28,29
 446 251 446 251 470 254.5 c 128,-1,30
 494 258 494 258 519 259.5 c 128,-1,31
 544 261 544 261 563 268 c 128,-1,32
 582 275 582 275 584 302 c 0,33,34
 584 317 584 317 574.5 326 c 128,-1,35
 565 335 565 335 550.5 340 c 128,-1,36
 536 345 536 345 519 346.5 c 128,-1,37
 502 348 502 348 487 348 c 2,38,-1
 456 348 l 1,39,40
 448 358 448 358 448 368 c 2,41,-1
 450 390 l 2,42,43
 451 410 451 410 460 420.5 c 128,-1,44
 469 431 469 431 482 435.5 c 128,-1,45
 495 440 495 440 509.5 442 c 128,-1,46
 524 444 524 444 537 448 c 128,-1,47
 550 452 550 452 559 460.5 c 128,-1,48
 568 469 568 469 569 487 c 2,49,-1
 571 495 l 2,50,51
 571 504 571 504 569 513.5 c 128,-1,52
 567 523 567 523 556 523 c 2,53,-1
 480 523 l 1,54,-1
 467 541 l 1,55,56
 468 550 468 550 470 567 c 128,-1,57
 472 584 472 584 469.5 601 c 128,-1,58
 467 618 467 618 459 630.5 c 128,-1,59
 451 643 451 643 433 643 c 0,60,61
 412 643 412 643 402 632.5 c 128,-1,62
 392 622 392 622 387 605.5 c 128,-1,63
 382 589 382 589 378.5 570.5 c 128,-1,64
 375 552 375 552 366.5 535.5 c 128,-1,65
 358 519 358 519 341 508.5 c 128,-1,66
 324 498 324 498 292 498 c 0,67,68
 291 498 291 498 287 498 c 256,69,70
 283 498 283 498 279 498.5 c 128,-1,71
 275 499 275 499 271.5 501 c 128,-1,72
 268 503 268 503 268 507 c 2,73,-1
 274 615 l 2,74,75
 276 631 276 631 264 640 c 128,-1,76
 252 649 252 649 238 649 c 0,77,78
 212 649 212 649 198.5 631 c 128,-1,79
 185 613 185 613 182 594 c 0,80,81
 179 588 179 588 176 572 c 128,-1,82
 173 556 173 556 170 538.5 c 128,-1,83
 167 521 167 521 164 505.5 c 128,-1,84
 161 490 161 490 160 485 c 2,85,-1
 152 472 l 1,86,87
 139 467 139 467 123 460.5 c 128,-1,88
 107 454 107 454 92.5 445 c 128,-1,89
 78 436 78 436 67.5 424.5 c 128,-1,90
 57 413 57 413 56 398 c 2,91,-1
 56 376 l 2,92,93
 57 373 57 373 59 369 c 128,-1,94
 61 365 61 365 62 365 c 2,95,-1
 147 365 l 2,96,97
 148 365 148 365 150.5 359 c 128,-1,98
 153 353 153 353 153 348 c 2,99,-1
 153 325 l 2,100,101
 153 322 153 322 152 312.5 c 128,-1,102
 151 303 151 303 151 300 c 0,103,104
 140 283 140 283 117 278 c 128,-1,105
 94 273 94 273 70.5 268.5 c 128,-1,106
 47 264 47 264 28 254 c 128,-1,107
 9 244 9 244 8 218 c 0,108,109
 6 198 6 198 17.5 190.5 c 128,-1,110
 29 183 29 183 52 183 c 0,111,112
 72 183 72 183 91.5 187.5 c 128,-1,113
 111 192 111 192 131 192 c 256,0,1
318 417 m 2,114,-1
 339 417 l 2,115,116
 349 417 349 417 354 403 c 1,117,-1
 354 380 l 2,118,119
 351 343 351 343 332.5 328 c 128,-1,120
 314 313 314 313 272 313 c 2,121,-1
 259 313 l 2,122,123
 250 313 250 313 250 321 c 2,124,-1
 253 395 l 2,125,126
 253 403 253 403 261.5 407.5 c 128,-1,127
 270 412 270 412 281.5 414 c 128,-1,128
 293 416 293 416 303.5 416.5 c 128,-1,129
 314 417 314 417 318 417 c 2,114,-1
EndSplineSet
Validated: 41
EndChar

StartChar: dollar
Encoding: 36 36 13
Width: 387
Flags: W
LayerCount: 2
Fore
SplineSet
88 136 m 1,0,-1
 81 27 l 2,1,2
 81 16 81 16 94 8 c 128,-1,3
 107 0 107 0 118 0 c 0,4,5
 141 0 141 0 154 8 c 128,-1,6
 167 16 167 16 174 29 c 128,-1,7
 181 42 181 42 184 58 c 128,-1,8
 187 74 187 74 191 89 c 128,-1,9
 195 104 195 104 202.5 116.5 c 128,-1,10
 210 129 210 129 225 136 c 0,11,12
 226 137 226 137 231.5 139 c 128,-1,13
 237 141 237 141 243 143 c 128,-1,14
 249 145 249 145 255 147 c 128,-1,15
 261 149 261 149 263 149 c 0,16,17
 286 161 286 161 306 179.5 c 128,-1,18
 326 198 326 198 341.5 220 c 128,-1,19
 357 242 357 242 366.5 266 c 128,-1,20
 376 290 376 290 378 313 c 0,21,22
 379 344 379 344 364 369 c 128,-1,23
 349 394 349 394 325 412.5 c 128,-1,24
 301 431 301 431 273 444.5 c 128,-1,25
 245 458 245 458 221 467 c 128,-1,26
 197 476 197 476 181 480.5 c 128,-1,27
 165 485 165 485 165 487 c 0,28,29
 166 510 166 510 188.5 521.5 c 128,-1,30
 211 533 211 533 238.5 537.5 c 128,-1,31
 266 542 266 542 292.5 541 c 128,-1,32
 319 540 319 540 329 539 c 1,33,34
 345 547 345 547 349.5 552 c 128,-1,35
 354 557 354 557 354 568 c 0,36,37
 355 589 355 589 342.5 600 c 128,-1,38
 330 611 330 611 312.5 619 c 128,-1,39
 295 627 295 627 277.5 634 c 128,-1,40
 260 641 260 641 252 655 c 0,41,42
 250 659 250 659 249.5 675.5 c 128,-1,43
 249 692 249 692 245 710 c 128,-1,44
 241 728 241 728 232.5 742.5 c 128,-1,45
 224 757 224 757 207 757 c 0,46,47
 202 757 202 757 192.5 754.5 c 128,-1,48
 183 752 183 752 173 747.5 c 128,-1,49
 163 743 163 743 155.5 737 c 128,-1,50
 148 731 148 731 148 723 c 2,51,-1
 143 627 l 2,52,53
 143 617 143 617 124 600.5 c 128,-1,54
 105 584 105 584 82.5 561.5 c 128,-1,55
 60 539 60 539 40 512 c 128,-1,56
 20 485 20 485 19 455 c 0,57,58
 18 430 18 430 36 418 c 128,-1,59
 54 406 54 406 81.5 400 c 128,-1,60
 109 394 109 394 142 390 c 128,-1,61
 175 386 175 386 202.5 378 c 128,-1,62
 230 370 230 370 248 354.5 c 128,-1,63
 266 339 266 339 265 309 c 0,64,65
 264 275 264 275 244 250 c 128,-1,66
 224 225 224 225 183 225 c 0,67,68
 157 225 157 225 142.5 238 c 128,-1,69
 128 251 128 251 116 266.5 c 128,-1,70
 104 282 104 282 90 295 c 128,-1,71
 76 308 76 308 51 308 c 256,72,73
 26 308 26 308 18 292 c 128,-1,74
 10 276 10 276 9 260 c 0,75,76
 7 239 7 239 13.5 222 c 128,-1,77
 20 205 20 205 31.5 190.5 c 128,-1,78
 43 176 43 176 58 162.5 c 128,-1,79
 73 149 73 149 88 136 c 1,0,-1
EndSplineSet
Validated: 41
EndChar

StartChar: percent
Encoding: 37 37 14
Width: 693
Flags: W
LayerCount: 2
Fore
SplineSet
122 34 m 1,0,1
 131 23 131 23 141 14 c 128,-1,2
 151 5 151 5 166 5 c 0,3,4
 182 5 182 5 195.5 19 c 128,-1,5
 209 33 209 33 220.5 55 c 128,-1,6
 232 77 232 77 242 104 c 128,-1,7
 252 131 252 131 260 156 c 128,-1,8
 268 181 268 181 274.5 201.5 c 128,-1,9
 281 222 281 222 286 231 c 0,10,11
 342 342 342 342 418 439 c 128,-1,12
 494 536 494 536 585 627 c 0,13,14
 596 639 596 639 607.5 649 c 128,-1,15
 619 659 619 659 628.5 670 c 128,-1,16
 638 681 638 681 644.5 693 c 128,-1,17
 651 705 651 705 653 720 c 0,18,19
 654 745 654 745 634.5 754.5 c 128,-1,20
 615 764 615 764 591 764 c 0,21,22
 566 764 566 764 542.5 756.5 c 128,-1,23
 519 749 519 749 495.5 739.5 c 128,-1,24
 472 730 472 730 447.5 722.5 c 128,-1,25
 423 715 423 715 396 715 c 0,26,27
 373 715 373 715 355 724 c 128,-1,28
 337 733 337 733 320.5 743.5 c 128,-1,29
 304 754 304 754 286.5 763 c 128,-1,30
 269 772 269 772 246 772 c 0,31,32
 197 772 197 772 155 754.5 c 128,-1,33
 113 737 113 737 82 707.5 c 128,-1,34
 51 678 51 678 32.5 640 c 128,-1,35
 14 602 14 602 13 560 c 0,36,37
 11 538 11 538 18.5 517 c 128,-1,38
 26 496 26 496 40.5 479.5 c 128,-1,39
 55 463 55 463 76 452.5 c 128,-1,40
 97 442 97 442 122 442 c 0,41,42
 154 442 154 442 183 455.5 c 128,-1,43
 212 469 212 469 237.5 488.5 c 128,-1,44
 263 508 263 508 284.5 531.5 c 128,-1,45
 306 555 306 555 322.5 574.5 c 128,-1,46
 339 594 339 594 351 607.5 c 128,-1,47
 363 621 363 621 370 621 c 0,48,49
 389 621 389 621 401.5 619.5 c 128,-1,50
 414 618 414 618 434 614 c 1,51,-1
 434 607 l 2,52,53
 433 595 433 595 424.5 585 c 128,-1,54
 416 575 416 575 408 567 c 2,55,-1
 335 485 l 2,56,57
 299 441 299 441 262 391 c 128,-1,58
 225 341 225 341 195 288 c 128,-1,59
 165 235 165 235 145 179 c 128,-1,60
 125 123 125 123 122 68 c 2,61,-1
 122 34 l 1,0,1
337 75 m 1,62,63
 348 43 348 43 379 21.5 c 128,-1,64
 410 0 410 0 446 0 c 0,65,66
 493 0 493 0 534 16 c 128,-1,67
 575 32 575 32 606 59 c 128,-1,68
 637 86 637 86 656 122.5 c 128,-1,69
 675 159 675 159 677 200 c 0,70,71
 678 229 678 229 670 257 c 128,-1,72
 662 285 662 285 645 307 c 128,-1,73
 628 329 628 329 601.5 342.5 c 128,-1,74
 575 356 575 356 541 356 c 0,75,76
 492 356 492 356 455 334 c 128,-1,77
 418 312 418 312 392.5 277.5 c 128,-1,78
 367 243 367 243 353 201.5 c 128,-1,79
 339 160 339 160 338 122 c 2,80,-1
 338 113 l 2,81,82
 337 106 337 106 337.5 98 c 128,-1,83
 338 90 338 90 337 83 c 2,84,-1
 337 75 l 1,62,63
429 138 m 0,85,86
 430 157 430 157 438.5 181 c 128,-1,87
 447 205 447 205 461.5 225.5 c 128,-1,88
 476 246 476 246 496.5 260 c 128,-1,89
 517 274 517 274 543 274 c 0,90,91
 559 274 559 274 569 266 c 128,-1,92
 579 258 579 258 585 246.5 c 128,-1,93
 591 235 591 235 593 221.5 c 128,-1,94
 595 208 595 208 595 196 c 0,95,96
 592 149 592 149 559 121.5 c 128,-1,97
 526 94 526 94 476 94 c 0,98,99
 471 94 471 94 461.5 95 c 128,-1,100
 452 96 452 96 451 96 c 2,101,-1
 430 116 l 2,102,103
 430 117 430 117 429.5 125 c 128,-1,104
 429 133 429 133 429 138 c 0,85,86
104 564 m 0,105,106
 105 583 105 583 114 601.5 c 128,-1,107
 123 620 123 620 137 635 c 128,-1,108
 151 650 151 650 170 659 c 128,-1,109
 189 668 189 668 211 668 c 0,110,111
 229 668 229 668 241 660.5 c 128,-1,112
 253 653 253 653 252 636 c 0,113,114
 250 618 250 618 239 599.5 c 128,-1,115
 228 581 228 581 211.5 566 c 128,-1,116
 195 551 195 551 174.5 541.5 c 128,-1,117
 154 532 154 532 134 532 c 256,118,119
 114 532 114 532 108.5 539.5 c 128,-1,120
 103 547 103 547 104 564 c 0,105,106
EndSplineSet
Validated: 41
EndChar

StartChar: ampersand
Encoding: 38 38 15
Width: 450
Flags: W
LayerCount: 2
Fore
SplineSet
9 367 m 2,0,1
 7 338 7 338 17.5 317.5 c 128,-1,2
 28 297 28 297 46 281 c 128,-1,3
 64 265 64 265 87 251 c 128,-1,4
 110 237 110 237 131 222 c 0,5,6
 140 215 140 215 142.5 205.5 c 128,-1,7
 145 196 145 196 147 187 c 128,-1,8
 149 178 149 178 155 172 c 128,-1,9
 161 166 161 166 177 166 c 0,10,11
 201 166 201 166 216.5 183.5 c 128,-1,12
 232 201 232 201 241 224.5 c 128,-1,13
 250 248 250 248 255 270.5 c 128,-1,14
 260 293 260 293 264 303 c 1,15,-1
 281 317 l 1,16,17
 296 318 296 318 322.5 320 c 128,-1,18
 349 322 349 322 376 328 c 128,-1,19
 403 334 403 334 423 346 c 128,-1,20
 443 358 443 358 445 380 c 0,21,22
 446 402 446 402 426 411 c 128,-1,23
 406 420 406 420 379 422 c 128,-1,24
 352 424 352 424 326.5 422 c 128,-1,25
 301 420 301 420 292 420 c 1,26,-1
 286 433 l 1,27,-1
 286 452 l 2,28,29
 286 463 286 463 285.5 475.5 c 128,-1,30
 285 488 285 488 284.5 500 c 128,-1,31
 284 512 284 512 283.5 521 c 128,-1,32
 283 530 283 530 283 534 c 0,33,34
 283 542 283 542 282 553 c 128,-1,35
 281 564 281 564 277 574 c 128,-1,36
 273 584 273 584 265.5 591 c 128,-1,37
 258 598 258 598 246 598 c 0,38,39
 240 598 240 598 232.5 596.5 c 128,-1,40
 225 595 225 595 218.5 591 c 128,-1,41
 212 587 212 587 207 581.5 c 128,-1,42
 202 576 202 576 201 569 c 2,43,-1
 195 426 l 2,44,45
 195 419 195 419 186 411.5 c 128,-1,46
 177 404 177 404 170 404 c 2,47,-1
 35 404 l 2,48,49
 19 404 19 404 14 396.5 c 128,-1,50
 9 389 9 389 9 378 c 2,51,-1
 9 367 l 2,0,1
152 317 m 2,52,53
 152 317 152 317 153.5 317.5 c 128,-1,54
 155 318 155 318 156 318 c 2,55,-1
 159 317 l 2,56,57
 161 317 161 317 163 314 c 128,-1,58
 165 311 165 311 165 309 c 1,59,60
 164 309 164 309 162 306.5 c 128,-1,61
 160 304 160 304 157 303 c 2,62,-1
 155 302 l 2,63,64
 153 302 153 302 152 302.5 c 128,-1,65
 151 303 151 303 151 303 c 2,66,67
 148 304 148 304 146 306 c 128,-1,68
 144 308 144 308 143 309 c 1,69,70
 146 311 146 311 147.5 314 c 128,-1,71
 149 317 149 317 152 317 c 2,52,53
EndSplineSet
Validated: 41
EndChar

StartChar: quotesingle
Encoding: 39 39 16
Width: 159
Flags: W
LayerCount: 2
Fore
SplineSet
13 534 m 0,0,1
 10 511 10 511 16.5 502 c 128,-1,2
 23 493 23 493 49 493 c 0,3,4
 84 493 84 493 101.5 516.5 c 128,-1,5
 119 540 119 540 126.5 572.5 c 128,-1,6
 134 605 134 605 134.5 639.5 c 128,-1,7
 135 674 135 674 136 695 c 0,8,9
 136 707 136 707 137.5 735 c 128,-1,10
 139 763 139 763 135.5 791 c 128,-1,11
 132 819 132 819 120.5 840.5 c 128,-1,12
 109 862 109 862 84 862 c 0,13,14
 62 862 62 862 45.5 846.5 c 128,-1,15
 29 831 29 831 26 812 c 0,16,17
 25 782 25 782 29 758 c 128,-1,18
 33 734 33 734 30 703 c 0,19,20
 27 660 27 660 20.5 618.5 c 128,-1,21
 14 577 14 577 13 534 c 0,0,1
EndSplineSet
Validated: 41
EndChar

StartChar: parenleft
Encoding: 40 40 17
Width: 283
Flags: W
LayerCount: 2
Fore
SplineSet
10 367 m 0,0,1
 9 358 9 358 9 344 c 0,2,3
 9 331 9 331 9 313 c 0,4,5
 9 285 9 285 11 251.5 c 128,-1,6
 13 218 13 218 18.5 183 c 128,-1,7
 24 148 24 148 33 115 c 128,-1,8
 42 82 42 82 56 56.5 c 128,-1,9
 70 31 70 31 89 15.5 c 128,-1,10
 108 0 108 0 134 0 c 256,11,12
 160 0 160 0 168.5 14.5 c 128,-1,13
 177 29 177 29 177 49 c 0,14,15
 178 52 178 52 177.5 60 c 128,-1,16
 177 68 177 68 177 68 c 2,17,18
 176 71 176 71 171 87 c 128,-1,19
 166 103 166 103 160.5 121.5 c 128,-1,20
 155 140 155 140 150.5 156.5 c 128,-1,21
 146 173 146 173 146 177 c 0,22,23
 130 233 130 233 126 285 c 128,-1,24
 122 337 122 337 126 395 c 0,25,26
 129 463 129 463 149.5 527.5 c 128,-1,27
 170 592 170 592 200 655 c 0,28,29
 208 671 208 671 220 687.5 c 128,-1,30
 232 704 232 704 244 720.5 c 128,-1,31
 256 737 256 737 265 754.5 c 128,-1,32
 274 772 274 772 276 790 c 0,33,34
 278 809 278 809 267 821 c 128,-1,35
 256 833 256 833 235 833 c 0,36,37
 201 833 201 833 171.5 803.5 c 128,-1,38
 142 774 142 774 117 728 c 128,-1,39
 92 682 92 682 72 626.5 c 128,-1,40
 52 571 52 571 38.5 519.5 c 128,-1,41
 25 468 25 468 17.5 426.5 c 128,-1,42
 10 385 10 385 10 367 c 0,0,1
EndSplineSet
Validated: 41
EndChar

StartChar: parenright
Encoding: 41 41 18
Width: 281
Flags: W
LayerCount: 2
Fore
SplineSet
6 36 m 0,0,1
 6 28 6 28 10.5 21.5 c 128,-1,2
 15 15 15 15 22.5 10.5 c 128,-1,3
 30 6 30 6 39 3 c 128,-1,4
 48 0 48 0 56 0 c 0,5,6
 90 0 90 0 119 24.5 c 128,-1,7
 148 49 148 49 171.5 87.5 c 128,-1,8
 195 126 195 126 213 173 c 128,-1,9
 231 220 231 220 243 265 c 128,-1,10
 255 310 255 310 262 348 c 128,-1,11
 269 386 269 386 270 407 c 0,12,13
 270 421 270 421 269 459.5 c 128,-1,14
 268 498 268 498 264 547 c 128,-1,15
 260 596 260 596 251.5 649 c 128,-1,16
 243 702 243 702 227.5 746.5 c 128,-1,17
 212 791 212 791 189 819.5 c 128,-1,18
 166 848 166 848 133 848 c 0,19,20
 113 848 113 848 103.5 834 c 128,-1,21
 94 820 94 820 92 805 c 2,22,-1
 92 790 l 1,23,24
 110 740 110 740 125.5 690.5 c 128,-1,25
 141 641 141 641 152 591 c 128,-1,26
 163 541 163 541 168.5 489.5 c 128,-1,27
 174 438 174 438 172 383 c 0,28,29
 169 322 169 322 152 270 c 128,-1,30
 135 218 135 218 97 164 c 0,31,32
 86 148 86 148 71.5 133 c 128,-1,33
 57 118 57 118 42.5 103 c 128,-1,34
 28 88 28 88 17.5 71.5 c 128,-1,35
 7 55 7 55 6 36 c 0,0,1
EndSplineSet
Validated: 41
EndChar

StartChar: asterisk
Encoding: 42 42 19
Width: 331
Flags: W
LayerCount: 2
Fore
SplineSet
321 794 m 0,0,1
 318 803 318 803 302.5 811 c 128,-1,2
 287 819 287 819 272 819 c 0,3,4
 255 819 255 819 243 810 c 0,5,6
 235 802 235 802 229.5 797 c 128,-1,7
 224 792 224 792 221 789 c 1,8,9
 222 797 222 797 222 803 c 256,10,11
 222 809 222 809 222 814 c 0,12,13
 222 825 222 825 224 828 c 0,14,15
 226 843 226 843 213.5 850.5 c 128,-1,16
 201 858 201 858 181 858 c 0,17,18
 140 858 140 858 123 829 c 0,19,20
 106 807 106 807 109 781 c 1,21,22
 98 788 98 788 87 793.5 c 128,-1,23
 76 799 76 799 65 799 c 0,24,25
 57 799 57 799 49 797 c 0,26,27
 19 789 19 789 18 758 c 0,28,29
 18 747 18 747 21.5 738 c 128,-1,30
 25 729 25 729 36 721 c 0,31,32
 47 716 47 716 50 713 c 128,-1,33
 53 710 53 710 56 708 c 0,34,35
 68 702 68 702 71 697 c 1,36,37
 60 690 60 690 54.5 685.5 c 128,-1,38
 49 681 49 681 42 677 c 0,39,40
 25 666 25 666 17 654.5 c 128,-1,41
 9 643 9 643 8 632 c 0,42,43
 8 622 8 622 14 612 c 0,44,45
 33 591 33 591 55 591 c 0,46,47
 76 591 76 591 105 611 c 1,48,49
 105 600 105 600 103 590 c 0,50,51
 100 548 100 548 130 539 c 1,52,53
 164 542 164 542 186 557.5 c 128,-1,54
 208 573 208 573 211 601 c 2,55,-1
 211 612 l 1,56,57
 244 597 244 597 266 597 c 0,58,59
 295 597 295 597 307 620 c 0,60,61
 313 630 313 630 313 642 c 0,62,63
 315 662 315 662 301.5 678 c 128,-1,64
 288 694 288 694 265 697 c 0,65,66
 262 698 262 698 256 699 c 128,-1,67
 250 700 250 700 243 703 c 1,68,69
 258 712 258 712 265.5 718.5 c 128,-1,70
 273 725 273 725 276 728 c 0,71,72
 321 747 321 747 324 777 c 0,73,74
 324 780 324 780 323 784.5 c 128,-1,75
 322 789 322 789 321 794 c 0,0,1
EndSplineSet
Validated: 41
EndChar

StartChar: plus
Encoding: 43 43 20
Width: 532
Flags: W
LayerCount: 2
Fore
SplineSet
162 204 m 2,0,-1
 160 185 l 2,1,2
 160 168 160 168 166 156.5 c 128,-1,3
 172 145 172 145 191 145 c 0,4,5
 212 145 212 145 225 156.5 c 128,-1,6
 238 168 238 168 245.5 186.5 c 128,-1,7
 253 205 253 205 257 227.5 c 128,-1,8
 261 250 261 250 264.5 272 c 128,-1,9
 268 294 268 294 272.5 313 c 128,-1,10
 277 332 277 332 286 343 c 0,11,12
 292 350 292 350 311 353 c 128,-1,13
 330 356 330 356 356 357.5 c 128,-1,14
 382 359 382 359 410.5 359.5 c 128,-1,15
 439 360 439 360 463.5 363 c 128,-1,16
 488 366 488 366 504 371.5 c 128,-1,17
 520 377 520 377 521 388 c 2,18,-1
 524 436 l 2,19,20
 524 440 524 440 517 442 c 0,21,22
 515 442 515 442 510.5 443 c 128,-1,23
 506 444 506 444 500.5 445 c 128,-1,24
 495 446 495 446 490.5 446.5 c 128,-1,25
 486 447 486 447 485 447 c 2,26,-1
 317 447 l 2,27,28
 311 447 311 447 311 452 c 2,29,-1
 311 461 l 2,30,31
 312 480 312 480 317.5 499.5 c 128,-1,32
 323 519 323 519 329.5 537.5 c 128,-1,33
 336 556 336 556 341 575 c 128,-1,34
 346 594 346 594 346 613 c 2,35,-1
 346 632 l 1,36,37
 333 651 333 651 313 651 c 0,38,39
 294 651 294 651 281.5 640.5 c 128,-1,40
 269 630 269 630 260.5 615.5 c 128,-1,41
 252 601 252 601 247.5 585 c 128,-1,42
 243 569 243 569 240 558 c 0,43,44
 238 553 238 553 234 538.5 c 128,-1,45
 230 524 230 524 226 508 c 128,-1,46
 222 492 222 492 219 478 c 128,-1,47
 216 464 216 464 215 459 c 0,48,49
 207 443 207 443 189 437.5 c 128,-1,50
 171 432 171 432 148 431.5 c 128,-1,51
 125 431 125 431 100 432 c 128,-1,52
 75 433 75 433 54 430.5 c 128,-1,53
 33 428 33 428 19 418 c 128,-1,54
 5 408 5 408 4 385 c 0,55,56
 3 371 3 371 14 362.5 c 128,-1,57
 25 354 25 354 41 354 c 2,58,-1
 171 354 l 2,59,60
 180 354 180 354 182 347.5 c 128,-1,61
 184 341 184 341 183 334 c 2,62,-1
 183 326 l 2,63,64
 182 294 182 294 173.5 264 c 128,-1,65
 165 234 165 234 162 204 c 2,0,-1
EndSplineSet
Validated: 41
EndChar

StartChar: comma
Encoding: 44 44 21
Width: 199
Flags: W
LayerCount: 2
Fore
SplineSet
5 -125 m 0,0,1
 4 -139 4 -139 15.5 -143 c 128,-1,2
 27 -147 27 -147 40 -147 c 0,3,4
 68 -147 68 -147 94.5 -122 c 128,-1,5
 121 -97 121 -97 142 -62.5 c 128,-1,6
 163 -28 163 -28 176 8 c 128,-1,7
 189 44 189 44 191 65 c 2,8,-1
 192 73 l 1,9,-1
 192 107 l 1,10,11
 188 118 188 118 180 126.5 c 128,-1,12
 172 135 172 135 156 135 c 0,13,14
 133 135 133 135 121.5 123.5 c 128,-1,15
 110 112 110 112 104.5 95.5 c 128,-1,16
 99 79 99 79 97 61 c 128,-1,17
 95 43 95 43 91 31 c 0,18,19
 85 17 85 17 74 -3.5 c 128,-1,20
 63 -24 63 -24 51 -45.5 c 128,-1,21
 39 -67 39 -67 27 -87 c 128,-1,22
 15 -107 15 -107 6 -120 c 1,23,24
 6 -120 6 -120 5.5 -122 c 128,-1,25
 5 -124 5 -124 5 -125 c 0,0,1
EndSplineSet
Validated: 9
EndChar

StartChar: hyphen
Encoding: 45 45 22
Width: 394
Flags: W
LayerCount: 2
Fore
SplineSet
16 335 m 0,0,1
 13 315 13 315 29.5 304 c 128,-1,2
 46 293 46 293 66 286 c 1,3,-1
 112 286 l 2,4,5
 145 286 145 286 173 287 c 128,-1,6
 201 288 201 288 230 290 c 128,-1,7
 259 292 259 292 291 296.5 c 128,-1,8
 323 301 323 301 363 307 c 1,9,10
 374 314 374 314 377.5 322.5 c 128,-1,11
 381 331 381 331 382 342 c 0,12,13
 382 361 382 361 365.5 371 c 128,-1,14
 349 381 349 381 329 381 c 2,15,-1
 79 381 l 2,16,17
 56 381 56 381 36.5 369.5 c 128,-1,18
 17 358 17 358 16 335 c 0,0,1
EndSplineSet
Validated: 41
EndChar

StartChar: period
Encoding: 46 46 23
Width: 140
Flags: W
LayerCount: 2
Fore
SplineSet
13 56 m 0,0,1
 10 33 10 33 24.5 16 c 128,-1,2
 39 -1 39 -1 66 -1 c 0,3,4
 78 -1 78 -1 89 5.5 c 128,-1,5
 100 12 100 12 109 22.5 c 128,-1,6
 118 33 118 33 123.5 45 c 128,-1,7
 129 57 129 57 129 68 c 0,8,9
 132 91 132 91 112.5 104 c 128,-1,10
 93 117 93 117 69 117 c 0,11,12
 41 117 41 117 27.5 98 c 128,-1,13
 14 79 14 79 13 56 c 0,0,1
EndSplineSet
Validated: 41
EndChar

StartChar: slash
Encoding: 47 47 24
Width: 491
Flags: W
LayerCount: 2
Fore
SplineSet
4 39 m 0,0,1
 3 24 3 24 8.5 12 c 128,-1,2
 14 0 14 0 32 0 c 0,3,4
 53 0 53 0 67 9 c 128,-1,5
 81 18 81 18 90.5 31.5 c 128,-1,6
 100 45 100 45 107 60.5 c 128,-1,7
 114 76 114 76 121 88 c 0,8,9
 134 111 134 111 153.5 146 c 128,-1,10
 173 181 173 181 195.5 220 c 128,-1,11
 218 259 218 259 240.5 298.5 c 128,-1,12
 263 338 263 338 282 370 c 128,-1,13
 301 402 301 402 313.5 424 c 128,-1,14
 326 446 326 446 329 450 c 0,15,16
 332 453 332 453 345.5 472 c 128,-1,17
 359 491 359 491 375.5 515.5 c 128,-1,18
 392 540 392 540 409 565.5 c 128,-1,19
 426 591 426 591 437 607 c 0,20,21
 455 632 455 632 470.5 654.5 c 128,-1,22
 486 677 486 677 489 706 c 0,23,24
 490 726 490 726 481.5 735 c 128,-1,25
 473 744 473 744 450 744 c 0,26,27
 435 744 435 744 407.5 718 c 128,-1,28
 380 692 380 692 346 648.5 c 128,-1,29
 312 605 312 605 274 548 c 128,-1,30
 236 491 236 491 198 430 c 128,-1,31
 160 369 160 369 125.5 307.5 c 128,-1,32
 91 246 91 246 64.5 192.5 c 128,-1,33
 38 139 38 139 21.5 98.5 c 128,-1,34
 5 58 5 58 4 39 c 0,0,1
EndSplineSet
Validated: 9
EndChar

StartChar: zero
Encoding: 48 48 25
Width: 655
Flags: W
LayerCount: 2
Fore
SplineSet
14 251 m 0,0,1
 12 200 12 200 26 154.5 c 128,-1,2
 40 109 40 109 70 74.5 c 128,-1,3
 100 40 100 40 145 20 c 128,-1,4
 190 0 190 0 250 0 c 0,5,6
 305 0 305 0 354.5 19 c 128,-1,7
 404 38 404 38 446.5 70 c 128,-1,8
 489 102 489 102 523.5 144 c 128,-1,9
 558 186 558 186 583.5 233 c 128,-1,10
 609 280 609 280 623.5 328.5 c 128,-1,11
 638 377 638 377 641 421 c 0,12,13
 642 463 642 463 630.5 515 c 128,-1,14
 619 567 619 567 593 612 c 128,-1,15
 567 657 567 657 525 687.5 c 128,-1,16
 483 718 483 718 425 718 c 0,17,18
 361 718 361 718 306.5 697.5 c 128,-1,19
 252 677 252 677 207.5 641.5 c 128,-1,20
 163 606 163 606 128 559.5 c 128,-1,21
 93 513 93 513 68.5 461 c 128,-1,22
 44 409 44 409 30.5 355 c 128,-1,23
 17 301 17 301 14 251 c 0,0,1
139 272 m 0,24,25
 141 302 141 302 149 339.5 c 128,-1,26
 157 377 157 377 171.5 415 c 128,-1,27
 186 453 186 453 207 489 c 128,-1,28
 228 525 228 525 256.5 553 c 128,-1,29
 285 581 285 581 320.5 598 c 128,-1,30
 356 615 356 615 399 615 c 0,31,32
 439 615 439 615 468.5 596 c 128,-1,33
 498 577 498 577 516.5 547.5 c 128,-1,34
 535 518 535 518 543 484 c 128,-1,35
 551 450 551 450 550 420 c 0,36,37
 547 379 547 379 526 324 c 128,-1,38
 505 269 505 269 470.5 219 c 128,-1,39
 436 169 436 169 390.5 134.5 c 128,-1,40
 345 100 345 100 294 100 c 0,41,42
 253 100 253 100 223 114.5 c 128,-1,43
 193 129 193 129 173.5 153 c 128,-1,44
 154 177 154 177 145.5 208 c 128,-1,45
 137 239 137 239 139 272 c 0,24,25
EndSplineSet
Validated: 41
EndChar

StartChar: one
Encoding: 49 49 26
Width: 252
Flags: W
LayerCount: 2
Fore
SplineSet
94 120 m 1,0,-1
 91 88 l 2,1,2
 91 74 91 74 92 58.5 c 128,-1,3
 93 43 93 43 97 30 c 128,-1,4
 101 17 101 17 109 8.5 c 128,-1,5
 117 0 117 0 131 0 c 0,6,7
 157 0 157 0 172.5 16 c 128,-1,8
 188 32 188 32 196 55 c 1,9,10
 197 121 197 121 202.5 188 c 128,-1,11
 208 255 208 255 215 322 c 128,-1,12
 222 389 222 389 228.5 456.5 c 128,-1,13
 235 524 235 524 239 590 c 2,14,-1
 240 604 l 1,15,-1
 240 653 l 1,16,-1
 242 668 l 1,17,18
 239 678 239 678 232 687 c 128,-1,19
 225 696 225 696 215 703 c 128,-1,20
 205 710 205 710 194 714 c 128,-1,21
 183 718 183 718 173 718 c 0,22,23
 166 718 166 718 151 703 c 128,-1,24
 136 688 136 688 117 664.5 c 128,-1,25
 98 641 98 641 78 612.5 c 128,-1,26
 58 584 58 584 41.5 557 c 128,-1,27
 25 530 25 530 14.5 509 c 128,-1,28
 4 488 4 488 4 478 c 0,29,30
 3 460 3 460 12 454 c 128,-1,31
 21 448 21 448 42 448 c 0,32,33
 52 448 52 448 59.5 451.5 c 128,-1,34
 67 455 67 455 73.5 459.5 c 128,-1,35
 80 464 80 464 87 468 c 128,-1,36
 94 472 94 472 104 472 c 0,37,38
 107 472 107 472 111 471.5 c 128,-1,39
 115 471 115 471 118 464 c 2,40,-1
 116 420 l 2,41,42
 111 345 111 345 103.5 270 c 128,-1,43
 96 195 96 195 94 120 c 1,0,-1
EndSplineSet
Validated: 9
EndChar

StartChar: two
Encoding: 50 50 27
Width: 503
Flags: W
LayerCount: 2
Fore
SplineSet
18 122 m 1,0,-1
 13 34 l 2,1,2
 11 23 11 23 18 16.5 c 128,-1,3
 25 10 25 10 35.5 6.5 c 128,-1,4
 46 3 46 3 57.5 1.5 c 128,-1,5
 69 0 69 0 77 0 c 0,6,7
 100 0 100 0 123 4.5 c 128,-1,8
 146 9 146 9 169 15 c 128,-1,9
 192 21 192 21 215.5 26.5 c 128,-1,10
 239 32 239 32 264 34 c 0,11,12
 275 35 275 35 300 35.5 c 128,-1,13
 325 36 325 36 355 36 c 256,14,15
 385 36 385 36 409.5 35.5 c 128,-1,16
 434 35 434 35 446 34 c 1,17,18
 476 43 476 43 478 71 c 0,19,20
 479 90 479 90 470 102.5 c 128,-1,21
 461 115 461 115 445.5 122.5 c 128,-1,22
 430 130 430 130 411.5 133 c 128,-1,23
 393 136 393 136 377 136 c 0,24,25
 321 136 321 136 268.5 127 c 128,-1,26
 216 118 216 118 161 118 c 1,27,-1
 161 130 l 1,28,29
 217 174 217 174 274 222.5 c 128,-1,30
 331 271 331 271 378 326 c 128,-1,31
 425 381 425 381 455.5 442.5 c 128,-1,32
 486 504 486 504 490 575 c 0,33,34
 491 629 491 629 468 667 c 128,-1,35
 445 705 445 705 383 716 c 1,36,-1
 369 716 l 2,37,38
 360 716 360 716 349.5 717 c 128,-1,39
 339 718 339 718 328 718 c 2,40,-1
 313 718 l 2,41,42
 301 718 301 718 277 716 c 128,-1,43
 253 714 253 714 224.5 709 c 128,-1,44
 196 704 196 704 165.5 696.5 c 128,-1,45
 135 689 135 689 110 679 c 128,-1,46
 85 669 85 669 68.5 655.5 c 128,-1,47
 52 642 52 642 51 625 c 0,48,49
 48 558 48 558 114 558 c 0,50,51
 139 558 139 558 160.5 568 c 128,-1,52
 182 578 182 578 202.5 589.5 c 128,-1,53
 223 601 223 601 245 611 c 128,-1,54
 267 621 267 621 294 621 c 0,55,56
 312 621 312 621 328.5 618 c 128,-1,57
 345 615 345 615 357.5 607.5 c 128,-1,58
 370 600 370 600 377 588 c 128,-1,59
 384 576 384 576 383 558 c 0,60,61
 381 528 381 528 369.5 499 c 128,-1,62
 358 470 358 470 340.5 443.5 c 128,-1,63
 323 417 323 417 301 392.5 c 128,-1,64
 279 368 279 368 256 347 c 0,65,66
 244 335 244 335 212.5 307.5 c 128,-1,67
 181 280 181 280 145 248.5 c 128,-1,68
 109 217 109 217 77.5 189 c 128,-1,69
 46 161 46 161 34 149 c 1,70,-1
 18 122 l 1,0,-1
EndSplineSet
Validated: 41
EndChar

StartChar: three
Encoding: 51 51 28
Width: 575
Flags: W
LayerCount: 2
Fore
SplineSet
13 74 m 0,0,1
 11 58 11 58 19 45 c 128,-1,2
 27 32 27 32 40 23 c 128,-1,3
 53 14 53 14 69.5 8 c 128,-1,4
 86 2 86 2 101 0 c 2,5,-1
 177 0 l 2,6,7
 234 0 234 0 295 13.5 c 128,-1,8
 356 27 356 27 407.5 55 c 128,-1,9
 459 83 459 83 493.5 126.5 c 128,-1,10
 528 170 528 170 532 230 c 0,11,12
 533 264 533 264 522 291.5 c 128,-1,13
 511 319 511 319 491.5 343 c 128,-1,14
 472 367 472 367 447 387.5 c 128,-1,15
 422 408 422 408 396 428 c 0,16,17
 392 431 392 431 387 436 c 128,-1,18
 382 441 382 441 382 441 c 2,19,20
 381 446 381 446 393 457.5 c 128,-1,21
 405 469 405 469 424.5 485.5 c 128,-1,22
 444 502 444 502 467 521.5 c 128,-1,23
 490 541 490 541 510.5 561 c 128,-1,24
 531 581 531 581 545 600.5 c 128,-1,25
 559 620 559 620 560 636 c 0,26,27
 561 669 561 669 537.5 690 c 128,-1,28
 514 711 514 711 479.5 722.5 c 128,-1,29
 445 734 445 734 406 738 c 128,-1,30
 367 742 367 742 338 742 c 0,31,32
 321 742 321 742 294 739.5 c 128,-1,33
 267 737 267 737 235 732 c 128,-1,34
 203 727 203 727 171 718.5 c 128,-1,35
 139 710 139 710 112 698 c 128,-1,36
 85 686 85 686 67.5 670 c 128,-1,37
 50 654 50 654 49 634 c 0,38,39
 49 626 49 626 55 618 c 128,-1,40
 61 610 61 610 70 603.5 c 128,-1,41
 79 597 79 597 89.5 593 c 128,-1,42
 100 589 100 589 110 589 c 0,43,44
 113 589 113 589 114.5 589.5 c 128,-1,45
 116 590 116 590 117 590 c 0,46,47
 169 615 169 615 216 629 c 128,-1,48
 263 643 263 643 322 643 c 2,49,-1
 331 643 l 2,50,51
 339 643 339 643 346.5 642.5 c 128,-1,52
 354 642 354 642 361 642 c 2,53,-1
 370 642 l 2,54,55
 382 639 382 639 395 629.5 c 128,-1,56
 408 620 408 620 407 608 c 0,57,58
 406 585 406 585 384.5 562.5 c 128,-1,59
 363 540 363 540 331.5 517.5 c 128,-1,60
 300 495 300 495 263.5 473.5 c 128,-1,61
 227 452 227 452 195.5 432 c 128,-1,62
 164 412 164 412 142.5 392.5 c 128,-1,63
 121 373 121 373 120 356 c 0,64,65
 117 313 117 313 164 313 c 0,66,67
 196 313 196 313 227 324 c 128,-1,68
 258 335 258 335 290 335 c 0,69,70
 311 335 311 335 334.5 327.5 c 128,-1,71
 358 320 358 320 376.5 306.5 c 128,-1,72
 395 293 395 293 406.5 275.5 c 128,-1,73
 418 258 418 258 417 237 c 0,74,75
 415 199 415 199 390.5 174.5 c 128,-1,76
 366 150 366 150 330.5 136 c 128,-1,77
 295 122 295 122 255.5 117 c 128,-1,78
 216 112 216 112 183 112 c 0,79,80
 151 112 151 112 122 116 c 128,-1,81
 93 120 93 120 61 120 c 2,82,-1
 31 120 l 1,83,84
 17 111 17 111 15.5 98.5 c 128,-1,85
 14 86 14 86 13 74 c 0,0,1
EndSplineSet
Validated: 41
EndChar

StartChar: four
Encoding: 52 52 29
Width: 581
Flags: W
LayerCount: 2
Fore
SplineSet
299 328 m 2,0,-1
 372 328 l 2,1,2
 376 328 376 328 379.5 326.5 c 128,-1,3
 383 325 383 325 383 321 c 2,4,-1
 370 55 l 2,5,6
 368 27 368 27 375.5 13 c 128,-1,7
 383 -1 383 -1 413 -1 c 0,8,9
 428 -1 428 -1 439.5 0.5 c 128,-1,10
 451 2 451 2 459 21 c 1,11,12
 461 66 461 66 464.5 101 c 128,-1,13
 468 136 468 136 473 169 c 128,-1,14
 478 202 478 202 484 236.5 c 128,-1,15
 490 271 490 271 498 313 c 0,16,17
 500 328 500 328 508.5 341.5 c 128,-1,18
 517 355 517 355 526 367.5 c 128,-1,19
 535 380 535 380 542 393 c 128,-1,20
 549 406 549 406 549 420 c 0,21,22
 550 434 550 434 543 448.5 c 128,-1,23
 536 463 536 463 536 477 c 0,24,25
 537 500 537 500 542 523.5 c 128,-1,26
 547 547 547 547 552.5 570.5 c 128,-1,27
 558 594 558 594 562.5 618 c 128,-1,28
 567 642 567 642 569 667 c 2,29,-1
 571 686 l 2,30,31
 571 702 571 702 567.5 718.5 c 128,-1,32
 564 735 564 735 550 742 c 0,33,34
 547 744 547 744 537 744.5 c 128,-1,35
 527 745 527 745 524 745 c 2,36,-1
 508 745 l 2,37,38
 497 745 497 745 487.5 741 c 128,-1,39
 478 737 478 737 473 723 c 0,40,41
 471 714 471 714 467 694 c 128,-1,42
 463 674 463 674 457 649 c 128,-1,43
 451 624 451 624 444.5 596.5 c 128,-1,44
 438 569 438 569 432 544 c 128,-1,45
 426 519 426 519 421.5 499.5 c 128,-1,46
 417 480 417 480 415 471 c 0,47,48
 408 444 408 444 391.5 433 c 128,-1,49
 375 422 375 422 343 422 c 2,50,-1
 153 422 l 2,51,52
 147 422 147 422 147 429 c 2,53,-1
 147 438 l 2,54,55
 148 470 148 470 164.5 500 c 128,-1,56
 181 530 181 530 199.5 558.5 c 128,-1,57
 218 587 218 587 234 616 c 128,-1,58
 250 645 250 645 252 676 c 0,59,60
 253 719 253 719 207 719 c 0,61,62
 183 719 183 719 158.5 695.5 c 128,-1,63
 134 672 134 672 111.5 635 c 128,-1,64
 89 598 89 598 69.5 552.5 c 128,-1,65
 50 507 50 507 36 463 c 0,66,67
 22 416 22 416 13.5 383 c 128,-1,68
 5 350 5 350 4 329 c 128,-1,69
 3 308 3 308 13 298 c 128,-1,70
 23 288 23 288 47 286 c 0,71,72
 59 286 59 286 67.5 289.5 c 128,-1,73
 76 293 76 293 83.5 298 c 128,-1,74
 91 303 91 303 99 307 c 128,-1,75
 107 311 107 311 118 313 c 0,76,77
 160 324 160 324 206.5 326 c 128,-1,78
 253 328 253 328 299 328 c 2,0,-1
EndSplineSet
Validated: 41
EndChar

StartChar: five
Encoding: 53 53 30
Width: 627
Flags: W
LayerCount: 2
Fore
SplineSet
18 153 m 0,0,1
 14 105 14 105 37.5 75 c 128,-1,2
 61 45 61 45 99 28.5 c 128,-1,3
 137 12 137 12 183.5 6 c 128,-1,4
 230 0 230 0 272 0 c 0,5,6
 334 0 334 0 390 20 c 128,-1,7
 446 40 446 40 489 76 c 128,-1,8
 532 112 532 112 558 160.5 c 128,-1,9
 584 209 584 209 586 266 c 0,10,11
 587 299 587 299 579.5 335 c 128,-1,12
 572 371 572 371 553 401.5 c 128,-1,13
 534 432 534 432 503.5 451.5 c 128,-1,14
 473 471 473 471 429 471 c 2,15,-1
 178 471 l 2,16,17
 177 471 177 471 175.5 475.5 c 128,-1,18
 174 480 174 480 172 485 c 2,19,-1
 172 490 l 2,20,21
 172 496 172 496 174 510 c 128,-1,22
 176 524 176 524 178.5 539.5 c 128,-1,23
 181 555 181 555 183 568 c 128,-1,24
 185 581 185 581 185 586 c 0,25,26
 192 602 192 602 210.5 613 c 128,-1,27
 229 624 229 624 251 630.5 c 128,-1,28
 273 637 273 637 295.5 639.5 c 128,-1,29
 318 642 318 642 334 642 c 0,30,31
 389 642 389 642 442.5 633.5 c 128,-1,32
 496 625 496 625 552 625 c 0,33,34
 575 625 575 625 593.5 631.5 c 128,-1,35
 612 638 612 638 615 663 c 0,36,37
 616 682 616 682 605.5 694.5 c 128,-1,38
 595 707 595 707 577.5 715.5 c 128,-1,39
 560 724 560 724 538 728.5 c 128,-1,40
 516 733 516 733 493.5 734.5 c 128,-1,41
 471 736 471 736 451 736.5 c 128,-1,42
 431 737 431 737 417 737 c 0,43,44
 338 737 338 737 264.5 721 c 128,-1,45
 191 705 191 705 113 682 c 1,46,47
 106 675 106 675 99.5 669.5 c 128,-1,48
 93 664 93 664 90 655 c 0,49,50
 83 586 83 586 73 517.5 c 128,-1,51
 63 449 63 449 60 380 c 0,52,53
 58 361 58 361 60 350 c 128,-1,54
 62 339 62 339 81 328 c 0,55,56
 83 326 83 326 95 326 c 2,57,-1
 110 326 l 2,58,59
 137 326 137 326 164.5 332.5 c 128,-1,60
 192 339 192 339 220 347.5 c 128,-1,61
 248 356 248 356 276.5 362.5 c 128,-1,62
 305 369 305 369 335 369 c 2,63,-1
 347 369 l 2,64,65
 355 369 355 369 364 368.5 c 128,-1,66
 373 368 373 368 382 368 c 2,67,-1
 394 368 l 1,68,69
 438 349 438 349 460.5 323 c 128,-1,70
 483 297 483 297 480 251 c 0,71,72
 477 216 477 216 459.5 188 c 128,-1,73
 442 160 442 160 415 140.5 c 128,-1,74
 388 121 388 121 353 110.5 c 128,-1,75
 318 100 318 100 281 100 c 0,76,77
 243 100 243 100 210 103.5 c 128,-1,78
 177 107 177 107 146 130 c 0,79,80
 135 136 135 136 125.5 148.5 c 128,-1,81
 116 161 116 161 106.5 173.5 c 128,-1,82
 97 186 97 186 85.5 195.5 c 128,-1,83
 74 205 74 205 61 205 c 0,84,85
 37 205 37 205 27.5 188.5 c 128,-1,86
 18 172 18 172 18 153 c 0,0,1
EndSplineSet
Validated: 41
EndChar

StartChar: six
Encoding: 54 54 31
Width: 573
Flags: W
LayerCount: 2
Fore
SplineSet
14 294 m 0,0,1
 12 244 12 244 19.5 192 c 128,-1,2
 27 140 27 140 50.5 97.5 c 128,-1,3
 74 55 74 55 116 27.5 c 128,-1,4
 158 0 158 0 224 0 c 0,5,6
 288 0 288 0 347.5 24 c 128,-1,7
 407 48 407 48 453.5 88 c 128,-1,8
 500 128 500 128 529 180 c 128,-1,9
 558 232 558 232 560 289 c 0,10,11
 562 314 562 314 556.5 339 c 128,-1,12
 551 364 551 364 538.5 384.5 c 128,-1,13
 526 405 526 405 505 420.5 c 128,-1,14
 484 436 484 436 455 443 c 1,15,-1
 442 443 l 2,16,17
 433 443 433 443 424.5 444 c 128,-1,18
 416 445 416 445 407 445 c 2,19,-1
 395 445 l 2,20,21
 357 445 357 445 325.5 439 c 128,-1,22
 294 433 294 433 265 422 c 128,-1,23
 236 411 236 411 207.5 396 c 128,-1,24
 179 381 179 381 148 363 c 1,25,-1
 134 363 l 1,26,27
 138 422 138 422 164.5 469.5 c 128,-1,28
 191 517 191 517 232.5 555.5 c 128,-1,29
 274 594 274 594 327.5 623.5 c 128,-1,30
 381 653 381 653 438 676 c 1,31,32
 454 687 454 687 457.5 697.5 c 128,-1,33
 461 708 461 708 463 724 c 0,34,35
 464 739 464 739 462.5 747.5 c 128,-1,36
 461 756 461 756 442 763 c 0,37,38
 437 763 437 763 426.5 763.5 c 128,-1,39
 416 764 416 764 411 764 c 0,40,41
 389 764 389 764 371.5 760 c 128,-1,42
 354 756 354 756 338.5 749 c 128,-1,43
 323 742 323 742 306.5 732 c 128,-1,44
 290 722 290 722 270 710 c 0,45,46
 152 635 152 635 86.5 527.5 c 128,-1,47
 21 420 21 420 14 294 c 0,0,1
123 194 m 0,48,49
 124 225 124 225 151 251 c 128,-1,50
 178 277 178 277 215.5 295.5 c 128,-1,51
 253 314 253 314 294 324.5 c 128,-1,52
 335 335 335 335 365 335 c 0,53,54
 381 335 381 335 395 332.5 c 128,-1,55
 409 330 409 330 419.5 324 c 128,-1,56
 430 318 430 318 435 308 c 128,-1,57
 440 298 440 298 439 282 c 0,58,59
 437 249 437 249 419 218 c 128,-1,60
 401 187 401 187 372.5 162.5 c 128,-1,61
 344 138 344 138 309 123.5 c 128,-1,62
 274 109 274 109 239 109 c 0,63,64
 218 109 218 109 196.5 114 c 128,-1,65
 175 119 175 119 158.5 129 c 128,-1,66
 142 139 142 139 132 155 c 128,-1,67
 122 171 122 171 123 194 c 0,48,49
EndSplineSet
Validated: 41
EndChar

StartChar: seven
Encoding: 55 55 32
Width: 529
Flags: W
LayerCount: 2
Fore
SplineSet
44 47 m 0,0,1
 43 26 43 26 57.5 13 c 128,-1,2
 72 0 72 0 96 0 c 0,3,4
 123 0 123 0 142 25 c 128,-1,5
 161 50 161 50 174 83.5 c 128,-1,6
 187 117 187 117 196 150 c 128,-1,7
 205 183 205 183 213 198 c 0,8,9
 240 250 240 250 274 299.5 c 128,-1,10
 308 349 308 349 347 395.5 c 128,-1,11
 386 442 386 442 428 486 c 128,-1,12
 470 530 470 530 513 573 c 0,13,14
 516 580 516 580 518.5 587 c 128,-1,15
 521 594 521 594 523 602 c 2,16,-1
 524 630 l 1,17,-1
 525 638 l 1,18,-1
 525 649 l 2,19,20
 525 656 525 656 526 660 c 2,21,-1
 526 668 l 1,22,23
 522 688 522 688 499.5 705.5 c 128,-1,24
 477 723 477 723 454 731 c 1,25,-1
 403 731 l 2,26,27
 361 731 361 731 320 726 c 128,-1,28
 279 721 279 721 238.5 716 c 128,-1,29
 198 711 198 711 157 708.5 c 128,-1,30
 116 706 116 706 74 710 c 1,31,32
 40 701 40 701 27.5 675 c 128,-1,33
 15 649 15 649 14 623 c 0,34,35
 13 614 13 614 13 607 c 256,36,37
 13 600 13 600 13 593 c 0,38,39
 13 575 13 575 24 566.5 c 128,-1,40
 35 558 35 558 64 558 c 0,41,42
 83 558 83 558 93 565 c 128,-1,43
 103 572 103 572 110 581.5 c 128,-1,44
 117 591 117 591 124 600.5 c 128,-1,45
 131 610 131 610 144 614 c 0,46,47
 207 636 207 636 272.5 637 c 128,-1,48
 338 638 338 638 402 638 c 1,49,-1
 402 614 l 1,50,51
 341 555 341 555 291 493.5 c 128,-1,52
 241 432 241 432 199 366.5 c 128,-1,53
 157 301 157 301 121.5 232 c 128,-1,54
 86 163 86 163 55 88 c 0,55,56
 47 74 47 74 46 67 c 128,-1,57
 45 60 45 60 44 47 c 0,0,1
EndSplineSet
Validated: 41
EndChar

StartChar: eight
Encoding: 56 56 33
Width: 624
Flags: W
LayerCount: 2
Fore
SplineSet
14 153 m 0,0,1
 12 115 12 115 26 86.5 c 128,-1,2
 40 58 40 58 66.5 39 c 128,-1,3
 93 20 93 20 128 10 c 128,-1,4
 163 0 163 0 203 0 c 0,5,6
 238 0 238 0 281 9 c 128,-1,7
 324 18 324 18 368.5 34 c 128,-1,8
 413 50 413 50 456 72.5 c 128,-1,9
 499 95 499 95 532.5 123 c 128,-1,10
 566 151 566 151 588 183.5 c 128,-1,11
 610 216 610 216 612 251 c 0,12,13
 613 279 613 279 603 304.5 c 128,-1,14
 593 330 593 330 575.5 353 c 128,-1,15
 558 376 558 376 535.5 395.5 c 128,-1,16
 513 415 513 415 490 430 c 1,17,-1
 490 439 l 2,18,19
 491 456 491 456 506 478 c 128,-1,20
 521 500 521 500 538 526 c 128,-1,21
 555 552 555 552 569.5 582 c 128,-1,22
 584 612 584 612 586 646 c 0,23,24
 587 665 587 665 580.5 689 c 128,-1,25
 574 713 574 713 560 734 c 128,-1,26
 546 755 546 755 525.5 769.5 c 128,-1,27
 505 784 505 784 480 784 c 2,28,-1
 351 784 l 2,29,30
 325 784 325 784 294 771 c 128,-1,31
 263 758 263 758 231.5 736 c 128,-1,32
 200 714 200 714 170 686.5 c 128,-1,33
 140 659 140 659 116.5 630.5 c 128,-1,34
 93 602 93 602 78 574 c 128,-1,35
 63 546 63 546 62 525 c 0,36,37
 60 504 60 504 71.5 486.5 c 128,-1,38
 83 469 83 469 97 453 c 128,-1,39
 111 437 111 437 122.5 420 c 128,-1,40
 134 403 134 403 133 383 c 0,41,42
 133 374 133 374 124.5 360 c 128,-1,43
 116 346 116 346 103 329 c 128,-1,44
 90 312 90 312 75 291.5 c 128,-1,45
 60 271 60 271 46.5 248.5 c 128,-1,46
 33 226 33 226 24 202 c 128,-1,47
 15 178 15 178 14 153 c 0,0,1
120 122 m 1,48,-1
 120 146 l 2,49,50
 121 187 121 187 142 226 c 128,-1,51
 163 265 163 265 196.5 295.5 c 128,-1,52
 230 326 230 326 273.5 344.5 c 128,-1,53
 317 363 317 363 364 363 c 0,54,55
 391 363 391 363 412 353 c 128,-1,56
 433 343 433 343 447 326.5 c 128,-1,57
 461 310 461 310 468 289 c 128,-1,58
 475 268 475 268 474 246 c 0,59,60
 473 212 473 212 451.5 183 c 128,-1,61
 430 154 430 154 397.5 133 c 128,-1,62
 365 112 365 112 326.5 100 c 128,-1,63
 288 88 288 88 253 88 c 0,64,65
 243 88 243 88 223 89 c 128,-1,66
 203 90 203 90 182 93.5 c 128,-1,67
 161 97 161 97 143.5 104 c 128,-1,68
 126 111 126 111 120 122 c 1,48,-1
183 520 m 0,69,70
 184 548 184 548 204.5 578.5 c 128,-1,71
 225 609 225 609 254.5 635 c 128,-1,72
 284 661 284 661 318.5 678 c 128,-1,73
 353 695 353 695 383 695 c 0,74,75
 431 695 431 695 449 681 c 128,-1,76
 467 667 467 667 464 625 c 0,77,78
 462 578 462 578 444.5 544.5 c 128,-1,79
 427 511 427 511 397.5 490 c 128,-1,80
 368 469 368 469 327.5 459.5 c 128,-1,81
 287 450 287 450 239 450 c 0,82,83
 226 450 226 450 215.5 457 c 128,-1,84
 205 464 205 464 198 474.5 c 128,-1,85
 191 485 191 485 187 497.5 c 128,-1,86
 183 510 183 510 183 520 c 0,69,70
EndSplineSet
Validated: 41
EndChar

StartChar: nine
Encoding: 57 57 34
Width: 564
Flags: W
LayerCount: 2
Fore
SplineSet
279 299 m 2,0,-1
 283 299 l 2,1,2
 285 298 285 298 287.5 296.5 c 128,-1,3
 290 295 290 295 290 294 c 2,4,-1
 277 21 l 2,5,6
 276 6 276 6 287.5 3 c 128,-1,7
 299 0 299 0 308 0 c 0,8,9
 325 0 325 0 336 7 c 128,-1,10
 347 14 347 14 354 24.5 c 128,-1,11
 361 35 361 35 364.5 48.5 c 128,-1,12
 368 62 368 62 370 75 c 2,13,-1
 391 183 l 2,14,15
 417 306 417 306 460.5 425.5 c 128,-1,16
 504 545 504 545 552 660 c 1,17,-1
 552 672 l 2,18,19
 553 702 553 702 537.5 722.5 c 128,-1,20
 522 743 522 743 497 755.5 c 128,-1,21
 472 768 472 768 442 773.5 c 128,-1,22
 412 779 412 779 385 779 c 0,23,24
 318 779 318 779 252.5 756 c 128,-1,25
 187 733 187 733 134.5 693 c 128,-1,26
 82 653 82 653 48 598.5 c 128,-1,27
 14 544 14 544 10 481 c 0,28,29
 8 444 8 444 13.5 409 c 128,-1,30
 19 374 19 374 36 346.5 c 128,-1,31
 53 319 53 319 83 302.5 c 128,-1,32
 113 286 113 286 160 286 c 0,33,34
 190 286 190 286 219 292.5 c 128,-1,35
 248 299 248 299 279 299 c 2,0,-1
110 481 m 0,36,37
 111 522 111 522 136.5 560.5 c 128,-1,38
 162 599 162 599 201 629 c 128,-1,39
 240 659 240 659 286.5 677 c 128,-1,40
 333 695 333 695 377 695 c 0,41,42
 394 695 394 695 407.5 692.5 c 128,-1,43
 421 690 421 690 432 682 c 1,44,-1
 432 666 l 2,45,46
 430 651 430 651 424 635.5 c 128,-1,47
 418 620 418 620 410 605 c 128,-1,48
 402 590 402 590 393.5 575 c 128,-1,49
 385 560 385 560 380 545 c 0,50,51
 366 513 366 513 352 482 c 128,-1,52
 338 451 338 451 318 427 c 128,-1,53
 298 403 298 403 268.5 388 c 128,-1,54
 239 373 239 373 194 373 c 0,55,56
 172 373 172 373 155.5 383.5 c 128,-1,57
 139 394 139 394 128.5 410 c 128,-1,58
 118 426 118 426 113.5 445 c 128,-1,59
 109 464 109 464 110 481 c 0,36,37
EndSplineSet
Validated: 41
EndChar

StartChar: colon
Encoding: 58 58 35
Width: 179
Flags: W
LayerCount: 2
Fore
SplineSet
29 412 m 0,0,1
 27 392 27 392 37 373.5 c 128,-1,2
 47 355 47 355 73 355 c 0,3,4
 103 355 103 355 125.5 373 c 128,-1,5
 148 391 148 391 166 409 c 0,6,7
 166 412 166 412 167.5 419.5 c 128,-1,8
 169 427 169 427 169 430 c 0,9,10
 170 453 170 453 155.5 471.5 c 128,-1,11
 141 490 141 490 110 490 c 0,12,13
 93 490 93 490 78.5 482.5 c 128,-1,14
 64 475 64 475 53 464 c 128,-1,15
 42 453 42 453 35.5 439 c 128,-1,16
 29 425 29 425 29 412 c 0,0,1
12 75 m 0,17,18
 9 55 9 55 13.5 41 c 128,-1,19
 18 27 18 27 44 27 c 0,20,21
 60 27 60 27 78.5 33 c 128,-1,22
 97 39 97 39 113 49 c 128,-1,23
 129 59 129 59 139.5 73 c 128,-1,24
 150 87 150 87 152 104 c 0,25,26
 152 114 152 114 145 123.5 c 128,-1,27
 138 133 138 133 126.5 140.5 c 128,-1,28
 115 148 115 148 102 152.5 c 128,-1,29
 89 157 89 157 77 157 c 0,30,31
 59 157 59 157 46.5 149 c 128,-1,32
 34 141 34 141 26.5 129 c 128,-1,33
 19 117 19 117 15.5 102.5 c 128,-1,34
 12 88 12 88 12 75 c 0,17,18
EndSplineSet
Validated: 41
EndChar

StartChar: semicolon
Encoding: 59 59 36
Width: 235
Flags: W
LayerCount: 2
Fore
SplineSet
5 -81 m 0,0,1
 4 -98 4 -98 14 -102.5 c 128,-1,2
 24 -107 24 -107 39 -107 c 0,3,4
 76 -107 76 -107 104.5 -90 c 128,-1,5
 133 -73 133 -73 152.5 -46.5 c 128,-1,6
 172 -20 172 -20 182.5 11 c 128,-1,7
 193 42 193 42 195 71 c 2,8,-1
 195 104 l 1,9,-1
 196 112 l 1,10,11
 191 126 191 126 185.5 130 c 128,-1,12
 180 134 180 134 164 134 c 0,13,14
 137 134 137 134 123 119 c 128,-1,15
 109 104 109 104 101 83.5 c 128,-1,16
 93 63 93 63 87 41 c 128,-1,17
 81 19 81 19 69 5 c 0,18,19
 61 -6 61 -6 50.5 -16 c 128,-1,20
 40 -26 40 -26 29.5 -36.5 c 128,-1,21
 19 -47 19 -47 12 -58 c 128,-1,22
 5 -69 5 -69 5 -81 c 0,0,1
104 399 m 0,23,24
 101 376 101 376 107.5 360 c 128,-1,25
 114 344 114 344 143 344 c 0,26,27
 159 344 159 344 174 349 c 128,-1,28
 189 354 189 354 201 363 c 128,-1,29
 213 372 213 372 220 384.5 c 128,-1,30
 227 397 227 397 227 412 c 0,31,32
 229 438 229 438 212.5 457 c 128,-1,33
 196 476 196 476 164 476 c 0,34,35
 146 476 146 476 134.5 468.5 c 128,-1,36
 123 461 123 461 116.5 449.5 c 128,-1,37
 110 438 110 438 107 424.5 c 128,-1,38
 104 411 104 411 104 399 c 0,23,24
EndSplineSet
Validated: 41
EndChar

StartChar: less
Encoding: 60 60 37
Width: 403
Flags: W
LayerCount: 2
Fore
SplineSet
247 5 m 0,0,1
 252 0 252 0 259 0 c 2,2,-1
 273 0 l 2,3,4
 296 0 296 0 306.5 11 c 128,-1,5
 317 22 317 22 318 40 c 0,6,7
 321 84 321 84 302 128.5 c 128,-1,8
 283 173 283 173 255 215 c 128,-1,9
 227 257 227 257 194.5 294.5 c 128,-1,10
 162 332 162 332 138 363 c 1,11,-1
 138 374 l 2,12,13
 139 396 139 396 158 424 c 128,-1,14
 177 452 177 452 204.5 482.5 c 128,-1,15
 232 513 232 513 264.5 544.5 c 128,-1,16
 297 576 297 576 324.5 606 c 128,-1,17
 352 636 352 636 371 662.5 c 128,-1,18
 390 689 390 689 391 710 c 0,19,20
 393 718 393 718 391.5 725 c 128,-1,21
 390 732 390 732 376 737 c 1,22,-1
 350 737 l 2,23,24
 334 737 334 737 315 734 c 128,-1,25
 296 731 296 731 285 716 c 2,26,-1
 26 409 l 2,27,28
 15 398 15 398 11.5 391 c 128,-1,29
 8 384 8 384 8 373 c 2,30,-1
 8 360 l 2,31,32
 5 329 5 329 22 302 c 128,-1,33
 39 275 39 275 64.5 250 c 128,-1,34
 90 225 90 225 118 202 c 128,-1,35
 146 179 146 179 165 157 c 0,36,37
 191 123 191 123 211 82 c 128,-1,38
 231 41 231 41 247 5 c 0,0,1
EndSplineSet
Validated: 41
EndChar

StartChar: equal
Encoding: 61 61 38
Width: 376
Flags: W
LayerCount: 2
Fore
SplineSet
10 426 m 0,0,1
 9 406 9 406 24.5 396 c 128,-1,2
 40 386 40 386 60 386 c 0,3,4
 78 386 78 386 90.5 387.5 c 128,-1,5
 103 389 103 389 115.5 392 c 128,-1,6
 128 395 128 395 144 399 c 128,-1,7
 160 403 160 403 186 408 c 0,8,9
 196 410 196 410 212.5 411 c 128,-1,10
 229 412 229 412 248.5 413.5 c 128,-1,11
 268 415 268 415 288 418.5 c 128,-1,12
 308 422 308 422 324.5 428.5 c 128,-1,13
 341 435 341 435 352 446 c 128,-1,14
 363 457 363 457 364 474 c 0,15,16
 364 487 364 487 362.5 494.5 c 128,-1,17
 361 502 361 502 342 510 c 1,18,-1
 333 510 l 2,19,20
 326 510 326 510 318 510.5 c 128,-1,21
 310 511 310 511 303 511 c 2,22,-1
 291 511 l 2,23,24
 274 511 274 511 247.5 509.5 c 128,-1,25
 221 508 221 508 190 504 c 128,-1,26
 159 500 159 500 127.5 494 c 128,-1,27
 96 488 96 488 70 478.5 c 128,-1,28
 44 469 44 469 27.5 456 c 128,-1,29
 11 443 11 443 10 426 c 0,0,1
17 244 m 0,30,31
 14 218 14 218 27.5 214.5 c 128,-1,32
 41 211 41 211 68 211 c 2,33,-1
 108 211 l 2,34,35
 140 211 140 211 182 214 c 128,-1,36
 224 217 224 217 262 226.5 c 128,-1,37
 300 236 300 236 326.5 252.5 c 128,-1,38
 353 269 353 269 355 296 c 0,39,40
 355 319 355 319 345.5 326.5 c 128,-1,41
 336 334 336 334 312 334 c 0,42,43
 295 334 295 334 266.5 331.5 c 128,-1,44
 238 329 238 329 205.5 323.5 c 128,-1,45
 173 318 173 318 139 310.5 c 128,-1,46
 105 303 105 303 78 293 c 128,-1,47
 51 283 51 283 34 270.5 c 128,-1,48
 17 258 17 258 17 244 c 0,30,31
EndSplineSet
Validated: 41
EndChar

StartChar: greater
Encoding: 62 62 39
Width: 426
Flags: W
LayerCount: 2
Fore
SplineSet
12 44 m 0,0,1
 10 21 10 21 24 10.5 c 128,-1,2
 38 0 38 0 61 0 c 0,3,4
 76 0 76 0 84.5 1 c 128,-1,5
 93 2 93 2 101 21 c 0,6,7
 143 133 143 133 222.5 225 c 128,-1,8
 302 317 302 317 403 395 c 0,9,10
 415 408 415 408 417.5 419.5 c 128,-1,11
 420 431 420 431 421 447 c 0,12,13
 422 469 422 469 414 488.5 c 128,-1,14
 406 508 406 508 392 525 c 128,-1,15
 378 542 378 542 361 557 c 128,-1,16
 344 572 344 572 329 586 c 2,17,-1
 134 772 l 1,18,-1
 104 784 l 1,19,-1
 101 784 l 2,20,21
 83 784 83 784 69.5 774.5 c 128,-1,22
 56 765 56 765 55 746 c 0,23,24
 55 733 55 733 60.5 719.5 c 128,-1,25
 66 706 66 706 78 695 c 0,26,27
 87 687 87 687 108.5 665.5 c 128,-1,28
 130 644 130 644 153.5 620 c 128,-1,29
 177 596 177 596 198.5 574 c 128,-1,30
 220 552 220 552 229 545 c 0,31,32
 237 537 237 537 249 526 c 128,-1,33
 261 515 261 515 272.5 502 c 128,-1,34
 284 489 284 489 292 474 c 128,-1,35
 300 459 300 459 300 443 c 0,36,37
 300 440 300 440 299 435 c 128,-1,38
 298 430 298 430 298 430 c 1,39,40
 290 422 290 422 269 401.5 c 128,-1,41
 248 381 248 381 225 358.5 c 128,-1,42
 202 336 202 336 182 315.5 c 128,-1,43
 162 295 162 295 155 286 c 0,44,45
 133 265 133 265 108.5 235.5 c 128,-1,46
 84 206 84 206 63 173 c 128,-1,47
 42 140 42 140 27.5 106.5 c 128,-1,48
 13 73 13 73 12 44 c 0,0,1
EndSplineSet
Validated: 41
EndChar

StartChar: question
Encoding: 63 63 40
Width: 564
Flags: W
LayerCount: 2
Fore
SplineSet
434 658 m 0,0,1
 431 624 431 624 410.5 594.5 c 128,-1,2
 390 565 390 565 360 539 c 128,-1,3
 330 513 330 513 295.5 490.5 c 128,-1,4
 261 468 261 468 231 448.5 c 128,-1,5
 201 429 201 429 181 412.5 c 128,-1,6
 161 396 161 396 160 382 c 2,7,-1
 156 273 l 2,8,9
 156 265 156 265 159 260.5 c 128,-1,10
 162 256 162 256 167 254 c 128,-1,11
 172 252 172 252 179 251.5 c 128,-1,12
 186 251 186 251 192 251 c 0,13,14
 214 251 214 251 225 256.5 c 128,-1,15
 236 262 236 262 241 271.5 c 128,-1,16
 246 281 246 281 248.5 293.5 c 128,-1,17
 251 306 251 306 256 320.5 c 128,-1,18
 261 335 261 335 271.5 351 c 128,-1,19
 282 367 282 367 304 382 c 0,20,21
 346 413 346 413 389.5 444 c 128,-1,22
 433 475 433 475 469.5 510.5 c 128,-1,23
 506 546 506 546 530 587.5 c 128,-1,24
 554 629 554 629 556 682 c 0,25,26
 557 717 557 717 545 743 c 128,-1,27
 533 769 533 769 511 786 c 128,-1,28
 489 803 489 803 458.5 811 c 128,-1,29
 428 819 428 819 393 819 c 0,30,31
 372 819 372 819 335.5 813 c 128,-1,32
 299 807 299 807 256.5 796 c 128,-1,33
 214 785 214 785 170 769 c 128,-1,34
 126 753 126 753 90 733.5 c 128,-1,35
 54 714 54 714 30.5 691 c 128,-1,36
 7 668 7 668 6 643 c 0,37,38
 5 625 5 625 8.5 614.5 c 128,-1,39
 12 604 12 604 29 593 c 0,40,41
 33 593 33 593 43 592 c 128,-1,42
 53 591 53 591 57 591 c 0,43,44
 81 591 81 591 102.5 600 c 128,-1,45
 124 609 124 609 145.5 622 c 128,-1,46
 167 635 167 635 189 651 c 128,-1,47
 211 667 211 667 235.5 680 c 128,-1,48
 260 693 260 693 288.5 702 c 128,-1,49
 317 711 317 711 351 711 c 0,50,51
 354 711 354 711 360.5 710.5 c 128,-1,52
 367 710 367 710 374 710 c 2,53,-1
 396 710 l 1,54,55
 417 703 417 703 425.5 689.5 c 128,-1,56
 434 676 434 676 434 658 c 0,0,1
127 53 m 0,57,58
 124 27 124 27 140 13.5 c 128,-1,59
 156 0 156 0 182 0 c 0,60,61
 214 0 214 0 239 17.5 c 128,-1,62
 264 35 264 35 265 64 c 0,63,64
 265 75 265 75 259 85.5 c 128,-1,65
 253 96 253 96 244 104 c 128,-1,66
 235 112 235 112 223.5 117 c 128,-1,67
 212 122 212 122 200 122 c 0,68,69
 169 122 169 122 149 100.5 c 128,-1,70
 129 79 129 79 127 53 c 0,57,58
EndSplineSet
Validated: 41
EndChar

StartChar: at
Encoding: 64 64 41
Width: 724
Flags: W
LayerCount: 2
Fore
SplineSet
17 299 m 0,0,1
 14 242 14 242 29.5 188 c 128,-1,2
 45 134 45 134 79 92.5 c 128,-1,3
 113 51 113 51 165.5 25.5 c 128,-1,4
 218 0 218 0 290 0 c 0,5,6
 314 0 314 0 345.5 3 c 128,-1,7
 377 6 377 6 405.5 16 c 128,-1,8
 434 26 434 26 455 44 c 128,-1,9
 476 62 476 62 478 91 c 0,10,11
 480 111 480 111 466 121 c 128,-1,12
 452 131 452 131 432 131 c 0,13,14
 415 131 415 131 399.5 126 c 128,-1,15
 384 121 384 121 368.5 115.5 c 128,-1,16
 353 110 353 110 337.5 105 c 128,-1,17
 322 100 322 100 304 100 c 0,18,19
 249 100 249 100 213 118.5 c 128,-1,20
 177 137 177 137 156.5 167.5 c 128,-1,21
 136 198 136 198 129 238.5 c 128,-1,22
 122 279 122 279 125 324 c 0,23,24
 127 380 127 380 152.5 440 c 128,-1,25
 178 500 178 500 221.5 549.5 c 128,-1,26
 265 599 265 599 323.5 631 c 128,-1,27
 382 663 382 663 451 663 c 2,28,-1
 459 663 l 2,29,30
 467 663 467 663 477.5 661.5 c 128,-1,31
 488 660 488 660 491 660 c 0,32,33
 525 647 525 647 548.5 622 c 128,-1,34
 572 597 572 597 586 566.5 c 128,-1,35
 600 536 600 536 605.5 502.5 c 128,-1,36
 611 469 611 469 610 438 c 0,37,38
 610 426 610 426 607 401 c 128,-1,39
 604 376 604 376 596 350.5 c 128,-1,40
 588 325 588 325 574.5 305.5 c 128,-1,41
 561 286 561 286 541 286 c 0,42,43
 520 286 520 286 508.5 302.5 c 128,-1,44
 497 319 497 319 491.5 341.5 c 128,-1,45
 486 364 486 364 485 386 c 128,-1,46
 484 408 484 408 486 420 c 0,47,48
 487 438 487 438 493 454.5 c 128,-1,49
 499 471 499 471 505.5 487 c 128,-1,50
 512 503 512 503 517.5 519 c 128,-1,51
 523 535 523 535 525 552 c 0,52,53
 526 575 526 575 510 584.5 c 128,-1,54
 494 594 494 594 469 594 c 0,55,56
 414 594 414 594 366.5 567.5 c 128,-1,57
 319 541 319 541 284 500 c 128,-1,58
 249 459 249 459 228.5 410.5 c 128,-1,59
 208 362 208 362 207 318 c 0,60,61
 205 293 205 293 211 270 c 128,-1,62
 217 247 217 247 231.5 229.5 c 128,-1,63
 246 212 246 212 267 201.5 c 128,-1,64
 288 191 288 191 316 191 c 0,65,66
 335 191 335 191 352 196.5 c 128,-1,67
 369 202 369 202 385 208.5 c 128,-1,68
 401 215 401 215 416.5 220.5 c 128,-1,69
 432 226 432 226 450 226 c 0,70,71
 462 226 462 226 472 222.5 c 128,-1,72
 482 219 482 219 491.5 215 c 128,-1,73
 501 211 501 211 511 207.5 c 128,-1,74
 521 204 521 204 533 204 c 0,75,76
 579 204 579 204 611.5 229.5 c 128,-1,77
 644 255 644 255 665 292.5 c 128,-1,78
 686 330 686 330 696.5 372.5 c 128,-1,79
 707 415 707 415 708 448 c 0,80,81
 711 509 711 509 694.5 564.5 c 128,-1,82
 678 620 678 620 643 662 c 128,-1,83
 608 704 608 704 555 728.5 c 128,-1,84
 502 753 502 753 432 753 c 2,85,-1
 419 753 l 2,86,87
 411 753 411 753 399.5 752 c 128,-1,88
 388 751 388 751 380 751 c 2,89,-1
 368 751 l 1,90,91
 290 736 290 736 226 687 c 128,-1,92
 162 638 162 638 116.5 573 c 128,-1,93
 71 508 71 508 45 435.5 c 128,-1,94
 19 363 19 363 17 299 c 0,0,1
300 334 m 0,95,96
 300 347 300 347 308.5 372.5 c 128,-1,97
 317 398 317 398 330.5 423 c 128,-1,98
 344 448 344 448 360 466.5 c 128,-1,99
 376 485 376 485 391 485 c 2,100,-1
 413 485 l 1,101,102
 413 476 413 476 414 453.5 c 128,-1,103
 415 431 415 431 415 407 c 2,104,-1
 415 359 l 2,105,106
 415 348 415 348 415 340 c 0,107,108
 415 333 415 333 413 328 c 2,109,-1
 413 320 l 2,110,111
 410 297 410 297 390.5 287.5 c 128,-1,112
 371 278 371 278 351 278 c 0,113,114
 316 278 316 278 306.5 291.5 c 128,-1,115
 297 305 297 305 300 334 c 0,95,96
EndSplineSet
Validated: 41
EndChar

StartChar: A
Encoding: 65 65 42
Width: 526
Flags: W
AnchorPoint: "top" 333 827 basechar 0
LayerCount: 2
Fore
SplineSet
424 27 m 1,0,1
 428 16 428 16 436 8 c 128,-1,2
 444 0 444 0 460 0 c 0,3,4
 479 0 479 0 488.5 16 c 128,-1,5
 498 32 498 32 499 47 c 2,6,-1
 513 308 l 1,7,8
 506 329 506 329 502.5 371.5 c 128,-1,9
 499 414 499 414 495.5 465 c 128,-1,10
 492 516 492 516 487 569.5 c 128,-1,11
 482 623 482 623 471.5 666.5 c 128,-1,12
 461 710 461 710 444.5 738 c 128,-1,13
 428 766 428 766 402 766 c 0,14,15
 373 766 373 766 346 750 c 128,-1,16
 319 734 319 734 294 708.5 c 128,-1,17
 269 683 269 683 246.5 651 c 128,-1,18
 224 619 224 619 206 587 c 128,-1,19
 188 555 188 555 174 526 c 128,-1,20
 160 497 160 497 151 478 c 0,21,22
 146 466 146 466 132.5 433.5 c 128,-1,23
 119 401 119 401 104 365 c 128,-1,24
 89 329 89 329 75 296.5 c 128,-1,25
 61 264 61 264 56 251 c 1,26,27
 36 238 36 238 25 227.5 c 128,-1,28
 14 217 14 217 14 194 c 0,29,30
 14 180 14 180 13.5 148.5 c 128,-1,31
 13 117 13 117 16.5 85 c 128,-1,32
 20 53 20 53 30 29 c 128,-1,33
 40 5 40 5 61 5 c 0,34,35
 83 5 83 5 94 15 c 128,-1,36
 105 25 105 25 110.5 41 c 128,-1,37
 116 57 116 57 117.5 76 c 128,-1,38
 119 95 119 95 121.5 113.5 c 128,-1,39
 124 132 124 132 129.5 147 c 128,-1,40
 135 162 135 162 149 170 c 0,41,42
 168 181 168 181 191.5 188 c 128,-1,43
 215 195 215 195 240 198.5 c 128,-1,44
 265 202 265 202 289 203 c 128,-1,45
 313 204 313 204 334 204 c 2,46,-1
 387 204 l 1,47,48
 399 200 399 200 406 194.5 c 128,-1,49
 413 189 413 189 416 181 c 128,-1,50
 419 173 419 173 420 163.5 c 128,-1,51
 421 154 421 154 422 143 c 0,52,53
 422 136 422 136 423 120 c 128,-1,54
 424 104 424 104 424 86 c 2,55,-1
 424 27 l 1,0,1
354 586 m 1,56,57
 376 571 376 571 385.5 539.5 c 128,-1,58
 395 508 395 508 397.5 472 c 128,-1,59
 400 436 400 436 397.5 401 c 128,-1,60
 395 366 395 366 394 344 c 2,61,-1
 393 321 l 1,62,63
 387 311 387 311 360 304 c 128,-1,64
 333 297 333 297 301.5 293 c 128,-1,65
 270 289 270 289 240.5 287.5 c 128,-1,66
 211 286 211 286 200 286 c 1,67,68
 201 304 201 304 207.5 330 c 128,-1,69
 214 356 214 356 225.5 385.5 c 128,-1,70
 237 415 237 415 251.5 445.5 c 128,-1,71
 266 476 266 476 282.5 503 c 128,-1,72
 299 530 299 530 317.5 552 c 128,-1,73
 336 574 336 574 354 586 c 1,56,57
EndSplineSet
Validated: 41
EndChar

StartChar: B
Encoding: 66 66 43
Width: 545
Flags: W
LayerCount: 2
Fore
SplineSet
14 101 m 0,0,1
 12 79 12 79 26 60.5 c 128,-1,2
 40 42 40 42 61.5 28.5 c 128,-1,3
 83 15 83 15 109 7.5 c 128,-1,4
 135 0 135 0 159 0 c 0,5,6
 191 0 191 0 230 10 c 128,-1,7
 269 20 269 20 310 37.5 c 128,-1,8
 351 55 351 55 390 78.5 c 128,-1,9
 429 102 429 102 460 130 c 128,-1,10
 491 158 491 158 510.5 189 c 128,-1,11
 530 220 530 220 533 251 c 0,12,13
 534 278 534 278 523 297.5 c 128,-1,14
 512 317 512 317 494.5 332 c 128,-1,15
 477 347 477 347 456.5 357.5 c 128,-1,16
 436 368 436 368 418.5 377 c 128,-1,17
 401 386 401 386 390 394.5 c 128,-1,18
 379 403 379 403 380 413 c 0,19,20
 381 434 381 434 397 458 c 128,-1,21
 413 482 413 482 431.5 509 c 128,-1,22
 450 536 450 536 466 565 c 128,-1,23
 482 594 482 594 484 625 c 0,24,25
 485 659 485 659 468 681.5 c 128,-1,26
 451 704 451 704 424.5 718 c 128,-1,27
 398 732 398 732 365 738 c 128,-1,28
 332 744 332 744 302 744 c 0,29,30
 286 744 286 744 262.5 742.5 c 128,-1,31
 239 741 239 741 213 737 c 128,-1,32
 187 733 187 733 161 726.5 c 128,-1,33
 135 720 135 720 114.5 708.5 c 128,-1,34
 94 697 94 697 80.5 681 c 128,-1,35
 67 665 67 665 66 643 c 0,36,37
 65 629 65 629 66.5 621 c 128,-1,38
 68 613 68 613 79 602 c 1,39,40
 78 597 78 597 78 587 c 256,41,42
 78 577 78 577 78 563 c 0,43,44
 78 548 78 548 78 535 c 256,45,46
 78 522 78 522 77 510 c 2,47,-1
 75 487 l 2,48,49
 70 393 70 393 53.5 304.5 c 128,-1,50
 37 216 37 216 17 122 c 2,51,52
 17 122 17 122 15.5 114 c 128,-1,53
 14 106 14 106 14 101 c 0,0,1
123 116 m 1,54,-1
 123 143 l 2,55,56
 126 194 126 194 130 223.5 c 128,-1,57
 134 253 134 253 149.5 270.5 c 128,-1,58
 165 288 165 288 196.5 296.5 c 128,-1,59
 228 305 228 305 285 313 c 0,60,61
 286 313 286 313 295 314 c 128,-1,62
 304 315 304 315 309 315 c 0,63,64
 323 315 323 315 343.5 312.5 c 128,-1,65
 364 310 364 310 382.5 304 c 128,-1,66
 401 298 401 298 414.5 287 c 128,-1,67
 428 276 428 276 428 260 c 0,68,69
 425 231 425 231 397.5 201.5 c 128,-1,70
 370 172 370 172 332 148.5 c 128,-1,71
 294 125 294 125 253 110 c 128,-1,72
 212 95 212 95 183 95 c 0,73,74
 160 95 160 95 147 97.5 c 128,-1,75
 134 100 134 100 123 116 c 1,54,-1
305 642 m 2,76,-1
 313 642 l 2,77,78
 321 642 321 642 326 641.5 c 128,-1,79
 331 641 331 641 338 641 c 2,80,-1
 347 641 l 1,81,82
 366 634 366 634 368 625.5 c 128,-1,83
 370 617 370 617 369 604 c 0,84,85
 367 572 367 572 351.5 539.5 c 128,-1,86
 336 507 336 507 310.5 480 c 128,-1,87
 285 453 285 453 251.5 436 c 128,-1,88
 218 419 218 419 181 419 c 1,89,90
 182 439 182 439 182 459 c 256,91,92
 182 479 182 479 182 499 c 0,93,94
 182 529 182 529 186.5 555 c 128,-1,95
 191 581 191 581 204.5 600.5 c 128,-1,96
 218 620 218 620 242 631 c 128,-1,97
 266 642 266 642 305 642 c 2,76,-1
EndSplineSet
Validated: 41
EndChar

StartChar: C
Encoding: 67 67 44
Width: 549
Flags: W
LayerCount: 2
Fore
SplineSet
14 204 m 0,0,1
 9 106 9 106 65.5 53 c 128,-1,2
 122 0 122 0 231 0 c 0,3,4
 251 0 251 0 281 5.5 c 128,-1,5
 311 11 311 11 344.5 21 c 128,-1,6
 378 31 378 31 412 45 c 128,-1,7
 446 59 446 59 473.5 76.5 c 128,-1,8
 501 94 501 94 518.5 114.5 c 128,-1,9
 536 135 536 135 538 157 c 0,10,11
 539 172 539 172 530 182 c 128,-1,12
 521 192 521 192 506 192 c 0,13,14
 479 192 479 192 450.5 175.5 c 128,-1,15
 422 159 422 159 390.5 139.5 c 128,-1,16
 359 120 359 120 321.5 104 c 128,-1,17
 284 88 284 88 239 88 c 0,18,19
 201 88 201 88 179 100 c 128,-1,20
 157 112 157 112 145.5 132 c 128,-1,21
 134 152 134 152 131 178.5 c 128,-1,22
 128 205 128 205 130 235 c 0,23,24
 130 253 130 253 139 290 c 128,-1,25
 148 327 148 327 164.5 371.5 c 128,-1,26
 181 416 181 416 203.5 463 c 128,-1,27
 226 510 226 510 252.5 548.5 c 128,-1,28
 279 587 279 587 308.5 611.5 c 128,-1,29
 338 636 338 636 369 636 c 0,30,31
 378 636 378 636 384 634 c 128,-1,32
 390 632 390 632 394 620 c 1,33,-1
 393 594 l 2,34,35
 393 582 393 582 394 568.5 c 128,-1,36
 395 555 395 555 398.5 543.5 c 128,-1,37
 402 532 402 532 410 524.5 c 128,-1,38
 418 517 418 517 433 517 c 0,39,40
 454 517 454 517 468 527.5 c 128,-1,41
 482 538 482 538 491 553.5 c 128,-1,42
 500 569 500 569 503.5 587 c 128,-1,43
 507 605 507 605 507 620 c 0,44,45
 507 626 507 626 507 643 c 256,46,47
 507 660 507 660 504 678.5 c 128,-1,48
 501 697 501 697 492.5 712.5 c 128,-1,49
 484 728 484 728 467 731 c 0,50,51
 405 743 405 743 352.5 732 c 128,-1,52
 300 721 300 721 257 693 c 128,-1,53
 214 665 214 665 179.5 624 c 128,-1,54
 145 583 145 583 118.5 536 c 128,-1,55
 92 489 92 489 72.5 439.5 c 128,-1,56
 53 390 53 390 40.5 345 c 128,-1,57
 28 300 28 300 21.5 263 c 128,-1,58
 15 226 15 226 14 204 c 0,0,1
EndSplineSet
Validated: 41
EndChar

StartChar: D
Encoding: 68 68 45
Width: 552
Flags: W
LayerCount: 2
Fore
SplineSet
19 247 m 2,0,-1
 18 214 l 2,1,2
 17 203 17 203 17 193 c 0,3,4
 17 184 17 184 17 174 c 2,5,-1
 17 140 l 1,6,-1
 16 122 l 2,7,8
 14 81 14 81 17 57 c 128,-1,9
 20 33 20 33 32.5 20.5 c 128,-1,10
 45 8 45 8 70 4 c 128,-1,11
 95 0 95 0 138 0 c 0,12,13
 212 0 212 0 281.5 26.5 c 128,-1,14
 351 53 351 53 406 98.5 c 128,-1,15
 461 144 461 144 495.5 204.5 c 128,-1,16
 530 265 530 265 534 333 c 0,17,18
 538 403 538 403 520 474 c 128,-1,19
 502 545 502 545 461.5 602 c 128,-1,20
 421 659 421 659 358 695 c 128,-1,21
 295 731 295 731 209 731 c 2,22,-1
 146 731 l 1,23,24
 121 723 121 723 94.5 711 c 128,-1,25
 68 699 68 699 60 676 c 1,26,27
 58 621 58 621 53 568 c 128,-1,28
 48 515 48 515 41.5 461.5 c 128,-1,29
 35 408 35 408 29 355 c 128,-1,30
 23 302 23 302 19 247 c 2,0,-1
116 200 m 0,31,32
 118 250 118 250 122.5 296 c 128,-1,33
 127 342 127 342 133.5 387 c 128,-1,34
 140 432 140 432 148.5 479.5 c 128,-1,35
 157 527 157 527 169 580 c 1,36,37
 182 596 182 596 192.5 602 c 128,-1,38
 203 608 203 608 226 608 c 0,39,40
 276 608 276 608 313.5 582.5 c 128,-1,41
 351 557 351 557 376 519 c 128,-1,42
 401 481 401 481 413 436.5 c 128,-1,43
 425 392 425 392 424 354 c 0,44,45
 421 309 421 309 398.5 266 c 128,-1,46
 376 223 376 223 339.5 189 c 128,-1,47
 303 155 303 155 255.5 134.5 c 128,-1,48
 208 114 208 114 156 114 c 0,49,50
 151 114 151 114 140.5 115 c 128,-1,51
 130 116 130 116 129 116 c 2,52,-1
 113 130 l 2,53,54
 113 131 113 131 113.5 140 c 128,-1,55
 114 149 114 149 114 160 c 256,56,57
 114 171 114 171 115 182 c 128,-1,58
 116 193 116 193 116 200 c 0,31,32
EndSplineSet
Validated: 41
EndChar

StartChar: E
Encoding: 69 69 46
Width: 533
Flags: W
AnchorPoint: "top" 307 807 basechar 0
LayerCount: 2
Fore
SplineSet
14 152 m 0,0,1
 12 125 12 125 25.5 97.5 c 128,-1,2
 39 70 39 70 62.5 48.5 c 128,-1,3
 86 27 86 27 115 13.5 c 128,-1,4
 144 0 144 0 172 0 c 0,5,6
 194 0 194 0 226.5 6.5 c 128,-1,7
 259 13 259 13 294 24.5 c 128,-1,8
 329 36 329 36 364.5 52.5 c 128,-1,9
 400 69 400 69 428.5 89 c 128,-1,10
 457 109 457 109 475.5 132 c 128,-1,11
 494 155 494 155 495 179 c 0,12,13
 495 218 495 218 452 218 c 0,14,15
 420 218 420 218 394 199.5 c 128,-1,16
 368 181 368 181 342.5 159 c 128,-1,17
 317 137 317 137 290 118.5 c 128,-1,18
 263 100 263 100 229 100 c 0,19,20
 205 100 205 100 186 110.5 c 128,-1,21
 167 121 167 121 154 137.5 c 128,-1,22
 141 154 141 154 134.5 175 c 128,-1,23
 128 196 128 196 130 216 c 0,24,25
 132 269 132 269 162 300.5 c 128,-1,26
 192 332 192 332 235.5 351 c 128,-1,27
 279 370 279 370 329 380 c 128,-1,28
 379 390 379 390 422 399 c 128,-1,29
 465 408 465 408 494 421 c 128,-1,30
 523 434 523 434 524 459 c 0,31,32
 524 470 524 470 518.5 479.5 c 128,-1,33
 513 489 513 489 504 496 c 128,-1,34
 495 503 495 503 483.5 507 c 128,-1,35
 472 511 472 511 460 511 c 0,36,37
 430 511 430 511 401.5 504.5 c 128,-1,38
 373 498 373 498 345 490 c 128,-1,39
 317 482 317 482 289 475.5 c 128,-1,40
 261 469 261 469 233 469 c 0,41,42
 228 469 228 469 217.5 469.5 c 128,-1,43
 207 470 207 470 205 478 c 2,44,-1
 205 485 l 2,45,46
 207 492 207 492 206 496 c 128,-1,47
 205 500 205 500 205 507 c 2,48,-1
 207 516 l 1,49,50
 209 570 209 570 234 597 c 128,-1,51
 259 624 259 624 298.5 634.5 c 128,-1,52
 338 645 338 645 387 644 c 128,-1,53
 436 643 436 643 487 641 c 1,54,55
 518 650 518 650 520 677 c 0,56,57
 521 706 521 706 502.5 719 c 128,-1,58
 484 732 484 732 456.5 736 c 128,-1,59
 429 740 429 740 399.5 738.5 c 128,-1,60
 370 737 370 737 351 737 c 0,61,62
 333 737 333 737 306.5 738 c 128,-1,63
 280 739 280 739 250 738 c 128,-1,64
 220 737 220 737 190 733.5 c 128,-1,65
 160 730 160 730 135.5 721.5 c 128,-1,66
 111 713 111 713 95 698 c 128,-1,67
 79 683 79 683 77 660 c 0,68,69
 76 643 76 643 78 627.5 c 128,-1,70
 80 612 80 612 82.5 596.5 c 128,-1,71
 85 581 85 581 86.5 565 c 128,-1,72
 88 549 88 549 87 532 c 0,73,74
 85 482 85 482 73.5 433 c 128,-1,75
 62 384 62 384 49.5 337 c 128,-1,76
 37 290 37 290 26 243.5 c 128,-1,77
 15 197 15 197 14 152 c 0,0,1
EndSplineSet
Validated: 41
EndChar

StartChar: F
Encoding: 70 70 47
Width: 595
Flags: W
LayerCount: 2
Fore
SplineSet
14 139 m 0,0,1
 12 121 12 121 13.5 97 c 128,-1,2
 15 73 15 73 21.5 51.5 c 128,-1,3
 28 30 28 30 42.5 15 c 128,-1,4
 57 0 57 0 81 0 c 0,5,6
 106 0 106 0 110 21 c 0,7,8
 110 27 110 27 112 46.5 c 128,-1,9
 114 66 114 66 117 88 c 128,-1,10
 120 110 120 110 122.5 130 c 128,-1,11
 125 150 125 150 126 157 c 2,12,-1
 126 162 l 2,13,14
 126 165 126 165 126.5 165.5 c 128,-1,15
 127 166 127 166 127 169 c 2,16,-1
 127 170 l 2,17,18
 130 186 130 186 133 209 c 128,-1,19
 136 232 136 232 141.5 255 c 128,-1,20
 147 278 147 278 154.5 298 c 128,-1,21
 162 318 162 318 173 329 c 0,22,23
 187 340 187 340 206 342 c 128,-1,24
 225 344 225 344 251 344 c 2,25,-1
 497 344 l 2,26,27
 504 344 504 344 511.5 350 c 128,-1,28
 519 356 519 356 524.5 364 c 128,-1,29
 530 372 530 372 533.5 380.5 c 128,-1,30
 537 389 537 389 537 394 c 0,31,32
 537 406 537 406 531 415 c 128,-1,33
 525 424 525 424 515 429.5 c 128,-1,34
 505 435 505 435 492.5 438 c 128,-1,35
 480 441 480 441 468 441 c 0,36,37
 449 441 449 441 432 440 c 128,-1,38
 415 439 415 439 396 438 c 0,39,40
 392 438 392 438 388.5 437.5 c 128,-1,41
 385 437 385 437 380 437 c 0,42,43
 366 435 366 435 351.5 434 c 128,-1,44
 337 433 337 433 321 433 c 2,45,-1
 289 433 l 2,46,47
 275 433 275 433 261 434 c 128,-1,48
 247 435 247 435 234.5 438 c 128,-1,49
 222 441 222 441 212.5 446.5 c 128,-1,50
 203 452 203 452 199 460 c 1,51,-1
 199 461 l 1,52,-1
 198 467 l 1,53,-1
 199 490 l 2,54,55
 200 493 200 493 199.5 494.5 c 128,-1,56
 199 496 199 496 199 499 c 2,57,-1
 200 516 l 2,58,59
 203 567 203 567 213 606 c 128,-1,60
 223 645 223 645 238 653 c 0,61,62
 262 664 262 664 304 664 c 2,63,-1
 326 664 l 2,64,65
 332 664 332 664 338 664 c 256,66,67
 344 664 344 664 351 663 c 0,68,69
 356 662 356 662 361.5 661 c 128,-1,70
 367 660 367 660 372 660 c 2,71,-1
 391 660 l 2,72,73
 410 660 410 660 425 659 c 128,-1,74
 440 658 440 658 456 655 c 0,75,76
 458 654 458 654 461 654 c 0,77,78
 467 654 467 654 468 653 c 0,79,80
 487 650 487 650 506 648 c 128,-1,81
 525 646 525 646 543 646 c 0,82,83
 566 646 566 646 577.5 657.5 c 128,-1,84
 589 669 589 669 590 688 c 0,85,86
 591 713 591 713 572.5 726.5 c 128,-1,87
 554 740 554 740 526 747 c 128,-1,88
 498 754 498 754 467.5 755.5 c 128,-1,89
 437 757 437 757 416 757 c 2,90,-1
 402 757 l 2,91,92
 388 755 388 755 356 753.5 c 128,-1,93
 324 752 324 752 286.5 750 c 128,-1,94
 249 748 249 748 211.5 746.5 c 128,-1,95
 174 745 174 745 149 744 c 0,96,97
 144 742 144 742 141 742 c 256,98,99
 138 742 138 742 135 742 c 2,100,-1
 126 742 l 1,101,102
 69 726 69 726 66 676 c 0,103,104
 63 656 63 656 65 641.5 c 128,-1,105
 67 627 67 627 78 604 c 1,106,-1
 78 538 l 1,107,-1
 77 523 l 2,108,109
 74 475 74 475 66 429.5 c 128,-1,110
 58 384 58 384 47 338 c 1,111,-1
 47 337 l 2,112,113
 47 335 47 335 46 332.5 c 128,-1,114
 45 330 45 330 44 326 c 0,115,116
 33 278 33 278 25 231.5 c 128,-1,117
 17 185 17 185 14 139 c 0,0,1
EndSplineSet
Validated: 41
EndChar

StartChar: G
Encoding: 71 71 48
Width: 597
Flags: W
LayerCount: 2
Fore
SplineSet
13 196 m 0,0,1
 10 149 10 149 28 112.5 c 128,-1,2
 46 76 46 76 78.5 51 c 128,-1,3
 111 26 111 26 153.5 13 c 128,-1,4
 196 0 196 0 243 0 c 0,5,6
 295 0 295 0 354 14.5 c 128,-1,7
 413 29 413 29 463.5 58 c 128,-1,8
 514 87 514 87 548 129 c 128,-1,9
 582 171 582 171 585 227 c 0,10,11
 586 246 586 246 583.5 276 c 128,-1,12
 581 306 581 306 571 334 c 128,-1,13
 561 362 561 362 542 382.5 c 128,-1,14
 523 403 523 403 491 403 c 2,15,-1
 480 403 l 2,16,17
 478 403 478 403 467.5 399.5 c 128,-1,18
 457 396 457 396 445 392.5 c 128,-1,19
 433 389 433 389 422.5 385.5 c 128,-1,20
 412 382 412 382 411 382 c 0,21,22
 403 381 403 381 389.5 380.5 c 128,-1,23
 376 380 376 380 361 380 c 256,24,25
 346 380 346 380 331 380.5 c 128,-1,26
 316 381 316 381 312 382 c 0,27,28
 286 375 286 375 275 356.5 c 128,-1,29
 264 338 264 338 263 318 c 0,30,31
 260 296 260 296 277.5 280.5 c 128,-1,32
 295 265 295 265 318 265 c 0,33,34
 335 265 335 265 351 269.5 c 128,-1,35
 367 274 367 274 382 279.5 c 128,-1,36
 397 285 397 285 412 289.5 c 128,-1,37
 427 294 427 294 443 294 c 0,38,39
 448 294 448 294 456 293.5 c 128,-1,40
 464 293 464 293 465 286 c 2,41,-1
 465 278 l 2,42,43
 464 271 464 271 464.5 264.5 c 128,-1,44
 465 258 465 258 464 251 c 2,45,-1
 464 242 l 1,46,47
 460 167 460 167 406.5 127.5 c 128,-1,48
 353 88 353 88 266 88 c 0,49,50
 215 88 215 88 176.5 112.5 c 128,-1,51
 138 137 138 137 127 183 c 1,52,-1
 127 227 l 1,53,-1
 129 239 l 2,54,55
 130 261 130 261 141 299 c 128,-1,56
 152 337 152 337 170 381.5 c 128,-1,57
 188 426 188 426 212.5 471 c 128,-1,58
 237 516 237 516 265.5 553 c 128,-1,59
 294 590 294 590 325.5 613 c 128,-1,60
 357 636 357 636 390 636 c 0,61,62
 406 636 406 636 413.5 627.5 c 128,-1,63
 421 619 421 619 424 607 c 128,-1,64
 427 595 427 595 428.5 580 c 128,-1,65
 430 565 430 565 434 553 c 128,-1,66
 438 541 438 541 447.5 532.5 c 128,-1,67
 457 524 457 524 477 524 c 0,68,69
 494 524 494 524 505 530 c 128,-1,70
 516 536 516 536 522.5 546 c 128,-1,71
 529 556 529 556 532 568.5 c 128,-1,72
 535 581 535 581 537 594 c 0,73,74
 538 618 538 618 533 647.5 c 128,-1,75
 528 677 528 677 514.5 703 c 128,-1,76
 501 729 501 729 478.5 746.5 c 128,-1,77
 456 764 456 764 424 764 c 0,78,79
 393 764 393 764 369 748.5 c 128,-1,80
 345 733 345 733 322 716 c 0,81,82
 258 667 258 667 203 608 c 128,-1,83
 148 549 148 549 107 483 c 128,-1,84
 66 417 66 417 41.5 344.5 c 128,-1,85
 17 272 17 272 13 196 c 0,0,1
EndSplineSet
Validated: 41
EndChar

StartChar: H
Encoding: 72 72 49
Width: 541
Flags: W
LayerCount: 2
Fore
SplineSet
12 95 m 2,0,-1
 10 70 l 2,1,2
 11 58 11 58 14 46 c 128,-1,3
 17 34 17 34 23 23.5 c 128,-1,4
 29 13 29 13 39 6.5 c 128,-1,5
 49 0 49 0 65 0 c 0,6,7
 85 0 85 0 103 11.5 c 128,-1,8
 121 23 121 23 123 43 c 0,9,10
 123 52 123 52 125 75.5 c 128,-1,11
 127 99 127 99 130 125.5 c 128,-1,12
 133 152 133 152 135.5 175.5 c 128,-1,13
 138 199 138 199 140 209 c 0,14,15
 141 230 141 230 150 243.5 c 128,-1,16
 159 257 159 257 173 265 c 128,-1,17
 187 273 187 273 205 277.5 c 128,-1,18
 223 282 223 282 242 286 c 2,19,-1
 253 289 l 1,20,-1
 255 289 l 1,21,22
 266 293 266 293 278 298 c 1,23,-1
 287 298 l 2,24,25
 297 298 297 298 303.5 288.5 c 128,-1,26
 310 279 310 279 314 263 c 128,-1,27
 318 247 318 247 319.5 226 c 128,-1,28
 321 205 321 205 321 183 c 0,29,30
 322 155 322 155 324 126 c 128,-1,31
 326 97 326 97 332 73 c 128,-1,32
 338 49 338 49 349.5 34 c 128,-1,33
 361 19 361 19 382 19 c 0,34,35
 388 19 388 19 396.5 20.5 c 128,-1,36
 405 22 405 22 413 25 c 128,-1,37
 421 28 421 28 427 32.5 c 128,-1,38
 433 37 433 37 433 43 c 2,39,-1
 455 458 l 2,40,41
 456 496 456 496 468.5 530.5 c 128,-1,42
 481 565 481 565 494 599 c 0,43,44
 506 634 506 634 517.5 667.5 c 128,-1,45
 529 701 529 701 530 733 c 0,46,47
 532 756 532 756 520 770.5 c 128,-1,48
 508 785 508 785 484 785 c 0,49,50
 461 785 461 785 446 773 c 128,-1,51
 431 761 431 761 421 740 c 128,-1,52
 411 719 411 719 405 691 c 128,-1,53
 399 663 399 663 393 632 c 0,54,55
 385 588 385 588 374 543 c 128,-1,56
 363 498 363 498 340 461 c 128,-1,57
 317 424 317 424 278 400.5 c 128,-1,58
 239 377 239 377 175 377 c 0,59,60
 163 377 163 377 157 387 c 128,-1,61
 151 397 151 397 151 408 c 0,62,63
 154 446 154 446 161 482 c 128,-1,64
 168 518 168 518 179 552 c 0,65,66
 188 587 188 587 195.5 620 c 128,-1,67
 203 653 203 653 203 688 c 0,68,69
 204 700 204 700 202.5 712.5 c 128,-1,70
 201 725 201 725 195.5 735 c 128,-1,71
 190 745 190 745 180 751.5 c 128,-1,72
 170 758 170 758 155 758 c 0,73,74
 130 758 130 758 117.5 740 c 128,-1,75
 105 722 105 722 97 702 c 0,76,77
 63 572 63 572 43 448.5 c 128,-1,78
 23 325 23 325 16 192 c 2,79,-1
 12 114 l 2,80,81
 10 110 10 110 11 104.5 c 128,-1,82
 12 99 12 99 12 95 c 2,0,-1
EndSplineSet
Validated: 41
EndChar

StartChar: I
Encoding: 73 73 50
Width: 494
Flags: W
AnchorPoint: "top" 253 853 basechar 0
LayerCount: 2
Fore
SplineSet
22 49 m 0,0,1
 22 35 22 35 30 26 c 128,-1,2
 38 17 38 17 50 11 c 128,-1,3
 62 5 62 5 76.5 2.5 c 128,-1,4
 91 0 91 0 104 0 c 0,5,6
 114 0 114 0 143.5 3.5 c 128,-1,7
 173 7 173 7 211.5 12.5 c 128,-1,8
 250 18 250 18 291.5 26 c 128,-1,9
 333 34 333 34 368 42.5 c 128,-1,10
 403 51 403 51 426.5 60.5 c 128,-1,11
 450 70 450 70 451 78 c 0,12,13
 452 103 452 103 434.5 114.5 c 128,-1,14
 417 126 417 126 392 129.5 c 128,-1,15
 367 133 367 133 341.5 131.5 c 128,-1,16
 316 130 316 130 302 130 c 0,17,18
 294 133 294 133 292 137.5 c 128,-1,19
 290 142 290 142 287 149 c 2,20,-1
 290 181 l 1,21,-1
 290 226 l 2,22,23
 290 239 290 239 290.5 250.5 c 128,-1,24
 291 262 291 262 292 273 c 2,25,-1
 294 303 l 2,26,27
 299 398 299 398 305 493 c 128,-1,28
 311 588 311 588 331 682 c 0,29,30
 336 693 336 693 341.5 694 c 128,-1,31
 347 695 347 695 356 695 c 0,32,33
 379 695 379 695 398.5 691.5 c 128,-1,34
 418 688 418 688 441 688 c 0,35,36
 444 688 444 688 454 688.5 c 128,-1,37
 464 689 464 689 467 689 c 0,38,39
 481 694 481 694 482.5 702 c 128,-1,40
 484 710 484 710 485 719 c 0,41,42
 486 745 486 745 470 760.5 c 128,-1,43
 454 776 454 776 426 784 c 0,44,45
 423 784 423 784 416 784.5 c 128,-1,46
 409 785 409 785 400 785 c 0,47,48
 392 785 392 785 384 785.5 c 128,-1,49
 376 786 376 786 373 786 c 0,50,51
 368 786 368 786 360.5 785.5 c 128,-1,52
 353 785 353 785 342 785 c 0,53,54
 334 785 334 785 327.5 784.5 c 128,-1,55
 321 784 321 784 321 784 c 2,56,57
 316 784 316 784 299 781.5 c 128,-1,58
 282 779 282 779 263 775 c 128,-1,59
 244 771 244 771 227.5 767.5 c 128,-1,60
 211 764 211 764 205 763 c 0,61,62
 188 759 188 759 156 758.5 c 128,-1,63
 124 758 124 758 92 752.5 c 128,-1,64
 60 747 60 747 35.5 733.5 c 128,-1,65
 11 720 11 720 10 690 c 0,66,67
 10 678 10 678 16.5 668.5 c 128,-1,68
 23 659 23 659 33.5 653 c 128,-1,69
 44 647 44 647 56.5 643.5 c 128,-1,70
 69 640 69 640 81 640 c 0,71,72
 107 640 107 640 129.5 649 c 128,-1,73
 152 658 152 658 178 658 c 0,74,75
 181 658 181 658 186.5 657 c 128,-1,76
 192 656 192 656 194 655 c 2,77,-1
 199 641 l 1,78,-1
 173 116 l 2,79,80
 172 101 172 101 160.5 95 c 128,-1,81
 149 89 149 89 132.5 87.5 c 128,-1,82
 116 86 116 86 97.5 86.5 c 128,-1,83
 79 87 79 87 62.5 84.5 c 128,-1,84
 46 82 46 82 34.5 74.5 c 128,-1,85
 23 67 23 67 22 49 c 0,0,1
EndSplineSet
Validated: 41
EndChar

StartChar: J
Encoding: 74 74 51
Width: 536
Flags: W
LayerCount: 2
Fore
SplineSet
9 177 m 2,0,1
 7 127 7 127 20 93.5 c 128,-1,2
 33 60 33 60 61 39 c 128,-1,3
 89 18 89 18 130 9 c 128,-1,4
 171 0 171 0 225 0 c 2,5,-1
 282 0 l 1,6,7
 357 29 357 29 411.5 83 c 128,-1,8
 466 137 466 137 482 212 c 0,9,10
 483 226 483 226 486 255.5 c 128,-1,11
 489 285 489 285 492 322 c 128,-1,12
 495 359 495 359 499 400 c 128,-1,13
 503 441 503 441 506 477.5 c 128,-1,14
 509 514 509 514 512 543 c 128,-1,15
 515 572 515 572 516 586 c 2,16,-1
 517 599 l 2,17,18
 517 610 517 610 518.5 622 c 128,-1,19
 520 634 520 634 521 649 c 2,20,-1
 523 668 l 1,21,-1
 524 685 l 2,22,23
 525 691 525 691 525 697 c 256,24,25
 525 703 525 703 525 710 c 2,26,-1
 525 751 l 2,27,28
 522 766 522 766 509 775.5 c 128,-1,29
 496 785 496 785 477 785 c 256,30,31
 458 785 458 785 445.5 777.5 c 128,-1,32
 433 770 433 770 425 759 c 128,-1,33
 417 748 417 748 413 733.5 c 128,-1,34
 409 719 409 719 408 706 c 0,35,36
 407 668 407 668 406.5 631 c 128,-1,37
 406 594 406 594 406 556 c 0,38,39
 406 483 406 483 400 407 c 0,40,41
 399 385 399 385 397 353 c 128,-1,42
 395 321 395 321 389.5 285.5 c 128,-1,43
 384 250 384 250 373 215 c 128,-1,44
 362 180 362 180 343 151.5 c 128,-1,45
 324 123 324 123 295 105.5 c 128,-1,46
 266 88 266 88 225 88 c 0,47,48
 182 88 182 88 161.5 100 c 128,-1,49
 141 112 141 112 133 130.5 c 128,-1,50
 125 149 125 149 124.5 170 c 128,-1,51
 124 191 124 191 121 209.5 c 128,-1,52
 118 228 118 228 107.5 240 c 128,-1,53
 97 252 97 252 69 252 c 0,54,55
 49 252 49 252 37.5 245.5 c 128,-1,56
 26 239 26 239 12 226 c 1,57,-1
 12 216 l 2,58,59
 10 212 10 212 10 200 c 0,60,61
 10 190 10 190 9 186 c 2,62,-1
 9 177 l 2,0,1
EndSplineSet
Validated: 41
EndChar

StartChar: K
Encoding: 75 75 52
Width: 547
Flags: W
LayerCount: 2
Fore
SplineSet
13 110 m 2,0,-1
 12 99 l 2,1,2
 13 85 13 85 17 67.5 c 128,-1,3
 21 50 21 50 29 35 c 128,-1,4
 37 20 37 20 50 9.5 c 128,-1,5
 63 -1 63 -1 82 -1 c 0,6,7
 93 -1 93 -1 102.5 0.5 c 128,-1,8
 112 2 112 2 120 17 c 1,9,-1
 121 42 l 1,10,-1
 121 44 l 1,11,-1
 122 52 l 1,12,-1
 122 73 l 2,13,14
 122 78 122 78 122 83 c 0,15,16
 122 89 122 89 121 94 c 2,17,-1
 121 112 l 2,18,19
 120 119 120 119 120 126 c 0,20,21
 120 134 120 134 120 142 c 2,22,-1
 120 172 l 1,23,-1
 121 192 l 2,24,25
 121 201 121 201 122.5 210 c 128,-1,26
 124 219 124 219 128.5 226 c 128,-1,27
 133 233 133 233 142 237.5 c 128,-1,28
 151 242 151 242 165 242 c 0,29,30
 180 242 180 242 188 239 c 128,-1,31
 196 236 196 236 211 227 c 1,32,-1
 216 221 l 2,33,34
 217 221 217 221 217 219 c 0,35,36
 219 218 219 218 223.5 214 c 128,-1,37
 228 210 228 210 233 207 c 0,38,39
 256 185 256 185 283 161.5 c 128,-1,40
 310 138 310 138 341 118.5 c 128,-1,41
 372 99 372 99 406 86.5 c 128,-1,42
 440 74 440 74 477 74 c 0,43,44
 494 74 494 74 505 77.5 c 128,-1,45
 516 81 516 81 528 92 c 1,46,-1
 528 103 l 2,47,48
 528 106 528 106 528.5 107 c 128,-1,49
 529 108 529 108 529 109 c 2,50,-1
 530 117 l 2,51,52
 530 148 530 148 507 162.5 c 128,-1,53
 484 177 484 177 450 191 c 0,54,55
 448 191 448 191 448 192 c 1,56,-1
 447 192 l 1,57,58
 430 199 430 199 415.5 206 c 128,-1,59
 401 213 401 213 390 224 c 2,60,-1
 285 315 l 2,61,62
 280 320 280 320 275.5 322.5 c 128,-1,63
 271 325 271 325 266 328 c 0,64,65
 255 336 255 336 246.5 344.5 c 128,-1,66
 238 353 238 353 238 372 c 2,67,-1
 239 378 l 1,68,-1
 239 380 l 1,69,-1
 240 380 l 1,70,-1
 240 383 l 1,71,-1
 242 383 l 1,72,73
 255 398 255 398 270.5 413 c 128,-1,74
 286 428 286 428 303 445 c 2,75,-1
 320 461 l 2,76,77
 357 495 357 495 395 531.5 c 128,-1,78
 433 568 433 568 464.5 605.5 c 128,-1,79
 496 643 496 643 517 681 c 128,-1,80
 538 719 538 719 541 755 c 0,81,82
 541 768 541 768 533 783.5 c 128,-1,83
 525 799 525 799 508 799 c 0,84,85
 487 799 487 799 467 786.5 c 128,-1,86
 447 774 447 774 428 754.5 c 128,-1,87
 409 735 409 735 391 710 c 128,-1,88
 373 685 373 685 356 660 c 0,89,90
 355 657 355 657 353.5 656 c 128,-1,91
 352 655 352 655 352 654 c 0,92,93
 341 635 341 635 328.5 620 c 128,-1,94
 316 605 316 605 298 586 c 0,95,96
 290 578 290 578 275.5 566.5 c 128,-1,97
 261 555 261 555 247.5 543.5 c 128,-1,98
 234 532 234 532 223.5 524 c 128,-1,99
 213 516 213 516 213 516 c 1,100,-1
 191 516 l 1,101,-1
 183 520 l 1,102,-1
 194 715 l 2,103,104
 195 739 195 739 174 751.5 c 128,-1,105
 153 764 153 764 130 764 c 256,106,107
 107 764 107 764 98 750 c 128,-1,108
 89 736 89 736 82 718 c 0,109,110
 79 701 79 701 74 666.5 c 128,-1,111
 69 632 69 632 62.5 589.5 c 128,-1,112
 56 547 56 547 49 500.5 c 128,-1,113
 42 454 42 454 36.5 411.5 c 128,-1,114
 31 369 31 369 26.5 334.5 c 128,-1,115
 22 300 22 300 21 283 c 2,116,-1
 21 274 l 2,117,118
 18 263 18 263 17 247 c 128,-1,119
 16 231 16 231 16 214 c 2,120,-1
 14 173 l 2,121,122
 13 161 13 161 12.5 146.5 c 128,-1,123
 12 132 12 132 12 121 c 0,124,125
 12 118 12 118 12.5 115.5 c 128,-1,126
 13 113 13 113 13 110 c 2,0,-1
266 331 m 1,127,-1
 266 329 l 1,128,-1
 269 329 l 2,129,130
 271 331 271 331 266 331 c 1,127,-1
218 218 m 1,131,132
 218 218 218 218 217 218 c 1,133,134
 217 218 217 218 217 219 c 1,135,-1
 218 218 l 1,131,132
EndSplineSet
Validated: 37
EndChar

StartChar: L
Encoding: 76 76 53
Width: 476
Flags: W
LayerCount: 2
Fore
SplineSet
16 162 m 2,0,1
 13 134 13 134 19.5 105.5 c 128,-1,2
 26 77 26 77 41.5 53.5 c 128,-1,3
 57 30 57 30 82.5 15 c 128,-1,4
 108 0 108 0 144 0 c 256,5,6
 180 0 180 0 220 15.5 c 128,-1,7
 260 31 260 31 290 47 c 0,8,9
 299 52 299 52 322 64.5 c 128,-1,10
 345 77 345 77 370 91.5 c 128,-1,11
 395 106 395 106 417 118.5 c 128,-1,12
 439 131 439 131 447 136 c 0,13,14
 462 144 462 144 467 159 c 128,-1,15
 472 174 472 174 473 188 c 0,16,17
 474 207 474 207 461.5 216.5 c 128,-1,18
 449 226 449 226 426 226 c 0,19,20
 395 226 395 226 362.5 206.5 c 128,-1,21
 330 187 330 187 295.5 163.5 c 128,-1,22
 261 140 261 140 225 120.5 c 128,-1,23
 189 101 189 101 152 101 c 0,24,25
 144 101 144 101 137 112 c 128,-1,26
 130 123 130 123 127 130 c 1,27,-1
 129 140 l 1,28,-1
 129 156 l 2,29,30
 129 161 129 161 129 165 c 256,31,32
 129 169 129 169 130 173 c 2,33,-1
 130 183 l 2,34,35
 132 240 132 240 141.5 296.5 c 128,-1,36
 151 353 151 353 161.5 409.5 c 128,-1,37
 172 466 172 466 181.5 522.5 c 128,-1,38
 191 579 191 579 194 636 c 2,39,-1
 194 668 l 2,40,41
 195 674 195 674 195 679 c 256,42,43
 195 684 195 684 195 689 c 2,44,-1
 195 703 l 2,45,46
 194 714 194 714 182 725.5 c 128,-1,47
 170 737 170 737 157 737 c 0,48,49
 133 737 133 737 119.5 720.5 c 128,-1,50
 106 704 106 704 98.5 682 c 128,-1,51
 91 660 91 660 88 638.5 c 128,-1,52
 85 617 85 617 84 607 c 0,53,54
 84 602 84 602 82.5 583 c 128,-1,55
 81 564 81 564 78.5 542 c 128,-1,56
 76 520 76 520 73.5 501 c 128,-1,57
 71 482 71 482 70 478 c 0,58,59
 69 471 69 471 65 450 c 128,-1,60
 61 429 61 429 55.5 400.5 c 128,-1,61
 50 372 50 372 43.5 340.5 c 128,-1,62
 37 309 37 309 31.5 281 c 128,-1,63
 26 253 26 253 22 232 c 128,-1,64
 18 211 18 211 17 204 c 2,65,-1
 17 199 l 2,66,67
 17 194 17 194 16.5 187.5 c 128,-1,68
 16 181 16 181 16 173 c 2,69,-1
 16 162 l 2,0,1
EndSplineSet
Validated: 41
EndChar

StartChar: M
Encoding: 77 77 54
Width: 684
Flags: W
LayerCount: 2
Fore
SplineSet
38 149 m 0,0,1
 38 139 38 139 34.5 114.5 c 128,-1,2
 31 90 31 90 32 64.5 c 128,-1,3
 33 39 33 39 42.5 19.5 c 128,-1,4
 52 0 52 0 78 0 c 0,5,6
 95 0 95 0 112.5 5 c 128,-1,7
 130 10 130 10 131 29 c 0,8,9
 134 52 134 52 130 73.5 c 128,-1,10
 126 95 126 95 129 118 c 0,11,12
 132 173 132 173 141 225 c 128,-1,13
 150 277 150 277 161 328 c 0,14,15
 167 342 167 342 178 347 c 1,16,-1
 186 342 l 1,17,18
 201 307 201 307 215 277.5 c 128,-1,19
 229 248 229 248 245.5 221.5 c 128,-1,20
 262 195 262 195 283 170.5 c 128,-1,21
 304 146 304 146 333 122 c 1,22,-1
 347 122 l 2,23,24
 364 122 364 122 381.5 134.5 c 128,-1,25
 399 147 399 147 415 167 c 128,-1,26
 431 187 431 187 446 211 c 128,-1,27
 461 235 461 235 473 259 c 128,-1,28
 485 283 485 283 495 303 c 128,-1,29
 505 323 505 323 511 334 c 0,30,31
 512 335 512 335 518 339.5 c 128,-1,32
 524 344 524 344 526 347 c 2,33,34
 526 347 526 347 527.5 347.5 c 128,-1,35
 529 348 529 348 530 348 c 0,36,37
 532 348 532 348 532.5 347.5 c 128,-1,38
 533 347 533 347 533 347 c 2,39,40
 536 344 536 344 538.5 339.5 c 128,-1,41
 541 335 541 335 542 334 c 0,42,43
 543 328 543 328 545.5 316.5 c 128,-1,44
 548 305 548 305 550 294 c 128,-1,45
 552 283 552 283 553.5 275 c 128,-1,46
 555 267 555 267 555 266 c 2,47,-1
 543 14 l 2,48,49
 543 6 543 6 552 3 c 128,-1,50
 561 0 561 0 569 0 c 2,51,-1
 578 0 l 2,52,53
 601 0 601 0 616 10.5 c 128,-1,54
 631 21 631 21 639 37.5 c 128,-1,55
 647 54 647 54 650 75 c 128,-1,56
 653 96 653 96 654 117 c 128,-1,57
 655 138 655 138 654.5 157.5 c 128,-1,58
 654 177 654 177 655 190 c 0,59,60
 656 233 656 233 653.5 276 c 128,-1,61
 651 319 651 319 648 362 c 128,-1,62
 645 405 645 405 643 448 c 128,-1,63
 641 491 641 491 643 533 c 0,64,65
 646 572 646 572 651.5 610 c 128,-1,66
 657 648 657 648 660 686 c 0,67,68
 660 702 660 702 649 716.5 c 128,-1,69
 638 731 638 731 617 731 c 0,70,71
 602 731 602 731 588 719.5 c 128,-1,72
 574 708 574 708 567 695 c 0,73,74
 543 639 543 639 519.5 585.5 c 128,-1,75
 496 532 496 532 471 480 c 128,-1,76
 446 428 446 428 418 376.5 c 128,-1,77
 390 325 390 325 356 273 c 0,78,79
 355 270 355 270 352.5 269 c 128,-1,80
 350 268 350 268 347 266 c 2,81,-1
 344 265 l 2,82,83
 333 265 333 265 323.5 278 c 128,-1,84
 314 291 314 291 305 311 c 128,-1,85
 296 331 296 331 288.5 356 c 128,-1,86
 281 381 281 381 275 404.5 c 128,-1,87
 269 428 269 428 265.5 448 c 128,-1,88
 262 468 262 468 261 478 c 2,89,-1
 242 695 l 2,90,91
 239 707 239 707 233.5 722 c 128,-1,92
 228 737 228 737 209 737 c 0,93,94
 189 737 189 737 171 714.5 c 128,-1,95
 153 692 153 692 137.5 654.5 c 128,-1,96
 122 617 122 617 108.5 568.5 c 128,-1,97
 95 520 95 520 84 468 c 128,-1,98
 73 416 73 416 64.5 364.5 c 128,-1,99
 56 313 56 313 50 269 c 128,-1,100
 44 225 44 225 41 193.5 c 128,-1,101
 38 162 38 162 38 149 c 0,0,1
EndSplineSet
Validated: 41
EndChar

StartChar: N
Encoding: 78 78 55
Width: 582
Flags: W
LayerCount: 2
Fore
SplineSet
35 40 m 0,0,1
 34 27 34 27 45 13.5 c 128,-1,2
 56 0 56 0 70 0 c 0,3,4
 96 0 96 0 106.5 17.5 c 128,-1,5
 117 35 117 35 120 55 c 0,6,7
 121 66 121 66 122.5 90 c 128,-1,8
 124 114 124 114 126.5 144.5 c 128,-1,9
 129 175 129 175 131.5 208.5 c 128,-1,10
 134 242 134 242 136 272.5 c 128,-1,11
 138 303 138 303 140 327 c 128,-1,12
 142 351 142 351 143 363 c 0,13,14
 143 366 143 366 144.5 377 c 128,-1,15
 146 388 146 388 148 400.5 c 128,-1,16
 150 413 150 413 152 423.5 c 128,-1,17
 154 434 154 434 155 437 c 0,18,19
 156 438 156 438 158 443 c 128,-1,20
 160 448 160 448 162 450 c 2,21,-1
 170 450 l 2,22,23
 172 448 172 448 177.5 440.5 c 128,-1,24
 183 433 183 433 185 430 c 2,25,-1
 238 308 l 2,26,27
 242 298 242 298 251.5 277.5 c 128,-1,28
 261 257 261 257 272 235 c 128,-1,29
 283 213 283 213 293 194.5 c 128,-1,30
 303 176 303 176 307 170 c 0,31,32
 315 156 315 156 326 135 c 128,-1,33
 337 114 337 114 351 94.5 c 128,-1,34
 365 75 365 75 383 61 c 128,-1,35
 401 47 401 47 422 47 c 0,36,37
 449 47 449 47 467.5 64 c 128,-1,38
 486 81 486 81 498 104 c 128,-1,39
 510 127 510 127 517 152 c 128,-1,40
 524 177 524 177 528 192 c 0,41,42
 529 203 529 203 533.5 234 c 128,-1,43
 538 265 538 265 543 300 c 128,-1,44
 548 335 548 335 551.5 366 c 128,-1,45
 555 397 555 397 555 409 c 2,46,-1
 556 428 l 2,47,48
 558 445 558 445 559 466 c 128,-1,49
 560 487 560 487 560 510 c 2,50,-1
 562 545 l 1,51,-1
 564 573 l 2,52,53
 565 593 565 593 565.5 614 c 128,-1,54
 566 635 566 635 569 655 c 2,55,-1
 571 682 l 1,56,57
 568 696 568 696 565.5 710.5 c 128,-1,58
 563 725 563 725 557.5 737 c 128,-1,59
 552 749 552 749 542 756.5 c 128,-1,60
 532 764 532 764 513 764 c 0,61,62
 496 764 496 764 486.5 750.5 c 128,-1,63
 477 737 477 737 471.5 718.5 c 128,-1,64
 466 700 466 700 464 681.5 c 128,-1,65
 462 663 462 663 461 653 c 0,66,67
 457 585 457 585 458.5 518 c 128,-1,68
 460 451 460 451 456 382 c 2,69,-1
 455 356 l 2,70,71
 455 340 455 340 453 321 c 128,-1,72
 451 302 451 302 450 283 c 2,73,-1
 448 260 l 2,74,75
 447 257 447 257 445 248.5 c 128,-1,76
 443 240 443 240 440 231 c 128,-1,77
 437 222 437 222 432.5 215.5 c 128,-1,78
 428 209 428 209 422 209 c 0,79,80
 411 209 411 209 397.5 224 c 128,-1,81
 384 239 384 239 370.5 262 c 128,-1,82
 357 285 357 285 344 313.5 c 128,-1,83
 331 342 331 342 320.5 368.5 c 128,-1,84
 310 395 310 395 302.5 417 c 128,-1,85
 295 439 295 439 292 450 c 2,86,-1
 266 532 l 2,87,88
 264 538 264 538 257 556 c 128,-1,89
 250 574 250 574 242.5 593.5 c 128,-1,90
 235 613 235 613 228.5 631 c 128,-1,91
 222 649 222 649 220 655 c 0,92,93
 201 678 201 678 175 694 c 128,-1,94
 149 710 149 710 117 710 c 0,95,96
 103 710 103 710 93.5 701.5 c 128,-1,97
 84 693 84 693 78.5 681 c 128,-1,98
 73 669 73 669 70 656.5 c 128,-1,99
 67 644 67 644 66 636 c 0,100,101
 64 627 64 627 61.5 605 c 128,-1,102
 59 583 59 583 57 559 c 128,-1,103
 55 535 55 535 53 514 c 128,-1,104
 51 493 51 493 51 485 c 2,105,-1
 49 464 l 2,106,107
 48 445 48 445 46.5 423 c 128,-1,108
 45 401 45 401 44 378 c 2,109,-1
 43 342 l 1,110,-1
 38 263 l 2,111,112
 35 208 35 208 33.5 156.5 c 128,-1,113
 32 105 32 105 35 40 c 0,0,1
EndSplineSet
Validated: 41
EndChar

StartChar: O
Encoding: 79 79 56
Width: 831
Flags: W
AnchorPoint: "top" 500 807 basechar 0
LayerCount: 2
Fore
SplineSet
17 256 m 0,0,1
 14 194 14 194 34 146.5 c 128,-1,2
 54 99 54 99 91.5 66.5 c 128,-1,3
 129 34 129 34 181 17 c 128,-1,4
 233 0 233 0 295 0 c 0,5,6
 358 0 358 0 418.5 14 c 128,-1,7
 479 28 479 28 534 54.5 c 128,-1,8
 589 81 589 81 636.5 119 c 128,-1,9
 684 157 684 157 719 204 c 128,-1,10
 754 251 754 251 775.5 306 c 128,-1,11
 797 361 797 361 801 422 c 0,12,13
 805 486 805 486 783 541.5 c 128,-1,14
 761 597 761 597 720.5 637 c 128,-1,15
 680 677 680 677 623 700 c 128,-1,16
 566 723 566 723 500 723 c 0,17,18
 438 723 438 723 378.5 704 c 128,-1,19
 319 685 319 685 266.5 652.5 c 128,-1,20
 214 620 214 620 169 575 c 128,-1,21
 124 530 124 530 91 478.5 c 128,-1,22
 58 427 58 427 38.5 370 c 128,-1,23
 19 313 19 313 17 256 c 0,0,1
133 291 m 0,24,25
 134 325 134 325 149 363.5 c 128,-1,26
 164 402 164 402 188 441 c 128,-1,27
 212 480 212 480 244.5 515.5 c 128,-1,28
 277 551 277 551 313.5 578 c 128,-1,29
 350 605 350 605 389.5 621.5 c 128,-1,30
 429 638 429 638 467 638 c 0,31,32
 517 638 517 638 559.5 615.5 c 128,-1,33
 602 593 602 593 632.5 557 c 128,-1,34
 663 521 663 521 679 476 c 128,-1,35
 695 431 695 431 694 386 c 0,36,37
 692 329 692 329 658.5 276 c 128,-1,38
 625 223 625 223 574.5 182 c 128,-1,39
 524 141 524 141 462.5 116.5 c 128,-1,40
 401 92 401 92 343 92 c 0,41,42
 295 92 295 92 255.5 105.5 c 128,-1,43
 216 119 216 119 188 144.5 c 128,-1,44
 160 170 160 170 145 207 c 128,-1,45
 130 244 130 244 133 291 c 0,24,25
EndSplineSet
Validated: 41
EndChar

StartChar: P
Encoding: 80 80 57
Width: 569
Flags: W
LayerCount: 2
Fore
SplineSet
16 21 m 0,0,1
 23 6 23 6 31 2.5 c 128,-1,2
 39 -1 39 -1 52 -1 c 0,3,4
 60 -1 60 -1 70 2.5 c 128,-1,5
 80 6 80 6 89 12 c 128,-1,6
 98 18 98 18 104 25.5 c 128,-1,7
 110 33 110 33 110 40 c 2,8,-1
 120 192 l 2,9,10
 120 198 120 198 146 209 c 128,-1,11
 172 220 172 220 205.5 232.5 c 128,-1,12
 239 245 239 245 269.5 256.5 c 128,-1,13
 300 268 300 268 309 273 c 0,14,15
 350 294 350 294 393.5 324.5 c 128,-1,16
 437 355 437 355 473.5 392.5 c 128,-1,17
 510 430 510 430 534 473 c 128,-1,18
 558 516 558 516 560 563 c 0,19,20
 563 610 563 610 544 643 c 128,-1,21
 525 676 525 676 492 697 c 128,-1,22
 459 718 459 718 415.5 727.5 c 128,-1,23
 372 737 372 737 326 737 c 0,24,25
 312 737 312 737 284 734 c 128,-1,26
 256 731 256 731 222 724.5 c 128,-1,27
 188 718 188 718 152.5 709 c 128,-1,28
 117 700 117 700 87 688.5 c 128,-1,29
 57 677 57 677 37.5 662 c 128,-1,30
 18 647 18 647 17 630 c 0,31,32
 16 612 16 612 26 591.5 c 128,-1,33
 36 571 36 571 52 559 c 1,34,-1
 51 547 l 1,35,-1
 51 528 l 2,36,37
 51 523 51 523 51 519 c 256,38,39
 51 515 51 515 49 510 c 2,40,-1
 49 498 l 1,41,42
 42 401 42 401 30 308 c 128,-1,43
 18 215 18 215 13 118 c 1,44,-1
 13 84 l 2,45,46
 13 69 13 69 14.5 48.5 c 128,-1,47
 16 28 16 28 16 21 c 0,0,1
138 328 m 2,48,-1
 139 335 l 1,49,-1
 139 387 l 1,50,-1
 143 415 l 1,51,-1
 143 422 l 2,52,53
 143 425 143 425 146.5 442 c 128,-1,54
 150 459 150 459 155 481 c 128,-1,55
 160 503 160 503 164.5 525 c 128,-1,56
 169 547 169 547 172 559 c 0,57,58
 178 584 178 584 195 599.5 c 128,-1,59
 212 615 212 615 235 623 c 128,-1,60
 258 631 258 631 284.5 633.5 c 128,-1,61
 311 636 311 636 337 636 c 0,62,63
 387 636 387 636 414 621.5 c 128,-1,64
 441 607 441 607 438 559 c 0,65,66
 437 534 437 534 423 507 c 128,-1,67
 409 480 409 480 386 453.5 c 128,-1,68
 363 427 363 427 334 403 c 128,-1,69
 305 379 305 379 273 361 c 128,-1,70
 241 343 241 343 209.5 332 c 128,-1,71
 178 321 178 321 151 321 c 2,72,-1
 143 321 l 2,73,74
 140 321 140 321 138 328 c 2,48,-1
EndSplineSet
Validated: 41
EndChar

StartChar: Q
Encoding: 81 81 58
Width: 682
Flags: W
LayerCount: 2
Fore
SplineSet
413 39 m 0,0,1
 417 34 417 34 428.5 20.5 c 128,-1,2
 440 7 440 7 452.5 -8 c 128,-1,3
 465 -23 465 -23 476 -36 c 128,-1,4
 487 -49 487 -49 491 -55 c 0,5,6
 502 -66 502 -66 521 -66 c 256,7,8
 540 -66 540 -66 554 -54.5 c 128,-1,9
 568 -43 568 -43 571 -27 c 0,10,11
 572 -8 572 -8 561 8 c 128,-1,12
 550 24 550 24 536 39.5 c 128,-1,13
 522 55 522 55 510.5 72 c 128,-1,14
 499 89 499 89 500 110 c 0,15,16
 501 124 501 124 509 138.5 c 128,-1,17
 517 153 517 153 528.5 167 c 128,-1,18
 540 181 540 181 552.5 194.5 c 128,-1,19
 565 208 565 208 576 220 c 0,20,21
 616 276 616 276 639.5 333.5 c 128,-1,22
 663 391 663 391 667 454 c 0,23,24
 668 488 668 488 657.5 530.5 c 128,-1,25
 647 573 647 573 623.5 610.5 c 128,-1,26
 600 648 600 648 562 673 c 128,-1,27
 524 698 524 698 472 698 c 0,28,29
 433 698 433 698 395.5 682 c 128,-1,30
 358 666 358 666 328 647 c 0,31,32
 260 608 260 608 203.5 559.5 c 128,-1,33
 147 511 147 511 106 455 c 128,-1,34
 65 399 65 399 40.5 336 c 128,-1,35
 16 273 16 273 12 205 c 0,36,37
 9 162 9 162 16 123.5 c 128,-1,38
 23 85 23 85 44.5 56 c 128,-1,39
 66 27 66 27 104.5 10 c 128,-1,40
 143 -7 143 -7 203 -7 c 0,41,42
 254 -7 254 -7 299.5 9 c 128,-1,43
 345 25 345 25 390 45 c 1,44,-1
 399 45 l 1,45,46
 399 44 399 44 404.5 43 c 128,-1,47
 410 42 410 42 413 39 c 0,0,1
112 191 m 0,48,49
 114 246 114 246 132.5 301.5 c 128,-1,50
 151 357 151 357 184 408 c 128,-1,51
 217 459 217 459 263.5 503 c 128,-1,52
 310 547 310 547 368 578 c 0,53,54
 385 586 385 586 406 598 c 128,-1,55
 427 610 427 610 450 610 c 0,56,57
 487 610 487 610 510.5 590 c 128,-1,58
 534 570 534 570 546.5 541 c 128,-1,59
 559 512 559 512 562.5 480.5 c 128,-1,60
 566 449 566 449 565 426 c 0,61,62
 564 412 564 412 554 377 c 128,-1,63
 544 342 544 342 528.5 305.5 c 128,-1,64
 513 269 513 269 492 241 c 128,-1,65
 471 213 471 213 447 213 c 0,66,67
 429 213 429 213 420 224 c 128,-1,68
 411 235 411 235 402.5 248 c 128,-1,69
 394 261 394 261 383.5 272 c 128,-1,70
 373 283 373 283 354 283 c 0,71,72
 326 283 326 283 320 274.5 c 128,-1,73
 314 266 314 266 311 246 c 0,74,75
 309 230 309 230 315 216.5 c 128,-1,76
 321 203 321 203 327.5 189.5 c 128,-1,77
 334 176 334 176 339.5 163 c 128,-1,78
 345 150 345 150 344 135 c 0,79,80
 343 121 343 121 327 111 c 128,-1,81
 311 101 311 101 290 94.5 c 128,-1,82
 269 88 269 88 247.5 84.5 c 128,-1,83
 226 81 226 81 214 81 c 0,84,85
 184 81 184 81 163.5 90 c 128,-1,86
 143 99 143 99 131 114.5 c 128,-1,87
 119 130 119 130 114.5 150 c 128,-1,88
 110 170 110 170 112 191 c 0,48,49
EndSplineSet
Validated: 41
EndChar

StartChar: R
Encoding: 82 82 59
Width: 608
Flags: W
LayerCount: 2
Fore
SplineSet
12 38 m 1,0,1
 17 26 17 26 26 13 c 128,-1,2
 35 0 35 0 53 0 c 0,3,4
 77 0 77 0 91.5 12 c 128,-1,5
 106 24 106 24 114 43 c 128,-1,6
 122 62 122 62 124.5 85.5 c 128,-1,7
 127 109 127 109 127.5 131.5 c 128,-1,8
 128 154 128 154 127.5 173.5 c 128,-1,9
 127 193 127 193 129 205 c 1,10,11
 136 212 136 212 145 214.5 c 128,-1,12
 154 217 154 217 165 217 c 0,13,14
 172 217 172 217 184 202 c 128,-1,15
 196 187 196 187 213.5 164 c 128,-1,16
 231 141 231 141 254.5 114.5 c 128,-1,17
 278 88 278 88 307.5 65 c 128,-1,18
 337 42 337 42 372.5 27 c 128,-1,19
 408 12 408 12 450 12 c 0,20,21
 462 12 462 12 474.5 13.5 c 128,-1,22
 487 15 487 15 498.5 18.5 c 128,-1,23
 510 22 510 22 517.5 29 c 128,-1,24
 525 36 525 36 526 48 c 0,25,26
 527 64 527 64 510 75.5 c 128,-1,27
 493 87 493 87 467 98 c 128,-1,28
 441 109 441 109 410 120.5 c 128,-1,29
 379 132 379 132 353.5 148 c 128,-1,30
 328 164 328 164 311.5 186 c 128,-1,31
 295 208 295 208 298 239 c 0,32,33
 299 248 299 248 320.5 265 c 128,-1,34
 342 282 342 282 374 305 c 128,-1,35
 406 328 406 328 443 356.5 c 128,-1,36
 480 385 480 385 512.5 417.5 c 128,-1,37
 545 450 545 450 567.5 486 c 128,-1,38
 590 522 590 522 593 560 c 0,39,40
 595 599 595 599 574.5 626 c 128,-1,41
 554 653 554 653 520 669.5 c 128,-1,42
 486 686 486 686 442.5 693.5 c 128,-1,43
 399 701 399 701 356 701 c 0,44,45
 290 701 290 701 235.5 692 c 128,-1,46
 181 683 181 683 141.5 661 c 128,-1,47
 102 639 102 639 77.5 603 c 128,-1,48
 53 567 53 567 47 512 c 0,49,50
 45 499 45 499 42 469.5 c 128,-1,51
 39 440 39 440 36 407 c 128,-1,52
 33 374 33 374 31 346 c 128,-1,53
 29 318 29 318 29 308 c 2,54,-1
 27 287 l 2,55,56
 24 271 24 271 23 251 c 128,-1,57
 22 231 22 231 19 208 c 2,58,-1
 18 173 l 1,59,-1
 18 144 l 2,60,61
 17 136 17 136 16.5 125.5 c 128,-1,62
 16 115 16 115 16 104 c 256,63,64
 16 93 16 93 15 82.5 c 128,-1,65
 14 72 14 72 13 62 c 2,66,-1
 12 38 l 1,0,1
136 369 m 2,67,68
 139 417 139 417 143 460 c 128,-1,69
 147 503 147 503 156 554 c 0,70,71
 160 575 160 575 183.5 590.5 c 128,-1,72
 207 606 207 606 238 615.5 c 128,-1,73
 269 625 269 625 301.5 629.5 c 128,-1,74
 334 634 334 634 355 634 c 0,75,76
 374 634 374 634 392 632.5 c 128,-1,77
 410 631 410 631 425.5 626 c 128,-1,78
 441 621 441 621 452.5 611.5 c 128,-1,79
 464 602 464 602 472 585 c 0,80,81
 472 584 472 584 471.5 579 c 128,-1,82
 471 574 471 574 471 567 c 2,83,-1
 471 549 l 2,84,85
 468 508 468 508 440.5 464.5 c 128,-1,86
 413 421 413 421 370.5 385.5 c 128,-1,87
 328 350 328 350 274.5 327.5 c 128,-1,88
 221 305 221 305 166 305 c 0,89,90
 161 305 161 305 152.5 306 c 128,-1,91
 144 307 144 307 143 308 c 2,92,-1
 135 315 l 1,93,-1
 135 321 l 2,94,95
 136 325 136 325 136 335 c 2,96,-1
 136 369 l 2,67,68
EndSplineSet
Validated: 41
EndChar

StartChar: S
Encoding: 83 83 60
Width: 585
Flags: W
LayerCount: 2
Fore
SplineSet
14 194 m 0,0,1
 12 141 12 141 32 104 c 128,-1,2
 52 67 52 67 88 44 c 128,-1,3
 124 21 124 21 171.5 10.5 c 128,-1,4
 219 0 219 0 272 0 c 0,5,6
 342 0 342 0 395.5 23.5 c 128,-1,7
 449 47 449 47 486 87 c 128,-1,8
 523 127 523 127 543 179.5 c 128,-1,9
 563 232 563 232 565 290 c 0,10,11
 568 336 568 336 541 368 c 128,-1,12
 514 400 514 400 472 422.5 c 128,-1,13
 430 445 430 445 380.5 460.5 c 128,-1,14
 331 476 331 476 288.5 489 c 128,-1,15
 246 502 246 502 218 515 c 128,-1,16
 190 528 190 528 191 545 c 0,17,18
 191 548 191 548 191.5 553 c 128,-1,19
 192 558 192 558 192 559 c 0,20,21
 213 579 213 579 235 597.5 c 128,-1,22
 257 616 257 616 281.5 630.5 c 128,-1,23
 306 645 306 645 333 653.5 c 128,-1,24
 360 662 360 662 391 662 c 0,25,26
 407 662 407 662 419.5 657.5 c 128,-1,27
 432 653 432 653 443.5 647.5 c 128,-1,28
 455 642 455 642 467 637.5 c 128,-1,29
 479 633 479 633 493 633 c 0,30,31
 511 633 511 633 521.5 644.5 c 128,-1,32
 532 656 532 656 533 672 c 0,33,34
 534 694 534 694 522.5 712.5 c 128,-1,35
 511 731 511 731 491.5 744 c 128,-1,36
 472 757 472 757 448.5 764.5 c 128,-1,37
 425 772 425 772 404 772 c 0,38,39
 375 772 375 772 340 761.5 c 128,-1,40
 305 751 305 751 268 732.5 c 128,-1,41
 231 714 231 714 196 689.5 c 128,-1,42
 161 665 161 665 133 637.5 c 128,-1,43
 105 610 105 610 87.5 581 c 128,-1,44
 70 552 70 552 69 524 c 0,45,46
 67 495 67 495 83.5 475.5 c 128,-1,47
 100 456 100 456 128 442.5 c 128,-1,48
 156 429 156 429 191.5 420 c 128,-1,49
 227 411 227 411 264.5 402 c 128,-1,50
 302 393 302 393 338 382 c 128,-1,51
 374 371 374 371 401.5 354.5 c 128,-1,52
 429 338 429 338 445 313.5 c 128,-1,53
 461 289 461 289 459 252 c 0,54,55
 455 171 455 171 404.5 129.5 c 128,-1,56
 354 88 354 88 266 88 c 0,57,58
 225 88 225 88 200 99.5 c 128,-1,59
 175 111 175 111 160.5 127.5 c 128,-1,60
 146 144 146 144 137.5 164 c 128,-1,61
 129 184 129 184 120.5 200.5 c 128,-1,62
 112 217 112 217 99.5 228.5 c 128,-1,63
 87 240 87 240 65 240 c 0,64,65
 14 240 14 240 14 194 c 0,0,1
EndSplineSet
Validated: 41
EndChar

StartChar: T
Encoding: 84 84 61
Width: 545
Flags: W
LayerCount: 2
Fore
SplineSet
191 35 m 2,0,1
 191 19 191 19 200 9.5 c 128,-1,2
 209 0 209 0 226 0 c 0,3,4
 244 0 244 0 255 4.5 c 128,-1,5
 266 9 266 9 273 17.5 c 128,-1,6
 280 26 280 26 284 38 c 128,-1,7
 288 50 288 50 291 64 c 0,8,9
 305 131 305 131 318.5 194 c 128,-1,10
 332 257 332 257 343.5 320 c 128,-1,11
 355 383 355 383 365 446.5 c 128,-1,12
 375 510 375 510 381 578 c 1,13,14
 389 597 389 597 409.5 606.5 c 128,-1,15
 430 616 430 616 455.5 620.5 c 128,-1,16
 481 625 481 625 508.5 627.5 c 128,-1,17
 536 630 536 630 559.5 636 c 128,-1,18
 583 642 583 642 598.5 653.5 c 128,-1,19
 614 665 614 665 615 689 c 0,20,21
 615 692 615 692 614 698 c 128,-1,22
 613 704 613 704 610 710 c 128,-1,23
 607 716 607 716 602.5 720 c 128,-1,24
 598 724 598 724 593 724 c 2,25,-1
 525 724 l 1,26,27
 511 720 511 720 481 713.5 c 128,-1,28
 451 707 451 707 414 699.5 c 128,-1,29
 377 692 377 692 335.5 684 c 128,-1,30
 294 676 294 676 257 668.5 c 128,-1,31
 220 661 220 661 190.5 655.5 c 128,-1,32
 161 650 161 650 147 647 c 0,33,34
 139 645 139 645 122 643 c 128,-1,35
 105 641 105 641 87 639 c 128,-1,36
 69 637 69 637 52.5 635.5 c 128,-1,37
 36 634 36 634 30 634 c 0,38,39
 11 627 11 627 7.5 618 c 128,-1,40
 4 609 4 609 3 594 c 0,41,42
 3 582 3 582 5 572.5 c 128,-1,43
 7 563 7 563 26 556 c 1,44,-1
 34 556 l 2,45,46
 41 556 41 556 49 555.5 c 128,-1,47
 57 555 57 555 64 555 c 2,48,-1
 73 555 l 2,49,50
 94 555 94 555 111.5 555.5 c 128,-1,51
 129 556 129 556 146 557.5 c 128,-1,52
 163 559 163 559 181.5 562 c 128,-1,53
 200 565 200 565 225 571 c 1,54,55
 243 565 243 565 248 556 c 1,56,-1
 248 532 l 2,57,58
 246 477 246 477 238 422.5 c 128,-1,59
 230 368 230 368 220.5 314 c 128,-1,60
 211 260 211 260 203 206.5 c 128,-1,61
 195 153 195 153 192 99 c 2,62,-1
 192 65 l 2,63,64
 192 52 192 52 191 47 c 2,65,-1
 191 35 l 2,0,1
EndSplineSet
Validated: 9
EndChar

StartChar: U
Encoding: 85 85 62
Width: 493
Flags: W
AnchorPoint: "top" 280 793 basechar 0
LayerCount: 2
Fore
SplineSet
26 339 m 0,0,1
 25 312 25 312 23.5 277 c 128,-1,2
 22 242 22 242 25 204 c 128,-1,3
 28 166 28 166 36 129.5 c 128,-1,4
 44 93 44 93 61 64.5 c 128,-1,5
 78 36 78 36 106.5 18 c 128,-1,6
 135 0 135 0 178 0 c 0,7,8
 235 0 235 0 280 19.5 c 128,-1,9
 325 39 325 39 359.5 72 c 128,-1,10
 394 105 394 105 417.5 148.5 c 128,-1,11
 441 192 441 192 454 239 c 1,12,13
 458 286 458 286 461 326 c 128,-1,14
 464 366 464 366 467 404 c 128,-1,15
 470 442 470 442 473 479.5 c 128,-1,16
 476 517 476 517 478 559 c 2,17,-1
 480 601 l 2,18,19
 483 628 483 628 482 652.5 c 128,-1,20
 481 677 481 677 480 716 c 1,21,22
 469 744 469 744 434 744 c 0,23,24
 411 744 411 744 396.5 733.5 c 128,-1,25
 382 723 382 723 380 703 c 2,26,-1
 378 686 l 2,27,28
 378 675 378 675 377 664.5 c 128,-1,29
 376 654 376 654 374 643 c 2,30,-1
 374 627 l 2,31,32
 371 579 371 579 374 531 c 128,-1,33
 377 483 377 483 374 433 c 0,34,35
 373 414 373 414 369 382.5 c 128,-1,36
 365 351 365 351 357.5 315 c 128,-1,37
 350 279 350 279 338 242 c 128,-1,38
 326 205 326 205 307.5 175.5 c 128,-1,39
 289 146 289 146 263.5 127.5 c 128,-1,40
 238 109 238 109 205 109 c 0,41,42
 180 109 180 109 164 125 c 128,-1,43
 148 141 148 141 139 165.5 c 128,-1,44
 130 190 130 190 126.5 219 c 128,-1,45
 123 248 123 248 123 274 c 2,46,-1
 123 342 l 2,47,48
 125 350 125 350 125.5 357 c 128,-1,49
 126 364 126 364 126 369 c 2,50,-1
 127 374 l 2,51,52
 128 384 128 384 131.5 406 c 128,-1,53
 135 428 135 428 140 455 c 128,-1,54
 145 482 145 482 151 511.5 c 128,-1,55
 157 541 157 541 162 568 c 128,-1,56
 167 595 167 595 171.5 617 c 128,-1,57
 176 639 176 639 179 649 c 2,58,-1
 182 658 l 1,59,60
 182 675 182 675 174.5 689 c 128,-1,61
 167 703 167 703 144 703 c 0,62,63
 128 703 128 703 117.5 694 c 128,-1,64
 107 685 107 685 99 676 c 1,65,66
 83 632 83 632 70.5 590.5 c 128,-1,67
 58 549 58 549 48.5 508.5 c 128,-1,68
 39 468 39 468 33.5 426 c 128,-1,69
 28 384 28 384 26 339 c 0,0,1
EndSplineSet
Validated: 41
EndChar

StartChar: V
Encoding: 86 86 63
Width: 476
Flags: W
LayerCount: 2
Fore
SplineSet
21 662 m 2,0,-1
 21 655 l 2,1,2
 21 653 21 653 22.5 641.5 c 128,-1,3
 24 630 24 630 26 617.5 c 128,-1,4
 28 605 28 605 29.5 593.5 c 128,-1,5
 31 582 31 582 31 580 c 0,6,7
 35 502 35 502 38.5 440 c 128,-1,8
 42 378 42 378 50.5 320 c 128,-1,9
 59 262 59 262 74.5 201.5 c 128,-1,10
 90 141 90 141 117 68 c 0,11,12
 121 57 121 57 127.5 45 c 128,-1,13
 134 33 134 33 143 23 c 128,-1,14
 152 13 152 13 163.5 6.5 c 128,-1,15
 175 0 175 0 191 0 c 0,16,17
 206 0 206 0 215.5 8 c 128,-1,18
 225 16 225 16 229 27 c 0,19,20
 260 108 260 108 288 189 c 128,-1,21
 316 270 316 270 344.5 351.5 c 128,-1,22
 373 433 373 433 403 514 c 128,-1,23
 433 595 433 595 468 676 c 0,24,25
 468 677 468 677 468.5 681.5 c 128,-1,26
 469 686 469 686 469 689 c 0,27,28
 472 709 472 709 460 720 c 128,-1,29
 448 731 448 731 425 731 c 0,30,31
 392 731 392 731 365.5 692 c 128,-1,32
 339 653 339 653 317 594.5 c 128,-1,33
 295 536 295 536 276.5 467.5 c 128,-1,34
 258 399 258 399 242 340.5 c 128,-1,35
 226 282 226 282 211 243 c 128,-1,36
 196 204 196 204 182 204 c 0,37,38
 172 204 172 204 164 219.5 c 128,-1,39
 156 235 156 235 149.5 259 c 128,-1,40
 143 283 143 283 138 311.5 c 128,-1,41
 133 340 133 340 129.5 366 c 128,-1,42
 126 392 126 392 124.5 411.5 c 128,-1,43
 123 431 123 431 123 437 c 0,44,45
 122 442 122 442 122 451 c 256,46,47
 122 460 122 460 122 474 c 0,48,49
 122 494 122 494 122.5 518.5 c 128,-1,50
 123 543 123 543 123.5 566 c 128,-1,51
 124 589 124 589 124.5 608 c 128,-1,52
 125 627 125 627 125 636 c 0,53,54
 122 659 122 659 110.5 678 c 128,-1,55
 99 697 99 697 69 697 c 0,56,57
 49 697 49 697 35.5 688.5 c 128,-1,58
 22 680 22 680 21 662 c 2,0,-1
EndSplineSet
Validated: 41
EndChar

StartChar: W
Encoding: 87 87 64
Width: 762
Flags: W
LayerCount: 2
Fore
SplineSet
351 220 m 0,0,1
 361 220 361 220 373 203.5 c 128,-1,2
 385 187 385 187 399 163 c 128,-1,3
 413 139 413 139 429.5 110 c 128,-1,4
 446 81 446 81 466 57 c 128,-1,5
 486 33 486 33 509 16.5 c 128,-1,6
 532 0 532 0 559 0 c 0,7,8
 583 0 583 0 603 23 c 128,-1,9
 623 46 623 46 639.5 82 c 128,-1,10
 656 118 656 118 668.5 161.5 c 128,-1,11
 681 205 681 205 690 245.5 c 128,-1,12
 699 286 699 286 704 318.5 c 128,-1,13
 709 351 709 351 710 365 c 2,14,-1
 710 376 l 1,15,-1
 711 403 l 2,16,17
 712 417 712 417 714 435.5 c 128,-1,18
 716 454 716 454 716 473 c 2,19,-1
 718 506 l 1,20,-1
 719 534 l 1,21,-1
 720 568 l 2,22,23
 723 591 723 591 723.5 618 c 128,-1,24
 724 645 724 645 725 668 c 2,25,-1
 728 703 l 1,26,27
 724 724 724 724 715.5 741.5 c 128,-1,28
 707 759 707 759 680 759 c 0,29,30
 647 759 647 759 634 731 c 1,31,32
 632 658 632 658 629.5 585 c 128,-1,33
 627 512 627 512 619.5 440 c 128,-1,34
 612 368 612 368 597 296 c 128,-1,35
 582 224 582 224 556 153 c 0,36,37
 556 150 556 150 546.5 142.5 c 128,-1,38
 537 135 537 135 534 134 c 0,39,40
 523 130 523 130 511.5 142 c 128,-1,41
 500 154 500 154 489.5 173.5 c 128,-1,42
 479 193 479 193 469.5 218 c 128,-1,43
 460 243 460 243 452.5 266 c 128,-1,44
 445 289 445 289 440.5 306.5 c 128,-1,45
 436 324 436 324 435 330 c 0,46,47
 432 347 432 347 435 377 c 128,-1,48
 438 407 438 407 441 442.5 c 128,-1,49
 444 478 444 478 445.5 514 c 128,-1,50
 447 550 447 550 442.5 579.5 c 128,-1,51
 438 609 438 609 424.5 627.5 c 128,-1,52
 411 646 411 646 385 646 c 0,53,54
 370 646 370 646 353 641 c 128,-1,55
 336 636 336 636 331 620 c 2,56,-1
 296 373 l 2,57,58
 295 366 295 366 286.5 347.5 c 128,-1,59
 278 329 278 329 266 305.5 c 128,-1,60
 254 282 254 282 239 257 c 128,-1,61
 224 232 224 232 209.5 211.5 c 128,-1,62
 195 191 195 191 182 179 c 128,-1,63
 169 167 169 167 161 169 c 0,64,65
 151 171 151 171 144.5 189.5 c 128,-1,66
 138 208 138 208 134 234.5 c 128,-1,67
 130 261 130 261 128.5 292.5 c 128,-1,68
 127 324 127 324 126.5 351.5 c 128,-1,69
 126 379 126 379 126.5 400.5 c 128,-1,70
 127 422 127 422 127 428 c 0,71,72
 129 458 129 458 134.5 487 c 128,-1,73
 140 516 140 516 146 545.5 c 128,-1,74
 152 575 152 575 157 604 c 128,-1,75
 162 633 162 633 164 663 c 0,76,77
 165 683 165 683 158.5 694 c 128,-1,78
 152 705 152 705 126 705 c 0,79,80
 98 705 98 705 79.5 690.5 c 128,-1,81
 61 676 61 676 49 652.5 c 128,-1,82
 37 629 37 629 31 600.5 c 128,-1,83
 25 572 25 572 22 544.5 c 128,-1,84
 19 517 19 517 18.5 492.5 c 128,-1,85
 18 468 18 468 17 454 c 0,86,87
 13 369 13 369 19.5 287 c 128,-1,88
 26 205 26 205 42 120 c 0,89,90
 43 104 43 104 47 84 c 128,-1,91
 51 64 51 64 60 46.5 c 128,-1,92
 69 29 69 29 84.5 17 c 128,-1,93
 100 5 100 5 123 5 c 0,94,95
 134 5 134 5 141 6 c 128,-1,96
 148 7 148 7 161 14 c 0,97,98
 187 31 187 31 213.5 57.5 c 128,-1,99
 240 84 240 84 264 113 c 128,-1,100
 288 142 288 142 308.5 170 c 128,-1,101
 329 198 329 198 343 218 c 0,102,103
 344 218 344 218 347 219 c 128,-1,104
 350 220 350 220 351 220 c 0,0,1
EndSplineSet
Validated: 41
EndChar

StartChar: X
Encoding: 88 88 65
Width: 602
Flags: W
LayerCount: 2
Fore
SplineSet
12 42 m 0,0,1
 10 23 10 23 20 11.5 c 128,-1,2
 30 0 30 0 53 0 c 0,3,4
 74 0 74 0 88 14 c 1,5,-1
 187 177 l 2,6,7
 190 181 190 181 197.5 194.5 c 128,-1,8
 205 208 205 208 215.5 222.5 c 128,-1,9
 226 237 226 237 238 248.5 c 128,-1,10
 250 260 250 260 260 260 c 2,11,-1
 268 260 l 1,12,-1
 303 226 l 2,13,14
 310 216 310 216 331 190.5 c 128,-1,15
 352 165 352 165 375 136.5 c 128,-1,16
 398 108 398 108 418.5 82.5 c 128,-1,17
 439 57 439 57 446 47 c 0,18,19
 453 38 453 38 463.5 35 c 128,-1,20
 474 32 474 32 485 32 c 0,21,22
 499 32 499 32 511 39.5 c 128,-1,23
 523 47 523 47 524 61 c 2,24,-1
 524 68 l 1,25,26
 511 102 511 102 489 137.5 c 128,-1,27
 467 173 467 173 442 207.5 c 128,-1,28
 417 242 417 242 392 274 c 128,-1,29
 367 306 367 306 348 334 c 0,30,31
 340 341 340 341 339 344.5 c 128,-1,32
 338 348 338 348 339 359 c 0,33,34
 340 364 340 364 341 366.5 c 128,-1,35
 342 369 342 369 343.5 371.5 c 128,-1,36
 345 374 345 374 348.5 377.5 c 128,-1,37
 352 381 352 381 357 389 c 0,38,39
 366 398 366 398 380.5 414.5 c 128,-1,40
 395 431 395 431 409 447.5 c 128,-1,41
 423 464 423 464 433.5 476.5 c 128,-1,42
 444 489 444 489 446 490 c 0,43,44
 459 506 459 506 483 527.5 c 128,-1,45
 507 549 507 549 531 573.5 c 128,-1,46
 555 598 555 598 573 623 c 128,-1,47
 591 648 591 648 593 671 c 0,48,49
 594 685 594 685 584.5 697.5 c 128,-1,50
 575 710 575 710 556 710 c 0,51,52
 533 710 533 710 508.5 691.5 c 128,-1,53
 484 673 484 673 458.5 646 c 128,-1,54
 433 619 433 619 408.5 586.5 c 128,-1,55
 384 554 384 554 362 527 c 128,-1,56
 340 500 340 500 321.5 481.5 c 128,-1,57
 303 463 303 463 290 463 c 0,58,59
 289 463 289 463 287.5 463.5 c 128,-1,60
 286 464 286 464 286 464 c 2,61,62
 283 467 283 467 275 474.5 c 128,-1,63
 267 482 267 482 264 485 c 0,64,65
 261 491 261 491 251 507.5 c 128,-1,66
 241 524 241 524 230 542.5 c 128,-1,67
 219 561 219 561 209 578 c 128,-1,68
 199 595 199 595 195 602 c 0,69,70
 187 613 187 613 179 629 c 128,-1,71
 171 645 171 645 160 659.5 c 128,-1,72
 149 674 149 674 134.5 684.5 c 128,-1,73
 120 695 120 695 101 695 c 0,74,75
 75 695 75 695 64.5 683.5 c 128,-1,76
 54 672 54 672 51 649 c 0,77,78
 51 625 51 625 69.5 602 c 128,-1,79
 88 579 88 579 103 559 c 0,80,81
 108 549 108 549 122.5 523.5 c 128,-1,82
 137 498 137 498 153.5 469.5 c 128,-1,83
 170 441 170 441 185.5 416 c 128,-1,84
 201 391 201 391 207 382 c 0,85,86
 208 379 208 379 210 371.5 c 128,-1,87
 212 364 212 364 212 363 c 0,88,89
 212 358 212 358 209.5 351.5 c 128,-1,90
 207 345 207 345 204 342 c 0,91,92
 180 314 180 314 148 277.5 c 128,-1,93
 116 241 116 241 86.5 201 c 128,-1,94
 57 161 57 161 35.5 120 c 128,-1,95
 14 79 14 79 12 42 c 0,0,1
EndSplineSet
Validated: 41
EndChar

StartChar: Y
Encoding: 89 89 66
Width: 489
Flags: W
AnchorPoint: "top" 267 800 basechar 0
LayerCount: 2
Fore
SplineSet
91 52 m 0,0,1
 91 44 91 44 92.5 34.5 c 128,-1,2
 94 25 94 25 98.5 17.5 c 128,-1,3
 103 10 103 10 111 5 c 128,-1,4
 119 0 119 0 133 0 c 0,5,6
 156 0 156 0 176.5 12 c 128,-1,7
 197 24 197 24 200 47 c 0,8,9
 208 89 208 89 215.5 126.5 c 128,-1,10
 223 164 223 164 233 200 c 128,-1,11
 243 236 243 236 257 272 c 128,-1,12
 271 308 271 308 292 347 c 0,13,14
 299 358 299 358 312.5 381 c 128,-1,15
 326 404 326 404 342.5 433.5 c 128,-1,16
 359 463 359 463 377 495.5 c 128,-1,17
 395 528 395 528 412 557 c 128,-1,18
 429 586 429 586 442.5 609 c 128,-1,19
 456 632 456 632 464 642 c 0,20,21
 475 661 475 661 478.5 678 c 128,-1,22
 482 695 482 695 485 715 c 0,23,24
 486 731 486 731 479.5 742.5 c 128,-1,25
 473 754 473 754 450 754 c 0,26,27
 424 754 424 754 408 738.5 c 128,-1,28
 392 723 392 723 381 702 c 128,-1,29
 370 681 370 681 362.5 659 c 128,-1,30
 355 637 355 637 347 624 c 0,31,32
 340 612 340 612 323 583.5 c 128,-1,33
 306 555 306 555 286.5 524 c 128,-1,34
 267 493 267 493 250 465 c 128,-1,35
 233 437 233 437 227 426 c 0,36,37
 222 415 222 415 212 414 c 128,-1,38
 202 413 202 413 191 413 c 0,39,40
 159 413 159 413 143.5 425.5 c 128,-1,41
 128 438 128 438 121 465 c 0,42,43
 121 470 121 470 120.5 482.5 c 128,-1,44
 120 495 120 495 121 506 c 2,45,-1
 122 515 l 2,46,47
 122 536 122 536 127 556 c 128,-1,48
 132 576 132 576 138 595.5 c 128,-1,49
 144 615 144 615 149 635 c 128,-1,50
 154 655 154 655 156 676 c 0,51,52
 157 693 157 693 146 708.5 c 128,-1,53
 135 724 135 724 112 724 c 0,54,55
 82 724 82 724 63.5 704.5 c 128,-1,56
 45 685 45 685 35 657 c 128,-1,57
 25 629 25 629 21 597 c 128,-1,58
 17 565 17 565 16 541 c 2,59,-1
 13 510 l 2,60,61
 11 483 11 483 19.5 459 c 128,-1,62
 28 435 28 435 41 414.5 c 128,-1,63
 54 394 54 394 70 376 c 128,-1,64
 86 358 86 358 99.5 343.5 c 128,-1,65
 113 329 113 329 121.5 318 c 128,-1,66
 130 307 130 307 129 299 c 0,67,68
 127 268 127 268 121.5 237.5 c 128,-1,69
 116 207 116 207 110 176 c 128,-1,70
 104 145 104 145 98 114 c 128,-1,71
 92 83 92 83 91 52 c 0,0,1
EndSplineSet
Validated: 41
EndChar

StartChar: Z
Encoding: 90 90 67
Width: 563
Flags: W
LayerCount: 2
Fore
SplineSet
10 52 m 0,0,1
 7 33 7 33 16.5 23 c 128,-1,2
 26 13 26 13 43 0 c 1,3,-1
 60 0 l 2,4,5
 63 0 63 0 64.5 -0.5 c 128,-1,6
 66 -1 66 -1 70 -1 c 2,7,-1
 92 -1 l 2,8,9
 128 -1 128 -1 165 7 c 128,-1,10
 202 15 202 15 240 26 c 1,11,-1
 247 26 l 1,12,-1
 251 29 l 1,13,14
 270 34 270 34 290 38.5 c 128,-1,15
 310 43 310 43 330 47 c 0,16,17
 360 54 360 54 393.5 56.5 c 128,-1,18
 427 59 427 59 461 62 c 0,19,20
 464 62 464 62 468.5 63 c 128,-1,21
 473 64 473 64 477 64 c 2,22,-1
 494 64 l 2,23,24
 499 64 499 64 500 65 c 0,25,26
 508 66 508 66 516.5 67 c 128,-1,27
 525 68 525 68 533 68 c 0,28,29
 542 68 542 68 546.5 76.5 c 128,-1,30
 551 85 551 85 552 96 c 0,31,32
 554 111 554 111 541.5 124 c 128,-1,33
 529 137 529 137 515 142 c 1,34,-1
 459 142 l 2,35,36
 423 142 423 142 387 136 c 128,-1,37
 351 130 351 130 312 122 c 0,38,39
 311 121 311 121 305 121 c 2,40,-1
 300 121 l 1,41,42
 300 121 300 121 298.5 120.5 c 128,-1,43
 297 120 297 120 292 118 c 2,44,-1
 291 118 l 1,45,46
 261 111 261 111 229.5 106 c 128,-1,47
 198 101 198 101 164 101 c 1,48,-1
 159 109 l 1,49,50
 160 126 160 126 170 145.5 c 128,-1,51
 180 165 180 165 194.5 185.5 c 128,-1,52
 209 206 209 206 226 226 c 128,-1,53
 243 246 243 246 259 264 c 0,54,55
 260 267 260 267 261 268 c 128,-1,56
 262 269 262 269 270 278 c 1,57,-1
 273 278 l 1,58,59
 276 285 276 285 279.5 288.5 c 128,-1,60
 283 292 283 292 285 294 c 0,61,62
 298 311 298 311 318.5 330.5 c 128,-1,63
 339 350 339 350 364 373 c 0,64,65
 395 406 395 406 427.5 441.5 c 128,-1,66
 460 477 460 477 487.5 515 c 128,-1,67
 515 553 515 553 533 593 c 128,-1,68
 551 633 551 633 554 675 c 0,69,70
 554 731 554 731 486 731 c 0,71,72
 477 731 477 731 442 727 c 128,-1,73
 407 723 407 723 360.5 716 c 128,-1,74
 314 709 314 709 261.5 699 c 128,-1,75
 209 689 209 689 165.5 677 c 128,-1,76
 122 665 122 665 93 652 c 128,-1,77
 64 639 64 639 64 625 c 0,78,79
 62 608 62 608 68 599.5 c 128,-1,80
 74 591 74 591 100 582 c 1,81,-1
 110 582 l 2,82,83
 112 582 112 582 112 581 c 1,84,-1
 113 581 l 2,85,86
 116 581 116 581 117 580.5 c 128,-1,87
 118 580 118 580 120 580 c 2,88,-1
 131 580 l 2,89,90
 163 580 163 580 195 583.5 c 128,-1,91
 227 587 227 587 261 594 c 1,92,-1
 269 594 l 2,93,94
 270 594 270 594 270.5 594.5 c 128,-1,95
 271 595 271 595 274 595 c 0,96,97
 276 595 276 595 278.5 596.5 c 128,-1,98
 281 598 281 598 282 598 c 0,99,100
 286 598 286 598 287 599 c 0,101,102
 315 603 315 603 344.5 607 c 128,-1,103
 374 611 374 611 406 611 c 1,104,-1
 411 604 l 1,105,106
 409 584 409 584 396.5 569 c 128,-1,107
 384 554 384 554 368 536 c 2,108,-1
 364 532 l 1,109,-1
 357 526 l 1,110,-1
 354 519 l 1,111,-1
 164 298 l 1,112,-1
 152 283 l 1,113,-1
 146 274 l 2,114,115
 143 270 143 270 140.5 267 c 128,-1,116
 138 264 138 264 135 260 c 1,117,-1
 134 260 l 1,118,-1
 133 256 l 1,119,120
 112 233 112 233 91 207.5 c 128,-1,121
 70 182 70 182 52.5 156 c 128,-1,122
 35 130 35 130 23 103.5 c 128,-1,123
 11 77 11 77 10 52 c 0,0,1
273 276 m 1,124,-1
 272 278 l 1,125,126
 268 276 268 276 273 276 c 1,124,-1
EndSplineSet
Validated: 5
EndChar

StartChar: bracketleft
Encoding: 91 91 68
Width: 350
Flags: W
LayerCount: 2
Fore
SplineSet
10 47 m 2,0,1
 10 39 10 39 14.5 30.5 c 128,-1,2
 19 22 19 22 26.5 15.5 c 128,-1,3
 34 9 34 9 43.5 4.5 c 128,-1,4
 53 0 53 0 62 0 c 2,5,-1
 243 0 l 2,6,7
 250 0 250 0 257.5 4.5 c 128,-1,8
 265 9 265 9 271 15 c 128,-1,9
 277 21 277 21 280.5 28 c 128,-1,10
 284 35 284 35 285 40 c 0,11,12
 285 46 285 46 281.5 53.5 c 128,-1,13
 278 61 278 61 273 68.5 c 128,-1,14
 268 76 268 76 261 81 c 128,-1,15
 254 86 254 86 248 86 c 2,16,-1
 134 86 l 1,17,-1
 121 101 l 1,18,-1
 121 127 l 2,19,20
 122 131 122 131 122 136 c 2,21,-1
 122 149 l 2,22,23
 125 168 125 168 129 208 c 128,-1,24
 133 248 133 248 137.5 298.5 c 128,-1,25
 142 349 142 349 147.5 404.5 c 128,-1,26
 153 460 153 460 157.5 510.5 c 128,-1,27
 162 561 162 561 166 601 c 128,-1,28
 170 641 170 641 173 660 c 0,29,30
 173 661 173 661 175.5 666 c 128,-1,31
 178 671 178 671 181.5 676.5 c 128,-1,32
 185 682 185 682 188 682 c 2,33,-1
 302 682 l 2,34,35
 325 682 325 682 334 695 c 128,-1,36
 343 708 343 708 343 724 c 0,37,38
 344 737 344 737 341.5 743 c 128,-1,39
 339 749 339 749 322 757 c 1,40,41
 294 761 294 761 274 763.5 c 128,-1,42
 254 766 254 766 236 768 c 128,-1,43
 218 770 218 770 200 771 c 128,-1,44
 182 772 182 772 159 772 c 2,45,-1
 117 772 l 1,46,47
 101 765 101 765 94 757 c 128,-1,48
 87 749 87 749 78 737 c 1,49,50
 71 562 71 562 57.5 393.5 c 128,-1,51
 44 225 44 225 12 55 c 1,52,-1
 10 47 l 2,0,1
EndSplineSet
Validated: 9
EndChar

StartChar: backslash
Encoding: 92 92 69
Width: 391
Flags: W
LayerCount: 2
Fore
SplineSet
10 682 m 0,0,1
 19 664 19 664 37 626 c 128,-1,2
 55 588 55 588 77.5 539.5 c 128,-1,3
 100 491 100 491 124.5 437.5 c 128,-1,4
 149 384 149 384 171 335.5 c 128,-1,5
 193 287 193 287 210 248.5 c 128,-1,6
 227 210 227 210 235 192 c 0,7,8
 236 187 236 187 244 167 c 128,-1,9
 252 147 252 147 261.5 123.5 c 128,-1,10
 271 100 271 100 279 80 c 128,-1,11
 287 60 287 60 290 55 c 0,12,13
 297 32 297 32 311.5 16 c 128,-1,14
 326 0 326 0 354 0 c 0,15,16
 376 0 376 0 381 13 c 128,-1,17
 386 26 386 26 386 40 c 0,18,19
 389 69 389 69 380.5 93 c 128,-1,20
 372 117 372 117 361 143 c 0,21,22
 328 221 328 221 297 297.5 c 128,-1,23
 266 374 266 374 233 449 c 128,-1,24
 200 524 200 524 163 597 c 128,-1,25
 126 670 126 670 82 742 c 0,26,27
 75 754 75 754 63 759 c 128,-1,28
 51 764 51 764 38 764 c 0,29,30
 15 764 15 764 10 750.5 c 128,-1,31
 5 737 5 737 4 723 c 0,32,33
 3 711 3 711 3 702 c 256,34,35
 3 693 3 693 10 682 c 0,0,1
EndSplineSet
Validated: 41
EndChar

StartChar: bracketright
Encoding: 93 93 70
Width: 321
Flags: W
LayerCount: 2
Fore
SplineSet
6 38 m 0,0,1
 6 23 6 23 10.5 11.5 c 128,-1,2
 15 0 15 0 35 0 c 2,3,-1
 43 0 l 1,4,-1
 212 14 l 1,5,6
 221 19 221 19 230.5 27.5 c 128,-1,7
 240 36 240 36 243 47 c 0,8,9
 247 133 247 133 256.5 218 c 128,-1,10
 266 303 266 303 276.5 387.5 c 128,-1,11
 287 472 287 472 297 556.5 c 128,-1,12
 307 641 307 641 311 727 c 1,13,-1
 312 734 l 1,14,-1
 312 772 l 1,15,16
 304 795 304 795 290 807 c 128,-1,17
 276 819 276 819 248 819 c 0,18,19
 227 819 227 819 204.5 815 c 128,-1,20
 182 811 182 811 159 805 c 128,-1,21
 136 799 136 799 113.5 793 c 128,-1,22
 91 787 91 787 69 784 c 1,23,24
 53 773 53 773 45.5 763 c 128,-1,25
 38 753 38 753 36 734 c 0,26,27
 35 723 35 723 37.5 716.5 c 128,-1,28
 40 710 40 710 58 703 c 1,29,-1
 65 703 l 2,30,31
 69 703 69 703 75 702.5 c 128,-1,32
 81 702 81 702 86 702 c 2,33,-1
 91 702 l 2,34,35
 118 702 118 702 142 710 c 128,-1,36
 166 718 166 718 192 718 c 0,37,38
 197 718 197 718 202.5 717.5 c 128,-1,39
 208 717 208 717 209 710 c 2,40,-1
 207 655 l 2,41,42
 203 588 203 588 194.5 521.5 c 128,-1,43
 186 455 186 455 177 389 c 128,-1,44
 168 323 168 323 160 256 c 128,-1,45
 152 189 152 189 148 122 c 1,46,47
 139 101 139 101 116 96 c 128,-1,48
 93 91 93 91 69 87.5 c 128,-1,49
 45 84 45 84 26 75 c 128,-1,50
 7 66 7 66 6 38 c 0,0,1
EndSplineSet
Validated: 9
EndChar

StartChar: asciicircum
Encoding: 94 94 71
Width: 415
Flags: W
LayerCount: 2
Fore
SplineSet
228 633 m 0,0,1
 240 633 240 633 244 628 c 2,2,-1
 342 521 l 2,3,4
 347 515 347 515 354 515 c 256,5,6
 361 515 361 515 370 515 c 0,7,8
 383 515 383 515 394.5 524.5 c 128,-1,9
 406 534 406 534 407 547 c 2,10,-1
 407 550 l 2,11,12
 406 552 406 552 405 559 c 128,-1,13
 404 566 404 566 402 569 c 0,14,15
 378 597 378 597 350 629.5 c 128,-1,16
 322 662 322 662 299 694 c 0,17,18
 296 697 296 697 289.5 706.5 c 128,-1,19
 283 716 283 716 275.5 726.5 c 128,-1,20
 268 737 268 737 260.5 745 c 128,-1,21
 253 753 253 753 249 753 c 2,22,-1
 228 753 l 2,23,24
 227 753 227 753 208.5 741.5 c 128,-1,25
 190 730 190 730 165 714 c 128,-1,26
 140 698 140 698 114.5 680.5 c 128,-1,27
 89 663 89 663 74 652 c 0,28,29
 57 641 57 641 45 633 c 128,-1,30
 33 625 33 625 24.5 616.5 c 128,-1,31
 16 608 16 608 11.5 597 c 128,-1,32
 7 586 7 586 6 569 c 2,33,-1
 6 545 l 1,34,35
 18 526 18 526 39 526 c 0,36,37
 62 526 62 526 84 542.5 c 128,-1,38
 106 559 106 559 129 579.5 c 128,-1,39
 152 600 152 600 176.5 616.5 c 128,-1,40
 201 633 201 633 228 633 c 0,0,1
EndSplineSet
Validated: 9
EndChar

StartChar: underscore
Encoding: 95 95 72
Width: 676
Flags: W
LayerCount: 2
Fore
SplineSet
14 -75 m 0,0,1
 13 -90 13 -90 26 -97 c 128,-1,2
 39 -104 39 -104 53 -107 c 2,3,-1
 523 -107 l 2,4,5
 528 -107 528 -107 542 -106 c 128,-1,6
 556 -105 556 -105 572 -103.5 c 128,-1,7
 588 -102 588 -102 602 -101 c 128,-1,8
 616 -100 616 -100 621 -100 c 0,9,10
 634 -91 634 -91 648 -79 c 128,-1,11
 662 -67 662 -67 662 -51 c 0,12,13
 663 -43 663 -43 661.5 -40 c 128,-1,14
 660 -37 660 -37 649 -30 c 1,15,16
 632 -30 632 -30 596.5 -29.5 c 128,-1,17
 561 -29 561 -29 515 -29 c 0,18,19
 470 -29 470 -29 421 -27.5 c 128,-1,20
 372 -26 372 -26 326 -26 c 0,21,22
 282 -26 282 -26 246.5 -25.5 c 128,-1,23
 211 -25 211 -25 194 -25 c 2,24,-1
 149 -25 l 2,25,26
 132 -25 132 -25 109.5 -26.5 c 128,-1,27
 87 -28 87 -28 66 -33.5 c 128,-1,28
 45 -39 45 -39 30 -49 c 128,-1,29
 15 -59 15 -59 14 -75 c 0,0,1
EndSplineSet
Validated: 9
EndChar

StartChar: grave
Encoding: 96 96 73
Width: 356
Flags: W
AnchorPoint: "top" 167 807 mark 0
LayerCount: 2
Fore
SplineSet
234 809 m 0,0,1
 234 811 234 811 234.5 816.5 c 128,-1,2
 235 822 235 822 235 824 c 0,3,4
 236 835 236 835 229.5 860.5 c 128,-1,5
 223 886 223 886 209 912 c 128,-1,6
 195 938 195 938 173 958 c 128,-1,7
 151 978 151 978 121 978 c 0,8,9
 105 978 105 978 96 972.5 c 128,-1,10
 87 967 87 967 87 959 c 0,11,12
 85 948 85 948 90.5 937 c 128,-1,13
 96 926 96 926 104 915 c 128,-1,14
 112 904 112 904 120 893.5 c 128,-1,15
 128 883 128 883 132 873 c 0,16,17
 135 868 135 868 137.5 855.5 c 128,-1,18
 140 843 140 843 146 830 c 128,-1,19
 152 817 152 817 163.5 807 c 128,-1,20
 175 797 175 797 197 797 c 0,21,22
 208 797 208 797 217.5 800.5 c 128,-1,23
 227 804 227 804 234 809 c 0,0,1
EndSplineSet
Validated: 41
EndChar

StartChar: a
Encoding: 97 97 74
Width: 499
Flags: W
AnchorPoint: "top" 267 820 basechar 0
LayerCount: 2
Fore
SplineSet
350 21 m 0,0,1
 354 2 354 2 362 1 c 128,-1,2
 370 0 370 0 389 0 c 0,3,4
 410 0 410 0 422 10 c 128,-1,5
 434 20 434 20 440 35 c 128,-1,6
 446 50 446 50 448 67 c 128,-1,7
 450 84 450 84 452 99 c 0,8,9
 455 130 455 130 451.5 160.5 c 128,-1,10
 448 191 448 191 450 222 c 2,11,-1
 450 230 l 1,12,-1
 454 257 l 1,13,-1
 454 266 l 1,14,15
 472 279 472 279 478.5 286.5 c 128,-1,16
 485 294 485 294 486 309 c 0,17,18
 487 321 487 321 482.5 330 c 128,-1,19
 478 339 478 339 471 347.5 c 128,-1,20
 464 356 464 356 456.5 364 c 128,-1,21
 449 372 449 372 445 382 c 0,22,23
 443 390 443 390 440.5 410 c 128,-1,24
 438 430 438 430 435.5 453 c 128,-1,25
 433 476 433 476 431 496.5 c 128,-1,26
 429 517 429 517 429 525 c 0,27,28
 428 536 428 536 427 551 c 128,-1,29
 426 566 426 566 426 586 c 0,30,31
 426 614 426 614 422 644 c 128,-1,32
 418 674 418 674 407.5 699.5 c 128,-1,33
 397 725 397 725 378.5 741.5 c 128,-1,34
 360 758 360 758 331 758 c 0,35,36
 313 758 313 758 293 746.5 c 128,-1,37
 273 735 273 735 254.5 719.5 c 128,-1,38
 236 704 236 704 221.5 689 c 128,-1,39
 207 674 207 674 201 668 c 0,40,41
 147 616 147 616 112 549.5 c 128,-1,42
 77 483 77 483 56.5 411 c 128,-1,43
 36 339 36 339 26.5 266 c 128,-1,44
 17 193 17 193 13 129 c 0,45,46
 13 118 13 118 12.5 102.5 c 128,-1,47
 12 87 12 87 15.5 73 c 128,-1,48
 19 59 19 59 28.5 49.5 c 128,-1,49
 38 40 38 40 58 40 c 0,50,51
 84 40 84 40 101 61 c 0,52,53
 103 65 103 65 103 84 c 0,54,55
 103 96 103 96 103.5 110 c 128,-1,56
 104 124 104 124 105 137.5 c 128,-1,57
 106 151 106 151 107 161.5 c 128,-1,58
 108 172 108 172 109 177 c 0,59,60
 110 188 110 188 114 200 c 128,-1,61
 118 212 118 212 133 217 c 0,62,63
 179 224 179 224 225.5 228.5 c 128,-1,64
 272 233 272 233 320 233 c 0,65,66
 327 233 327 233 335.5 232 c 128,-1,67
 344 231 344 231 346 231 c 2,68,-1
 352 217 l 1,69,-1
 352 204 l 2,70,71
 352 191 352 191 353 174.5 c 128,-1,72
 354 158 354 158 354 139 c 2,73,-1
 354 91 l 2,74,75
 354 84 354 84 354 77 c 0,76,77
 354 71 354 71 352 64 c 0,78,79
 352 51 352 51 351 38 c 128,-1,80
 350 25 350 25 350 21 c 0,0,1
136 331 m 0,81,82
 137 342 137 342 146 367 c 128,-1,83
 155 392 155 392 168.5 423.5 c 128,-1,84
 182 455 182 455 200 488.5 c 128,-1,85
 218 522 218 522 237 550 c 128,-1,86
 256 578 256 578 275.5 596 c 128,-1,87
 295 614 295 614 312 614 c 0,88,89
 322 614 322 614 329 598.5 c 128,-1,90
 336 583 336 583 339.5 559.5 c 128,-1,91
 343 536 343 536 344.5 507.5 c 128,-1,92
 346 479 346 479 346.5 453 c 128,-1,93
 347 427 347 427 346.5 407.5 c 128,-1,94
 346 388 346 388 346 382 c 2,95,-1
 346 373 l 2,96,97
 344 368 344 368 344 357 c 2,98,-1
 344 334 l 1,99,100
 335 321 335 321 315.5 314 c 128,-1,101
 296 307 296 307 274 303.5 c 128,-1,102
 252 300 252 300 230.5 299.5 c 128,-1,103
 209 299 209 299 196 299 c 2,104,-1
 173 299 l 2,105,106
 157 299 157 299 146.5 306 c 128,-1,107
 136 313 136 313 136 331 c 0,81,82
EndSplineSet
Validated: 41
EndChar

StartChar: b
Encoding: 98 98 75
Width: 602
Flags: W
LayerCount: 2
Fore
SplineSet
13 65 m 2,0,1
 13 45 13 45 28 32.5 c 128,-1,2
 43 20 43 20 64.5 13 c 128,-1,3
 86 6 86 6 109 3 c 128,-1,4
 132 0 132 0 148 0 c 0,5,6
 184 0 184 0 229.5 10.5 c 128,-1,7
 275 21 275 21 323 39.5 c 128,-1,8
 371 58 371 58 417.5 83.5 c 128,-1,9
 464 109 464 109 501 140 c 128,-1,10
 538 171 538 171 561.5 205.5 c 128,-1,11
 585 240 585 240 588 277 c 0,12,13
 589 307 589 307 577 327 c 128,-1,14
 565 347 565 347 545 360.5 c 128,-1,15
 525 374 525 374 501 382.5 c 128,-1,16
 477 391 477 391 454.5 399.5 c 128,-1,17
 432 408 432 408 414.5 417.5 c 128,-1,18
 397 427 397 427 391 443 c 0,19,20
 390 446 390 446 393 450.5 c 128,-1,21
 396 455 396 455 399 456 c 0,22,23
 418 470 418 470 441.5 487 c 128,-1,24
 465 504 465 504 486 524 c 128,-1,25
 507 544 507 544 521.5 566.5 c 128,-1,26
 536 589 536 589 538 614 c 0,27,28
 539 636 539 636 529.5 653.5 c 128,-1,29
 520 671 520 671 503.5 684.5 c 128,-1,30
 487 698 487 698 465.5 707 c 128,-1,31
 444 716 444 716 422 720 c 1,32,-1
 404 720 l 2,33,34
 393 720 393 720 379.5 720.5 c 128,-1,35
 366 721 366 721 355 721 c 2,36,-1
 338 721 l 2,37,38
 316 721 316 721 285.5 720.5 c 128,-1,39
 255 720 255 720 222 716.5 c 128,-1,40
 189 713 189 713 156 706 c 128,-1,41
 123 699 123 699 96.5 686.5 c 128,-1,42
 70 674 70 674 52.5 654.5 c 128,-1,43
 35 635 35 635 34 607 c 0,44,45
 34 602 34 602 34.5 596 c 128,-1,46
 35 590 35 590 35 589 c 2,47,-1
 78 550 l 1,48,-1
 78 541 l 2,49,50
 77 534 77 534 77.5 525.5 c 128,-1,51
 78 517 78 517 77 506 c 2,52,-1
 75 490 l 1,53,54
 70 380 70 380 53.5 279.5 c 128,-1,55
 37 179 37 179 14 73 c 1,56,-1
 13 65 l 2,0,1
116 125 m 1,57,-1
 117 130 l 2,58,59
 117 144 117 144 118 147 c 2,60,-1
 118 152 l 2,61,62
 119 161 119 161 123.5 183.5 c 128,-1,63
 128 206 128 206 133 231.5 c 128,-1,64
 138 257 138 257 142.5 279.5 c 128,-1,65
 147 302 147 302 149 312 c 0,66,67
 152 325 152 325 163 336 c 128,-1,68
 174 347 174 347 190 352 c 1,69,-1
 257 352 l 2,70,71
 279 352 279 352 317 349 c 128,-1,72
 355 346 355 346 392 337 c 128,-1,73
 429 328 429 328 455.5 312 c 128,-1,74
 482 296 482 296 481 270 c 0,75,76
 479 242 479 242 462.5 218.5 c 128,-1,77
 446 195 446 195 420 175 c 128,-1,78
 394 155 394 155 361.5 139.5 c 128,-1,79
 329 124 329 124 294.5 113 c 128,-1,80
 260 102 260 102 227.5 96.5 c 128,-1,81
 195 91 195 91 169 91 c 2,82,-1
 159 91 l 2,83,84
 151 91 151 91 140.5 92.5 c 128,-1,85
 130 94 130 94 130 94 c 1,86,-1
 116 105 l 1,87,-1
 116 125 l 1,57,-1
179 450 m 0,88,89
 179 457 179 457 178.5 473 c 128,-1,90
 178 489 178 489 178 506 c 2,91,-1
 178 563 l 1,92,-1
 179 576 l 2,93,94
 179 597 179 597 199.5 610 c 128,-1,95
 220 623 220 623 248 630 c 128,-1,96
 276 637 276 637 304 639 c 128,-1,97
 332 641 332 641 346 641 c 0,98,99
 353 641 353 641 367 638.5 c 128,-1,100
 381 636 381 636 395.5 631.5 c 128,-1,101
 410 627 410 627 421 619.5 c 128,-1,102
 432 612 432 612 432 602 c 0,103,104
 432 599 432 599 427 591.5 c 128,-1,105
 422 584 422 584 422 584 c 1,106,107
 405 568 405 568 378 543.5 c 128,-1,108
 351 519 351 519 320 496.5 c 128,-1,109
 289 474 289 474 256 458 c 128,-1,110
 223 442 223 442 194 442 c 0,111,112
 189 442 189 442 185.5 442.5 c 128,-1,113
 182 443 182 443 179 450 c 0,88,89
EndSplineSet
Validated: 41
EndChar

StartChar: c
Encoding: 99 99 76
Width: 585
Flags: W
LayerCount: 2
Fore
SplineSet
14 226 m 0,0,1
 12 162 12 162 28.5 119 c 128,-1,2
 45 76 45 76 79 49.5 c 128,-1,3
 113 23 113 23 163 11.5 c 128,-1,4
 213 0 213 0 278 0 c 0,5,6
 298 0 298 0 327.5 5 c 128,-1,7
 357 10 357 10 389.5 19 c 128,-1,8
 422 28 422 28 454.5 41 c 128,-1,9
 487 54 487 54 513.5 70.5 c 128,-1,10
 540 87 540 87 557 106.5 c 128,-1,11
 574 126 574 126 575 148 c 0,12,13
 576 164 576 164 564.5 173.5 c 128,-1,14
 553 183 553 183 533 183 c 0,15,16
 503 183 503 183 472 166 c 128,-1,17
 441 149 441 149 406.5 128.5 c 128,-1,18
 372 108 372 108 332.5 91 c 128,-1,19
 293 74 293 74 248 74 c 0,20,21
 211 74 211 74 184.5 87.5 c 128,-1,22
 158 101 158 101 142 123.5 c 128,-1,23
 126 146 126 146 119.5 175 c 128,-1,24
 113 204 113 204 116 234 c 0,25,26
 118 293 118 293 139 346.5 c 128,-1,27
 160 400 160 400 194 448 c 128,-1,28
 228 496 228 496 272 539 c 128,-1,29
 316 582 316 582 364 620 c 0,30,31
 377 632 377 632 382.5 634.5 c 128,-1,32
 388 637 388 637 403 637 c 0,33,34
 423 637 423 637 432 628 c 128,-1,35
 441 619 441 619 445 606 c 128,-1,36
 449 593 449 593 450 577 c 128,-1,37
 451 561 451 561 455.5 548 c 128,-1,38
 460 535 460 535 469.5 526 c 128,-1,39
 479 517 479 517 500 517 c 0,40,41
 514 517 514 517 522 521.5 c 128,-1,42
 530 526 530 526 534 533.5 c 128,-1,43
 538 541 538 541 539.5 551.5 c 128,-1,44
 541 562 541 562 543 573 c 0,45,46
 544 594 544 594 540 623.5 c 128,-1,47
 536 653 536 653 524 679.5 c 128,-1,48
 512 706 512 706 492 725 c 128,-1,49
 472 744 472 744 443 744 c 0,50,51
 401 744 401 744 360 726 c 128,-1,52
 319 708 319 708 280.5 678.5 c 128,-1,53
 242 649 242 649 206.5 611 c 128,-1,54
 171 573 171 573 141 533.5 c 128,-1,55
 111 494 111 494 87.5 456.5 c 128,-1,56
 64 419 64 419 48 389 c 0,57,58
 28 351 28 351 22.5 307.5 c 128,-1,59
 17 264 17 264 14 226 c 0,0,1
EndSplineSet
Validated: 41
EndChar

StartChar: d
Encoding: 100 100 77
Width: 642
Flags: W
LayerCount: 2
Fore
SplineSet
49 36 m 0,0,1
 48 25 48 25 56 12.5 c 128,-1,2
 64 0 64 0 77 0 c 2,3,-1
 122 0 l 2,4,5
 223 0 223 0 313.5 35 c 128,-1,6
 404 70 404 70 473.5 130 c 128,-1,7
 543 190 543 190 585.5 270.5 c 128,-1,8
 628 351 628 351 632 443 c 2,9,-1
 633 456 l 2,10,11
 633 460 633 460 632.5 464.5 c 128,-1,12
 632 469 632 469 633 474 c 2,13,-1
 634 506 l 1,14,15
 621 565 621 565 575.5 611 c 128,-1,16
 530 657 530 657 468.5 688.5 c 128,-1,17
 407 720 407 720 337.5 736.5 c 128,-1,18
 268 753 268 753 208 753 c 0,19,20
 184 753 184 753 150.5 745 c 128,-1,21
 117 737 117 737 87 721.5 c 128,-1,22
 57 706 57 706 35 684 c 128,-1,23
 13 662 13 662 12 634 c 0,24,25
 10 620 10 620 18 611 c 128,-1,26
 26 602 26 602 40 602 c 0,27,28
 55 602 55 602 68 607 c 0,29,30
 77 611 77 611 94 611 c 0,31,32
 105 611 105 611 111 604 c 128,-1,33
 117 597 117 597 119.5 587.5 c 128,-1,34
 122 578 122 578 122.5 568.5 c 128,-1,35
 123 559 123 559 123 554 c 2,36,-1
 120 504 l 1,37,-1
 120 486 l 2,38,39
 120 482 120 482 120 477 c 0,40,41
 120 473 120 473 118 468 c 2,42,-1
 112 322 l 2,43,44
 110 311 110 311 109.5 303 c 128,-1,45
 109 295 109 295 108 286 c 2,46,-1
 105 216 l 2,47,48
 105 214 105 214 103.5 204.5 c 128,-1,49
 102 195 102 195 100.5 183 c 128,-1,50
 99 171 99 171 97 159.5 c 128,-1,51
 95 148 95 148 94 142 c 0,52,53
 91 129 91 129 84 115 c 128,-1,54
 77 101 77 101 69 87 c 128,-1,55
 61 73 61 73 55 60 c 128,-1,56
 49 47 49 47 49 36 c 0,0,1
201 127 m 1,57,-1
 201 129 l 2,58,59
 203 208 203 208 204 276 c 128,-1,60
 205 344 205 344 209 415 c 2,61,-1
 216 543 l 2,62,63
 217 554 217 554 217.5 565 c 128,-1,64
 218 576 218 576 218 584 c 2,65,-1
 221 629 l 1,66,-1
 229 643 l 1,67,-1
 231 645 l 1,68,-1
 235 645 l 2,69,70
 238 645 238 645 244.5 645.5 c 128,-1,71
 251 646 251 646 253 646 c 0,72,73
 311 646 311 646 363.5 631 c 128,-1,74
 416 616 416 616 455 587 c 128,-1,75
 494 558 494 558 516 516 c 128,-1,76
 538 474 538 474 536 421 c 0,77,78
 534 397 534 397 521 364 c 128,-1,79
 508 331 508 331 486.5 295 c 128,-1,80
 465 259 465 259 436.5 224 c 128,-1,81
 408 189 408 189 375.5 161 c 128,-1,82
 343 133 343 133 308.5 116 c 128,-1,83
 274 99 274 99 240 99 c 0,84,85
 211 99 211 99 201 127 c 1,57,-1
EndSplineSet
Validated: 41
EndChar

StartChar: e
Encoding: 101 101 78
Width: 611
Flags: W
AnchorPoint: "top" 307 807 basechar 0
LayerCount: 2
Fore
SplineSet
14 56 m 2,0,1
 12 36 12 36 20.5 25 c 128,-1,2
 29 14 29 14 43.5 8.5 c 128,-1,3
 58 3 58 3 75.5 1.5 c 128,-1,4
 93 0 93 0 110 0 c 2,5,-1
 146 0 l 2,6,7
 162 0 162 0 201 6 c 128,-1,8
 240 12 240 12 288.5 23 c 128,-1,9
 337 34 337 34 390 49.5 c 128,-1,10
 443 65 443 65 486.5 85 c 128,-1,11
 530 105 530 105 559 128 c 128,-1,12
 588 151 588 151 589 177 c 0,13,14
 590 195 590 195 582.5 206 c 128,-1,15
 575 217 575 217 552 217 c 0,16,17
 534 217 534 217 515.5 208.5 c 128,-1,18
 497 200 497 200 478 188 c 0,19,20
 473 183 473 183 466 179.5 c 128,-1,21
 459 176 459 176 452 173 c 0,22,23
 389 138 389 138 315 113 c 128,-1,24
 241 88 241 88 166 88 c 2,25,-1
 148 88 l 2,26,27
 141 88 141 88 139 91 c 128,-1,28
 137 94 137 94 130 99 c 1,29,-1
 130 100 l 1,30,-1
 131 148 l 2,31,32
 132 174 132 174 134 195 c 128,-1,33
 136 216 136 216 138 236.5 c 128,-1,34
 140 257 140 257 142.5 280 c 128,-1,35
 145 303 145 303 149 334 c 1,36,-1
 149 335 l 1,37,38
 155 343 155 343 170.5 347.5 c 128,-1,39
 186 352 186 352 209.5 355 c 128,-1,40
 233 358 233 358 262.5 359.5 c 128,-1,41
 292 361 292 361 325 363 c 0,42,43
 372 364 372 364 420.5 367 c 128,-1,44
 469 370 469 370 509 376.5 c 128,-1,45
 549 383 549 383 574.5 395.5 c 128,-1,46
 600 408 600 408 602 428 c 0,47,48
 603 467 603 467 560 467 c 0,49,50
 520 467 520 467 481 463 c 128,-1,51
 442 459 442 459 402 454 c 0,52,53
 361 449 361 449 321.5 445.5 c 128,-1,54
 282 442 282 442 242 442 c 2,55,-1
 224 442 l 2,56,57
 205 442 205 442 186.5 444.5 c 128,-1,58
 168 447 168 447 157 458 c 2,59,-1
 156 459 l 1,60,-1
 157 476 l 2,61,62
 157 479 157 479 156.5 481 c 128,-1,63
 156 483 156 483 156 487 c 2,64,-1
 157 493 l 1,65,66
 160 538 160 538 170.5 565.5 c 128,-1,67
 181 593 181 593 202.5 608 c 128,-1,68
 224 623 224 623 257 628.5 c 128,-1,69
 290 634 290 634 337 637 c 0,70,71
 350 637 350 637 380 637.5 c 128,-1,72
 410 638 410 638 445 640 c 0,73,74
 483 642 483 642 514.5 643.5 c 128,-1,75
 546 645 546 645 560 645 c 0,76,77
 573 646 573 646 586 654 c 128,-1,78
 599 662 599 662 599 675 c 0,79,80
 600 695 600 695 589 707.5 c 128,-1,81
 578 720 578 720 560 726.5 c 128,-1,82
 542 733 542 733 519.5 735.5 c 128,-1,83
 497 738 497 738 476 738 c 2,84,-1
 448 738 l 2,85,86
 441 738 441 738 435 738 c 0,87,88
 430 738 430 738 425 737 c 0,89,90
 417 737 417 737 411 736.5 c 128,-1,91
 405 736 405 736 400 736 c 0,92,93
 314 736 314 736 233 724 c 128,-1,94
 152 712 152 712 70 685 c 0,95,96
 47 676 47 676 42.5 665 c 128,-1,97
 38 654 38 654 36 637 c 0,98,99
 33 614 33 614 38 600 c 128,-1,100
 43 586 43 586 57 563 c 1,101,-1
 38 188 l 2,102,103
 35 183 35 183 32 168 c 128,-1,104
 29 153 29 153 26 135.5 c 128,-1,105
 23 118 23 118 20.5 101 c 128,-1,106
 18 84 18 84 17 75 c 0,107,108
 17 74 17 74 16.5 72.5 c 128,-1,109
 16 71 16 71 16 70 c 2,110,-1
 14 66 l 1,111,-1
 14 56 l 2,0,1
EndSplineSet
Validated: 41
EndChar

StartChar: f
Encoding: 102 102 79
Width: 611
Flags: W
LayerCount: 2
Fore
SplineSet
12 68 m 0,0,1
 11 54 11 54 13 42 c 128,-1,2
 15 30 15 30 20 20.5 c 128,-1,3
 25 11 25 11 35 5.5 c 128,-1,4
 45 0 45 0 61 0 c 0,5,6
 79 0 79 0 91.5 22.5 c 128,-1,7
 104 45 104 45 113.5 78 c 128,-1,8
 123 111 123 111 130 150 c 128,-1,9
 137 189 137 189 143 222 c 0,10,11
 147 247 147 247 150.5 267.5 c 128,-1,12
 154 288 154 288 157 296 c 2,13,-1
 157 298 l 1,14,15
 161 306 161 306 197 312.5 c 128,-1,16
 233 319 233 319 283 326 c 0,17,18
 324 332 324 332 369 339 c 128,-1,19
 414 346 414 346 452 356.5 c 128,-1,20
 490 367 490 367 515 381.5 c 128,-1,21
 540 396 540 396 542 417 c 0,22,23
 543 437 543 437 529 444.5 c 128,-1,24
 515 452 515 452 495 452 c 0,25,26
 468 452 468 452 439.5 446.5 c 128,-1,27
 411 441 411 441 383 433 c 0,28,29
 381 432 381 432 378.5 431 c 128,-1,30
 376 430 376 430 373 430 c 256,31,32
 370 430 370 430 368 429.5 c 128,-1,33
 366 429 366 429 364 428 c 0,34,35
 332 417 332 417 298 410.5 c 128,-1,36
 264 404 264 404 226 404 c 2,37,-1
 190 404 l 1,38,-1
 179 417 l 2,39,40
 178 421 178 421 178 425 c 0,41,42
 178 426 178 426 178 428 c 0,43,44
 178 431 178 431 179 434 c 0,45,46
 179 437 179 437 178.5 437.5 c 128,-1,47
 178 438 178 438 178 439 c 2,48,-1
 179 458 l 2,49,50
 180 478 180 478 183 504.5 c 128,-1,51
 186 531 186 531 195 555.5 c 128,-1,52
 204 580 204 580 222 597.5 c 128,-1,53
 240 615 240 615 273 617 c 0,54,55
 348 628 348 628 424.5 633.5 c 128,-1,56
 501 639 501 639 578 642 c 0,57,58
 586 645 586 645 596 650.5 c 128,-1,59
 606 656 606 656 606 667 c 0,60,61
 607 685 607 685 598 695.5 c 128,-1,62
 589 706 589 706 573.5 711.5 c 128,-1,63
 558 717 558 717 539.5 718.5 c 128,-1,64
 521 720 521 720 503 720 c 2,65,-1
 416 720 l 2,66,67
 408 720 408 720 400 720.5 c 128,-1,68
 392 721 392 721 383 721 c 0,69,70
 343 721 343 721 298 718.5 c 128,-1,71
 253 716 253 716 212 707.5 c 128,-1,72
 171 699 171 699 137.5 683.5 c 128,-1,73
 104 668 104 668 88 643 c 0,74,75
 81 629 81 629 79 619 c 128,-1,76
 77 609 77 609 77 598 c 2,77,-1
 77 542 l 2,78,79
 77 534 77 534 75 515 c 128,-1,80
 73 496 73 496 70.5 475 c 128,-1,81
 68 454 68 454 65 436 c 128,-1,82
 62 418 62 418 61 411 c 2,83,-1
 61 408 l 1,84,85
 57 401 57 401 53.5 396 c 128,-1,86
 50 391 50 391 45 383 c 1,87,-1
 44 383 l 1,88,89
 36 372 36 372 31.5 361.5 c 128,-1,90
 27 351 27 351 26 337 c 2,91,-1
 26 334 l 2,92,93
 25 323 25 323 26 314.5 c 128,-1,94
 27 306 27 306 38 299 c 2,95,-1
 39 298 l 1,96,-1
 40 296 l 1,97,-1
 38 269 l 1,98,-1
 38 257 l 2,99,100
 36 234 36 234 33 210.5 c 128,-1,101
 30 187 30 187 26 164 c 0,102,103
 25 162 25 162 25 157 c 0,104,105
 25 156 25 156 24 154.5 c 128,-1,106
 23 153 23 153 22 151 c 0,107,108
 19 130 19 130 17 110 c 128,-1,109
 15 90 15 90 12 68 c 0,0,1
EndSplineSet
Validated: 9
EndChar

StartChar: g
Encoding: 103 103 80
Width: 662
Flags: W
LayerCount: 2
Fore
SplineSet
16 294 m 0,0,1
 12 231 12 231 32.5 177 c 128,-1,2
 53 123 53 123 94.5 84 c 128,-1,3
 136 45 136 45 195 22.5 c 128,-1,4
 254 0 254 0 326 0 c 0,5,6
 392 0 392 0 449.5 25.5 c 128,-1,7
 507 51 507 51 550 93 c 128,-1,8
 593 135 593 135 619 188.5 c 128,-1,9
 645 242 645 242 647 298 c 0,10,11
 648 318 648 318 646 346.5 c 128,-1,12
 644 375 644 375 634.5 401.5 c 128,-1,13
 625 428 625 428 607 446.5 c 128,-1,14
 589 465 589 465 560 465 c 0,15,16
 557 465 557 465 547 464.5 c 128,-1,17
 537 464 537 464 534 464 c 0,18,19
 526 461 526 461 503.5 454.5 c 128,-1,20
 481 448 481 448 456 440.5 c 128,-1,21
 431 433 431 433 409 426 c 128,-1,22
 387 419 387 419 380 415 c 0,23,24
 360 411 360 411 341 406.5 c 128,-1,25
 322 402 322 402 306 393.5 c 128,-1,26
 290 385 290 385 279.5 371.5 c 128,-1,27
 269 358 269 358 268 335 c 0,28,29
 268 317 268 317 284 312 c 128,-1,30
 300 307 300 307 315 307 c 0,31,32
 361 307 361 307 406.5 324.5 c 128,-1,33
 452 342 452 342 490 363 c 1,34,-1
 502 363 l 2,35,36
 513 363 513 363 524.5 354 c 128,-1,37
 536 345 536 345 536 334 c 2,38,-1
 528 226 l 2,39,40
 526 197 526 197 501 175 c 128,-1,41
 476 153 476 153 441.5 138.5 c 128,-1,42
 407 124 407 124 371.5 116.5 c 128,-1,43
 336 109 336 109 315 109 c 0,44,45
 276 109 276 109 240 121.5 c 128,-1,46
 204 134 204 134 176.5 156.5 c 128,-1,47
 149 179 149 179 133.5 209.5 c 128,-1,48
 118 240 118 240 121 276 c 0,49,50
 123 324 123 324 143.5 363.5 c 128,-1,51
 164 403 164 403 195 437.5 c 128,-1,52
 226 472 226 472 264.5 503.5 c 128,-1,53
 303 535 303 535 341 567 c 0,54,55
 352 576 352 576 367 586.5 c 128,-1,56
 382 597 382 597 399.5 606.5 c 128,-1,57
 417 616 417 616 434.5 622.5 c 128,-1,58
 452 629 452 629 467 629 c 0,59,60
 471 629 471 629 475.5 628.5 c 128,-1,61
 480 628 480 628 481 627 c 2,62,-1
 532 586 l 1,63,64
 532 586 532 586 537 585.5 c 128,-1,65
 542 585 542 585 546 585 c 0,66,67
 566 585 566 585 584.5 592 c 128,-1,68
 603 599 603 599 619 614 c 1,69,-1
 619 637 l 2,70,71
 622 687 622 687 589 715.5 c 128,-1,72
 556 744 556 744 502 744 c 0,73,74
 451 744 451 744 396 723 c 128,-1,75
 341 702 341 702 287.5 666.5 c 128,-1,76
 234 631 234 631 185 584.5 c 128,-1,77
 136 538 136 538 99 488 c 128,-1,78
 62 438 62 438 39.5 387.5 c 128,-1,79
 17 337 17 337 16 294 c 0,0,1
EndSplineSet
Validated: 41
EndChar

StartChar: h
Encoding: 104 104 81
Width: 629
Flags: W
LayerCount: 2
Fore
SplineSet
445 34 m 0,0,1
 445 0 445 0 482 0 c 0,2,3
 517 0 517 0 527.5 16 c 128,-1,4
 538 32 538 32 543 61 c 0,5,6
 545 74 545 74 545.5 101 c 128,-1,7
 546 128 546 128 549 162 c 2,8,-1
 552 234 l 1,9,-1
 555 308 l 2,10,11
 558 343 558 343 560 370 c 128,-1,12
 562 397 562 397 562 409 c 0,13,14
 562 413 562 413 564 431.5 c 128,-1,15
 566 450 566 450 568.5 472 c 128,-1,16
 571 494 571 494 573.5 514.5 c 128,-1,17
 576 535 576 535 577 545 c 0,18,19
 579 567 579 567 584.5 589.5 c 128,-1,20
 590 612 590 612 596.5 634.5 c 128,-1,21
 603 657 603 657 608.5 679.5 c 128,-1,22
 614 702 614 702 616 723 c 0,23,24
 617 746 617 746 607.5 759 c 128,-1,25
 598 772 598 772 571 772 c 0,26,27
 543 772 543 772 528 751 c 128,-1,28
 513 730 513 730 504.5 698 c 128,-1,29
 496 666 496 666 491.5 628 c 128,-1,30
 487 590 487 590 481 555.5 c 128,-1,31
 475 521 475 521 465 496 c 128,-1,32
 455 471 455 471 435 464 c 2,33,-1
 235 409 l 2,34,35
 228 407 228 407 217.5 405 c 128,-1,36
 207 403 207 403 204 403 c 0,37,38
 196 403 196 403 193 411 c 128,-1,39
 190 419 190 419 190 428 c 0,40,41
 190 436 190 436 190.5 445 c 128,-1,42
 191 454 191 454 191 455 c 0,43,44
 194 509 194 509 204.5 560.5 c 128,-1,45
 215 612 215 612 218 667 c 0,46,47
 219 674 219 674 217.5 683 c 128,-1,48
 216 692 216 692 211.5 699.5 c 128,-1,49
 207 707 207 707 199.5 712.5 c 128,-1,50
 192 718 192 718 181 718 c 0,51,52
 165 718 165 718 152.5 709.5 c 128,-1,53
 140 701 140 701 131 688.5 c 128,-1,54
 122 676 122 676 116.5 662 c 128,-1,55
 111 648 111 648 110 636 c 0,56,57
 110 630 110 630 108 609.5 c 128,-1,58
 106 589 106 589 103 565 c 128,-1,59
 100 541 100 541 98 518 c 128,-1,60
 96 495 96 495 96 485 c 0,61,62
 96 481 96 481 95 472.5 c 128,-1,63
 94 464 94 464 93.5 453.5 c 128,-1,64
 93 443 93 443 92 432 c 128,-1,65
 91 421 91 421 91 413 c 2,66,-1
 91 395 l 1,67,68
 82 385 82 385 68.5 379 c 128,-1,69
 55 373 55 373 42.5 367 c 128,-1,70
 30 361 30 361 20.5 352.5 c 128,-1,71
 11 344 11 344 10 329 c 0,72,73
 8 311 8 311 19.5 301.5 c 128,-1,74
 31 292 31 292 45.5 285.5 c 128,-1,75
 60 279 60 279 72 271.5 c 128,-1,76
 84 264 84 264 84 251 c 2,77,-1
 74 55 l 2,78,79
 73 38 73 38 84.5 28.5 c 128,-1,80
 96 19 96 19 113 19 c 0,81,82
 135 19 135 19 148.5 39 c 128,-1,83
 162 59 162 59 168.5 89 c 128,-1,84
 175 119 175 119 177 153.5 c 128,-1,85
 179 188 179 188 179 217 c 0,86,87
 179 239 179 239 180 254 c 128,-1,88
 181 269 181 269 183 278 c 0,89,90
 188 285 188 285 194 288 c 128,-1,91
 200 291 200 291 207 294 c 0,92,93
 226 299 226 299 251.5 308 c 128,-1,94
 277 317 277 317 305 326 c 128,-1,95
 333 335 333 335 361 341.5 c 128,-1,96
 389 348 389 348 415 348 c 0,97,98
 416 348 416 348 420.5 348.5 c 128,-1,99
 425 349 425 349 430 349 c 0,100,101
 436 349 436 349 440.5 347.5 c 128,-1,102
 445 346 445 346 445 342 c 0,103,104
 445 339 445 339 445.5 330 c 128,-1,105
 446 321 446 321 446.5 311 c 128,-1,106
 447 301 447 301 447.5 291.5 c 128,-1,107
 448 282 448 282 448 278 c 0,108,109
 448 269 448 269 448 250 c 256,110,111
 448 231 448 231 447.5 207 c 128,-1,112
 447 183 447 183 446.5 156 c 128,-1,113
 446 129 446 129 445.5 105 c 128,-1,114
 445 81 445 81 445 62 c 256,115,116
 445 43 445 43 445 34 c 0,0,1
EndSplineSet
Validated: 41
EndChar

StartChar: i
Encoding: 105 105 82
Width: 177
Flags: W
AnchorPoint: "top" 113 787 basechar 0
LayerCount: 2
Fore
SplineSet
6 34 m 1,0,1
 11 11 11 11 22 5.5 c 128,-1,2
 33 0 33 0 56 0 c 0,3,4
 76 0 76 0 90 11 c 128,-1,5
 104 22 104 22 107 40 c 0,6,7
 129 169 129 169 142 292.5 c 128,-1,8
 155 416 155 416 162 545 c 1,9,-1
 164 567 l 2,10,11
 165 580 165 580 165.5 597 c 128,-1,12
 166 614 166 614 166 627 c 2,13,-1
 168 649 l 2,14,15
 168 660 168 660 165 672.5 c 128,-1,16
 162 685 162 685 155.5 695 c 128,-1,17
 149 705 149 705 138.5 711.5 c 128,-1,18
 128 718 128 718 113 718 c 0,19,20
 99 718 99 718 90.5 712 c 128,-1,21
 82 706 82 706 71 689 c 1,22,23
 67 617 67 617 58.5 544.5 c 128,-1,24
 50 472 50 472 40 399.5 c 128,-1,25
 30 327 30 327 21.5 254 c 128,-1,26
 13 181 13 181 9 109 c 1,27,-1
 9 94 l 2,28,29
 8 89 8 89 8 83 c 256,30,31
 8 77 8 77 8 71 c 0,32,33
 8 66 8 66 8 60 c 256,34,35
 8 54 8 54 6 48 c 2,36,-1
 6 34 l 1,0,1
EndSplineSet
Validated: 9
EndChar

StartChar: j
Encoding: 106 106 83
Width: 564
Flags: W
LayerCount: 2
Fore
SplineSet
6 204 m 0,0,1
 5 176 5 176 22 150.5 c 128,-1,2
 39 125 39 125 68 102.5 c 128,-1,3
 97 80 97 80 134 61 c 128,-1,4
 171 42 171 42 209 28.5 c 128,-1,5
 247 15 247 15 282.5 7.5 c 128,-1,6
 318 0 318 0 344 0 c 0,7,8
 376 0 376 0 402.5 17 c 128,-1,9
 429 34 429 34 450 60.5 c 128,-1,10
 471 87 471 87 487 121 c 128,-1,11
 503 155 503 155 513.5 189.5 c 128,-1,12
 524 224 524 224 530 255 c 128,-1,13
 536 286 536 286 537 308 c 2,14,-1
 550 545 l 2,15,16
 551 555 551 555 550 574.5 c 128,-1,17
 549 594 549 594 545 617 c 128,-1,18
 541 640 541 640 534.5 664 c 128,-1,19
 528 688 528 688 518.5 708 c 128,-1,20
 509 728 509 728 495.5 740.5 c 128,-1,21
 482 753 482 753 465 753 c 0,22,23
 438 753 438 753 429.5 734.5 c 128,-1,24
 421 716 421 716 420 695 c 0,25,26
 418 657 418 657 422.5 620.5 c 128,-1,27
 427 584 427 584 432 547 c 128,-1,28
 437 510 437 510 441.5 473.5 c 128,-1,29
 446 437 446 437 445 399 c 0,30,31
 444 381 444 381 441 354 c 128,-1,32
 438 327 438 327 432.5 296 c 128,-1,33
 427 265 427 265 417.5 234 c 128,-1,34
 408 203 408 203 393.5 178 c 128,-1,35
 379 153 379 153 359.5 137.5 c 128,-1,36
 340 122 340 122 313 122 c 0,37,38
 269 122 269 122 230.5 141.5 c 128,-1,39
 192 161 192 161 159.5 184.5 c 128,-1,40
 127 208 127 208 99 227.5 c 128,-1,41
 71 247 71 247 48 247 c 0,42,43
 29 247 29 247 18.5 233.5 c 128,-1,44
 8 220 8 220 6 204 c 0,0,1
EndSplineSet
Validated: 41
EndChar

StartChar: k
Encoding: 107 107 84
Width: 547
Flags: W
LayerCount: 2
Fore
SplineSet
13 21 m 0,0,1
 14 6 14 6 25.5 3 c 128,-1,2
 37 0 37 0 52 0 c 0,3,4
 77 0 77 0 91.5 24 c 128,-1,5
 106 48 106 48 113.5 83 c 128,-1,6
 121 118 121 118 123.5 157 c 128,-1,7
 126 196 126 196 129 225 c 2,8,-1
 129 244 l 2,9,10
 129 261 129 261 134.5 264.5 c 128,-1,11
 140 268 140 268 148 268 c 0,12,13
 177 268 177 268 204.5 251 c 128,-1,14
 232 234 232 234 259 209 c 128,-1,15
 286 184 286 184 313 154 c 128,-1,16
 340 124 340 124 368 99 c 128,-1,17
 396 74 396 74 424.5 57 c 128,-1,18
 453 40 453 40 484 40 c 0,19,20
 504 40 504 40 518 49.5 c 128,-1,21
 532 59 532 59 533 79 c 0,22,23
 534 100 534 100 512.5 123 c 128,-1,24
 491 146 491 146 459 169 c 0,25,26
 426 192 426 192 388 215.5 c 128,-1,27
 350 239 350 239 317 261.5 c 128,-1,28
 284 284 284 284 262.5 305 c 128,-1,29
 241 326 241 326 243 344 c 2,30,-1
 243 347 l 1,31,32
 263 364 263 364 292 389.5 c 128,-1,33
 321 415 321 415 352.5 445 c 128,-1,34
 384 475 384 475 414.5 508.5 c 128,-1,35
 445 542 445 542 470 575.5 c 128,-1,36
 495 609 495 609 511.5 642 c 128,-1,37
 528 675 528 675 529 703 c 0,38,39
 529 719 529 719 524 728 c 128,-1,40
 519 737 519 737 500 737 c 2,41,-1
 482 737 l 2,42,43
 478 737 478 737 474.5 735 c 128,-1,44
 471 733 471 733 467 731 c 0,45,46
 408 656 408 656 347.5 587 c 128,-1,47
 287 518 287 518 212 458 c 0,48,49
 205 453 205 453 190.5 445 c 128,-1,50
 176 437 176 437 168 437 c 2,51,-1
 165 437 l 2,52,53
 157 439 157 439 157 443 c 0,54,55
 157 452 157 452 156 476.5 c 128,-1,56
 155 501 155 501 154 528.5 c 128,-1,57
 153 556 153 556 152 580.5 c 128,-1,58
 151 605 151 605 151 614 c 0,59,60
 151 624 151 624 150.5 641 c 128,-1,61
 150 658 150 658 145.5 674.5 c 128,-1,62
 141 691 141 691 130 703.5 c 128,-1,63
 119 716 119 716 99 716 c 0,64,65
 87 716 87 716 77 709 c 128,-1,66
 67 702 67 702 58.5 691.5 c 128,-1,67
 50 681 50 681 44.5 669.5 c 128,-1,68
 39 658 39 658 38 649 c 2,69,-1
 38 511 l 2,70,71
 38 492 38 492 36.5 454 c 128,-1,72
 35 416 35 416 32 368 c 2,73,-1
 26 266 l 1,74,-1
 22 165 l 2,75,76
 19 115 19 115 16.5 77 c 128,-1,77
 14 39 14 39 13 21 c 0,0,1
EndSplineSet
Validated: 41
EndChar

StartChar: l
Encoding: 108 108 85
Width: 520
Flags: W
LayerCount: 2
Fore
SplineSet
17 227 m 1,0,-1
 17 195 l 2,1,2
 16 185 16 185 16 175 c 0,3,4
 16 166 16 166 16 157 c 0,5,6
 16 149 16 149 16 140 c 256,7,8
 16 131 16 131 14 122 c 2,9,-1
 13 105 l 2,10,11
 11 91 11 91 14 73 c 128,-1,12
 17 55 17 55 25 39 c 128,-1,13
 33 23 33 23 47 11.5 c 128,-1,14
 61 0 61 0 82 0 c 2,15,-1
 87 0 l 2,16,17
 96 1 96 1 117.5 4.5 c 128,-1,18
 139 8 139 8 161.5 12 c 128,-1,19
 184 16 184 16 203 19 c 128,-1,20
 222 22 222 22 227 23 c 0,21,22
 246 26 246 26 274 31.5 c 128,-1,23
 302 37 302 37 334 45.5 c 128,-1,24
 366 54 366 54 398 65 c 128,-1,25
 430 76 430 76 456 91 c 128,-1,26
 482 106 482 106 499 124 c 128,-1,27
 516 142 516 142 517 164 c 0,28,29
 519 184 519 184 509 191 c 128,-1,30
 499 198 499 198 473 198 c 0,31,32
 470 198 470 198 460.5 197 c 128,-1,33
 451 196 451 196 448 195 c 0,34,35
 416 183 416 183 385 170 c 128,-1,36
 354 157 354 157 322 146 c 128,-1,37
 290 135 290 135 257.5 128 c 128,-1,38
 225 121 225 121 191 121 c 2,39,-1
 155 121 l 1,40,41
 140 125 140 125 135 141.5 c 128,-1,42
 130 158 130 158 130 177 c 0,43,44
 130 197 130 197 132 215 c 128,-1,45
 134 233 134 233 134 240 c 0,46,47
 136 300 136 300 145 359 c 128,-1,48
 154 418 154 418 164 476.5 c 128,-1,49
 174 535 174 535 182.5 593.5 c 128,-1,50
 191 652 191 652 194 710 c 0,51,52
 194 717 194 717 194.5 726 c 128,-1,53
 195 735 195 735 193 743.5 c 128,-1,54
 191 752 191 752 185 757.5 c 128,-1,55
 179 763 179 763 166 763 c 0,56,57
 146 763 146 763 133.5 754.5 c 128,-1,58
 121 746 121 746 113.5 733 c 128,-1,59
 106 720 106 720 102 705 c 128,-1,60
 98 690 98 690 97 677 c 0,61,62
 92 654 92 654 84.5 620 c 128,-1,63
 77 586 77 586 69 547.5 c 128,-1,64
 61 509 61 509 53.5 470.5 c 128,-1,65
 46 432 46 432 39.5 400.5 c 128,-1,66
 33 369 33 369 29 348 c 128,-1,67
 25 327 25 327 25 324 c 2,68,-1
 23 309 l 2,69,70
 23 301 23 301 22 285.5 c 128,-1,71
 21 270 21 270 19 251 c 2,72,-1
 17 227 l 1,0,-1
EndSplineSet
Validated: 41
EndChar

StartChar: m
Encoding: 109 109 86
Width: 612
Flags: W
LayerCount: 2
Fore
SplineSet
10 21 m 1,0,1
 17 14 17 14 25 7 c 128,-1,2
 33 0 33 0 44 0 c 0,3,4
 61 0 61 0 75.5 9.5 c 128,-1,5
 90 19 90 19 95 34 c 0,6,7
 106 100 106 100 118 166.5 c 128,-1,8
 130 233 130 233 147 299 c 0,9,10
 148 304 148 304 151.5 312 c 128,-1,11
 155 320 155 320 156 321 c 2,12,-1
 159 321 l 2,13,14
 170 321 170 321 178 307 c 128,-1,15
 186 293 186 293 192 272.5 c 128,-1,16
 198 252 198 252 204.5 228 c 128,-1,17
 211 204 211 204 220 183.5 c 128,-1,18
 229 163 229 163 242.5 149 c 128,-1,19
 256 135 256 135 277 135 c 0,20,21
 303 135 303 135 325 153 c 128,-1,22
 347 171 347 171 366 197.5 c 128,-1,23
 385 224 385 224 401.5 255.5 c 128,-1,24
 418 287 418 287 432 313.5 c 128,-1,25
 446 340 446 340 458 358 c 128,-1,26
 470 376 470 376 481 376 c 1,27,28
 481 376 481 376 482.5 375 c 128,-1,29
 484 374 484 374 485 374 c 1,30,31
 485 371 485 371 485.5 362.5 c 128,-1,32
 486 354 486 354 487 344 c 128,-1,33
 488 334 488 334 488.5 325 c 128,-1,34
 489 316 489 316 489 313 c 2,35,-1
 487 300 l 1,36,37
 485 249 485 249 479 198.5 c 128,-1,38
 473 148 473 148 471 96 c 2,39,-1
 467 40 l 1,40,41
 478 26 478 26 497 26 c 0,42,43
 512 26 512 26 523 35 c 128,-1,44
 534 44 534 44 545 55 c 1,45,46
 559 116 559 116 567 177 c 128,-1,47
 575 238 575 238 579.5 300 c 128,-1,48
 584 362 584 362 587 424.5 c 128,-1,49
 590 487 590 487 593 550 c 2,50,-1
 595 580 l 2,51,52
 597 591 597 591 597 602 c 0,53,54
 597 614 597 614 597 625 c 0,55,56
 597 638 597 638 597 649 c 0,57,58
 597 661 597 661 598 672 c 2,59,-1
 601 703 l 1,60,61
 590 737 590 737 551 737 c 0,62,63
 537 737 537 737 525 726 c 128,-1,64
 513 715 513 715 503.5 700.5 c 128,-1,65
 494 686 494 686 487 671 c 128,-1,66
 480 656 480 656 476 649 c 0,67,68
 473 643 473 643 463.5 620.5 c 128,-1,69
 454 598 454 598 442.5 572.5 c 128,-1,70
 431 547 431 547 421 525 c 128,-1,71
 411 503 411 503 407 498 c 0,72,73
 406 495 406 495 395.5 475 c 128,-1,74
 385 455 385 455 371.5 430 c 128,-1,75
 358 405 358 405 344.5 380 c 128,-1,76
 331 355 331 355 324 342 c 0,77,78
 322 338 322 338 318.5 330.5 c 128,-1,79
 315 323 315 323 310.5 316 c 128,-1,80
 306 309 306 309 300.5 304 c 128,-1,81
 295 299 295 299 289 299 c 0,82,83
 281 299 281 299 275 308.5 c 128,-1,84
 269 318 269 318 264.5 330 c 128,-1,85
 260 342 260 342 258 352 c 128,-1,86
 256 362 256 362 256 363 c 0,87,88
 252 376 252 376 245.5 399.5 c 128,-1,89
 239 423 239 423 233 447 c 128,-1,90
 227 471 227 471 222.5 489.5 c 128,-1,91
 218 508 218 508 218 511 c 256,92,93
 218 514 218 514 216.5 527.5 c 128,-1,94
 215 541 215 541 213.5 557.5 c 128,-1,95
 212 574 212 574 210.5 589.5 c 128,-1,96
 209 605 209 605 209 614 c 0,97,98
 208 619 208 619 207.5 633.5 c 128,-1,99
 207 648 207 648 207 664 c 2,100,-1
 207 716 l 1,101,102
 202 727 202 727 192.5 729 c 128,-1,103
 183 731 183 731 172 731 c 0,104,105
 151 731 151 731 139 719.5 c 128,-1,106
 127 708 127 708 122 689 c 0,107,108
 120 679 120 679 115 658.5 c 128,-1,109
 110 638 110 638 105 616.5 c 128,-1,110
 100 595 100 595 96 576.5 c 128,-1,111
 92 558 92 558 92 552 c 0,112,113
 91 543 91 543 86.5 515 c 128,-1,114
 82 487 82 487 76.5 450 c 128,-1,115
 71 413 71 413 64.5 371 c 128,-1,116
 58 329 58 329 52 292 c 128,-1,117
 46 255 46 255 42 228 c 128,-1,118
 38 201 38 201 36 192 c 0,119,120
 36 189 36 189 33 175.5 c 128,-1,121
 30 162 30 162 26 146.5 c 128,-1,122
 22 131 22 131 19 117.5 c 128,-1,123
 16 104 16 104 16 101 c 2,124,-1
 16 97 l 2,125,126
 14 90 14 90 13.5 84.5 c 128,-1,127
 13 79 13 79 13 71 c 2,128,-1
 12 61 l 1,129,-1
 12 52 l 2,130,131
 10 48 10 48 11 42 c 128,-1,132
 12 36 12 36 10 29 c 2,133,-1
 10 21 l 1,0,1
EndSplineSet
Validated: 9
EndChar

StartChar: n
Encoding: 110 110 87
Width: 517
Flags: W
LayerCount: 2
Fore
SplineSet
10 68 m 0,0,1
 11 57 11 57 14 45 c 128,-1,2
 17 33 17 33 23 23 c 128,-1,3
 29 13 29 13 38.5 6.5 c 128,-1,4
 48 0 48 0 64 0 c 0,5,6
 75 0 75 0 91 6.5 c 128,-1,7
 107 13 107 13 108 27 c 2,8,-1
 123 334 l 1,9,-1
 146 334 l 1,10,11
 146 334 146 334 153 320 c 128,-1,12
 160 306 160 306 170 286.5 c 128,-1,13
 180 267 180 267 190.5 246 c 128,-1,14
 201 225 201 225 208 212 c 2,15,-1
 242 136 l 2,16,17
 245 131 245 131 251.5 117.5 c 128,-1,18
 258 104 258 104 265.5 89 c 128,-1,19
 273 74 273 74 280 60 c 128,-1,20
 287 46 287 46 290 40 c 0,21,22
 308 19 308 19 337 19 c 0,23,24
 350 19 350 19 359.5 26.5 c 128,-1,25
 369 34 369 34 375 44.5 c 128,-1,26
 381 55 381 55 385 67 c 128,-1,27
 389 79 389 79 391 88 c 0,28,29
 409 163 409 163 428 237 c 128,-1,30
 447 311 447 311 463.5 385 c 128,-1,31
 480 459 480 459 492 534 c 128,-1,32
 504 609 504 609 508 686 c 1,33,-1
 508 751 l 2,34,35
 508 767 508 767 496 779.5 c 128,-1,36
 484 792 484 792 465 792 c 0,37,38
 450 792 450 792 439.5 781.5 c 128,-1,39
 429 771 429 771 422.5 757 c 128,-1,40
 416 743 416 743 412.5 728 c 128,-1,41
 409 713 409 713 408 703 c 0,42,43
 405 689 405 689 400.5 660 c 128,-1,44
 396 631 396 631 390.5 595 c 128,-1,45
 385 559 385 559 379 518.5 c 128,-1,46
 373 478 373 478 367.5 442 c 128,-1,47
 362 406 362 406 358 377 c 128,-1,48
 354 348 354 348 352 334 c 0,49,50
 350 325 350 325 347 308 c 128,-1,51
 344 291 344 291 339 273.5 c 128,-1,52
 334 256 334 256 326.5 243 c 128,-1,53
 319 230 319 230 308 230 c 0,54,55
 301 230 301 230 298 232.5 c 128,-1,56
 295 235 295 235 293.5 239 c 128,-1,57
 292 243 292 243 290.5 248.5 c 128,-1,58
 289 254 289 254 286 260 c 0,59,60
 269 298 269 298 253 342.5 c 128,-1,61
 237 387 237 387 226 422 c 0,62,63
 224 431 224 431 219.5 453.5 c 128,-1,64
 215 476 215 476 210.5 500 c 128,-1,65
 206 524 206 524 201.5 545 c 128,-1,66
 197 566 197 566 196 573 c 0,67,68
 194 581 194 581 193 602.5 c 128,-1,69
 192 624 192 624 191.5 648 c 128,-1,70
 191 672 191 672 190.5 693.5 c 128,-1,71
 190 715 190 715 190 723 c 0,72,73
 186 737 186 737 171.5 747 c 128,-1,74
 157 757 157 757 142 757 c 256,75,76
 127 757 127 757 115.5 745.5 c 128,-1,77
 104 734 104 734 99 723 c 0,78,79
 64 586 64 586 43 448.5 c 128,-1,80
 22 311 22 311 14 170 c 2,81,-1
 13 149 l 2,82,83
 12 138 12 138 12 127 c 256,84,85
 12 116 12 116 12 103 c 256,86,87
 12 90 12 90 12 81 c 0,88,89
 12 73 12 73 10 68 c 0,0,1
EndSplineSet
Validated: 9
EndChar

StartChar: o
Encoding: 111 111 88
Width: 702
Flags: W
AnchorPoint: "top" 427 800 basechar 0
LayerCount: 2
Fore
SplineSet
14 283 m 0,0,1
 12 239 12 239 19 194.5 c 128,-1,2
 26 150 26 150 45.5 111 c 128,-1,3
 65 72 65 72 98.5 42.5 c 128,-1,4
 132 13 132 13 183 0 c 1,5,-1
 251 0 l 2,6,7
 311 0 311 0 361 15.5 c 128,-1,8
 411 31 411 31 452.5 59.5 c 128,-1,9
 494 88 494 88 527.5 128 c 128,-1,10
 561 168 561 168 588 217 c 0,11,12
 624 281 624 281 653 344.5 c 128,-1,13
 682 408 682 408 686 478 c 0,14,15
 689 521 689 521 676.5 566 c 128,-1,16
 664 611 664 611 637 647.5 c 128,-1,17
 610 684 610 684 568.5 707.5 c 128,-1,18
 527 731 527 731 472 731 c 0,19,20
 447 731 447 731 424 724.5 c 128,-1,21
 401 718 401 718 378 710 c 0,22,23
 303 679 303 679 238.5 636.5 c 128,-1,24
 174 594 174 594 125.5 541 c 128,-1,25
 77 488 77 488 47.5 423.5 c 128,-1,26
 18 359 18 359 14 283 c 0,0,1
113 261 m 0,27,28
 116 323 116 323 142 388 c 128,-1,29
 168 453 168 453 213.5 506 c 128,-1,30
 259 559 259 559 321.5 593 c 128,-1,31
 384 627 384 627 461 627 c 0,32,33
 499 627 499 627 525 612 c 128,-1,34
 551 597 551 597 567 573 c 128,-1,35
 583 549 583 549 589.5 519.5 c 128,-1,36
 596 490 596 490 595 461 c 0,37,38
 594 431 594 431 579.5 391.5 c 128,-1,39
 565 352 565 352 540.5 310 c 128,-1,40
 516 268 516 268 484 227 c 128,-1,41
 452 186 452 186 415 153.5 c 128,-1,42
 378 121 378 121 338 101 c 128,-1,43
 298 81 298 81 259 81 c 0,44,45
 214 81 214 81 184.5 96 c 128,-1,46
 155 111 155 111 138.5 136 c 128,-1,47
 122 161 122 161 116.5 193.5 c 128,-1,48
 111 226 111 226 113 261 c 0,27,28
EndSplineSet
Validated: 41
EndChar

StartChar: p
Encoding: 112 112 89
Width: 615
Flags: W
LayerCount: 2
Fore
SplineSet
10 26 m 1,0,1
 17 15 17 15 24 7.5 c 128,-1,2
 31 0 31 0 45 0 c 0,3,4
 54 0 54 0 63.5 2.5 c 128,-1,5
 73 5 73 5 81 9 c 128,-1,6
 89 13 89 13 95 19 c 128,-1,7
 101 25 101 25 101 32 c 2,8,-1
 125 191 l 2,9,10
 125 194 125 194 149 202.5 c 128,-1,11
 173 211 173 211 210 224.5 c 128,-1,12
 247 238 247 238 292 255.5 c 128,-1,13
 337 273 337 273 380 293.5 c 128,-1,14
 423 314 423 314 458.5 338 c 128,-1,15
 494 362 494 362 511 389 c 0,16,17
 529 415 529 415 545.5 439 c 128,-1,18
 562 463 562 463 575 487 c 128,-1,19
 588 511 588 511 596 536.5 c 128,-1,20
 604 562 604 562 606 591 c 0,21,22
 608 630 608 630 591.5 659.5 c 128,-1,23
 575 689 575 689 546.5 709.5 c 128,-1,24
 518 730 518 730 481 740.5 c 128,-1,25
 444 751 444 751 404 751 c 0,26,27
 381 751 381 751 346.5 748 c 128,-1,28
 312 745 312 745 273.5 738 c 128,-1,29
 235 731 235 731 197 720 c 128,-1,30
 159 709 159 709 127.5 693.5 c 128,-1,31
 96 678 96 678 76.5 658 c 128,-1,32
 57 638 57 638 55 612 c 0,33,34
 55 602 55 602 58.5 593.5 c 128,-1,35
 62 585 62 585 66.5 577 c 128,-1,36
 71 569 71 569 74.5 560.5 c 128,-1,37
 78 552 78 552 78 543 c 0,38,39
 74 486 74 486 64.5 428 c 128,-1,40
 55 370 55 370 44 312 c 128,-1,41
 33 254 33 254 24 195 c 128,-1,42
 15 136 15 136 13 78 c 2,43,-1
 12 68 l 1,44,-1
 12 36 l 1,45,-1
 10 26 l 1,0,1
147 321 m 1,46,-1
 148 344 l 1,47,-1
 148 368 l 2,48,49
 151 381 151 381 155 410 c 128,-1,50
 159 439 159 439 163 470 c 128,-1,51
 167 501 167 501 170.5 528 c 128,-1,52
 174 555 174 555 175 565 c 0,53,54
 181 600 181 600 204.5 621 c 128,-1,55
 228 642 228 642 261 653 c 128,-1,56
 294 664 294 664 331.5 667.5 c 128,-1,57
 369 671 369 671 402 671 c 2,58,-1
 411 671 l 2,59,60
 418 671 418 671 426 670 c 128,-1,61
 434 669 434 669 441 669 c 2,62,-1
 451 669 l 2,63,64
 466 668 466 668 476 660 c 128,-1,65
 486 652 486 652 491.5 641 c 128,-1,66
 497 630 497 630 498.5 616.5 c 128,-1,67
 500 603 500 603 499 591 c 0,68,69
 497 538 497 538 467 488.5 c 128,-1,70
 437 439 437 439 389.5 401 c 128,-1,71
 342 363 342 363 283.5 339.5 c 128,-1,72
 225 316 225 316 165 316 c 2,73,-1
 162 316 l 2,74,75
 160 316 160 316 154 318.5 c 128,-1,76
 148 321 148 321 147 321 c 1,46,-1
EndSplineSet
Validated: 41
EndChar

StartChar: q
Encoding: 113 113 90
Width: 784
Flags: W
LayerCount: 2
Fore
SplineSet
494 53 m 0,0,1
 512 53 512 53 522.5 41 c 128,-1,2
 533 29 533 29 542.5 15 c 128,-1,3
 552 1 552 1 563.5 -11 c 128,-1,4
 575 -23 575 -23 595 -23 c 0,5,6
 623 -23 623 -23 627.5 -11 c 128,-1,7
 632 1 632 1 633 26 c 0,8,9
 636 46 636 46 628 63.5 c 128,-1,10
 620 81 620 81 620 101 c 0,11,12
 620 110 620 110 622 112.5 c 128,-1,13
 624 115 624 115 632 123 c 0,14,15
 653 153 653 153 675.5 183.5 c 128,-1,16
 698 214 698 214 717.5 246 c 128,-1,17
 737 278 737 278 750 311.5 c 128,-1,18
 763 345 763 345 766 383 c 0,19,20
 768 447 768 447 749 507 c 128,-1,21
 730 567 730 567 691.5 613.5 c 128,-1,22
 653 660 653 660 596.5 688 c 128,-1,23
 540 716 540 716 468 716 c 2,24,-1
 454 716 l 2,25,26
 441 716 441 716 424.5 715 c 128,-1,27
 408 714 408 714 403 714 c 0,28,29
 326 698 326 698 257.5 653.5 c 128,-1,30
 189 609 189 609 136 548 c 128,-1,31
 83 487 83 487 50.5 416 c 128,-1,32
 18 345 18 345 14 276 c 0,33,34
 12 228 12 228 25 177 c 128,-1,35
 38 126 38 126 66.5 84.5 c 128,-1,36
 95 43 95 43 139 16.5 c 128,-1,37
 183 -10 183 -10 243 -10 c 0,38,39
 280 -10 280 -10 315.5 0 c 128,-1,40
 351 10 351 10 383 21.5 c 128,-1,41
 415 33 415 33 443.5 43 c 128,-1,42
 472 53 472 53 494 53 c 0,0,1
136 268 m 0,43,44
 140 326 140 326 161.5 373.5 c 128,-1,45
 183 421 183 421 218 460.5 c 128,-1,46
 253 500 253 500 299 532.5 c 128,-1,47
 345 565 345 565 398 595 c 0,48,49
 411 603 411 603 427 607 c 128,-1,50
 443 611 443 611 458 611 c 0,51,52
 504 611 504 611 540.5 590 c 128,-1,53
 577 569 577 569 602.5 536.5 c 128,-1,54
 628 504 628 504 641 464 c 128,-1,55
 654 424 654 424 653 387 c 0,56,57
 651 374 651 374 643.5 346 c 128,-1,58
 636 318 636 318 623 289.5 c 128,-1,59
 610 261 610 261 593 239.5 c 128,-1,60
 576 218 576 218 556 218 c 0,61,62
 539 218 539 218 525.5 230 c 128,-1,63
 512 242 512 242 500 260 c 128,-1,64
 488 278 488 278 476 299.5 c 128,-1,65
 464 321 464 321 449 339 c 128,-1,66
 434 357 434 357 415 369 c 128,-1,67
 396 381 396 381 370 381 c 0,68,69
 347 381 347 381 338.5 373 c 128,-1,70
 330 365 330 365 329 342 c 0,71,72
 328 323 328 323 335.5 306 c 128,-1,73
 343 289 343 289 355.5 273 c 128,-1,74
 368 257 368 257 382 242.5 c 128,-1,75
 396 228 396 228 408.5 213.5 c 128,-1,76
 421 199 421 199 428.5 185 c 128,-1,77
 436 171 436 171 435 157 c 0,78,79
 434 142 434 142 413 130 c 128,-1,80
 392 118 392 118 364.5 109.5 c 128,-1,81
 337 101 337 101 309.5 96.5 c 128,-1,82
 282 92 282 92 269 92 c 0,83,84
 228 92 228 92 201.5 107 c 128,-1,85
 175 122 175 122 160 146.5 c 128,-1,86
 145 171 145 171 140 203 c 128,-1,87
 135 235 135 235 136 268 c 0,43,44
EndSplineSet
Validated: 41
EndChar

StartChar: r
Encoding: 114 114 91
Width: 582
Flags: W
LayerCount: 2
Fore
SplineSet
12 38 m 1,0,1
 19 22 19 22 28 11 c 128,-1,2
 37 0 37 0 60 0 c 0,3,4
 86 0 86 0 93 11.5 c 128,-1,5
 100 23 100 23 103 43 c 0,6,7
 104 51 104 51 107.5 71 c 128,-1,8
 111 91 111 91 114.5 112.5 c 128,-1,9
 118 134 118 134 121 154 c 128,-1,10
 124 174 124 174 126 182 c 0,11,12
 130 187 130 187 142 187 c 0,13,14
 149 187 149 187 153.5 186.5 c 128,-1,15
 158 186 158 186 165 182 c 0,16,17
 193 155 193 155 222.5 130 c 128,-1,18
 252 105 252 105 285 85.5 c 128,-1,19
 318 66 318 66 356.5 54.5 c 128,-1,20
 395 43 395 43 441 43 c 0,21,22
 448 43 448 43 459 43.5 c 128,-1,23
 470 44 470 44 480.5 46 c 128,-1,24
 491 48 491 48 498.5 53.5 c 128,-1,25
 506 59 506 59 508 68 c 0,26,27
 508 85 508 85 489.5 97.5 c 128,-1,28
 471 110 471 110 443.5 120.5 c 128,-1,29
 416 131 416 131 384.5 141.5 c 128,-1,30
 353 152 353 152 326 165 c 128,-1,31
 299 178 299 178 281.5 195 c 128,-1,32
 264 212 264 212 265 235 c 0,33,34
 265 237 265 237 265.5 240 c 128,-1,35
 266 243 266 243 266 244 c 0,36,37
 321 290 321 290 380 332 c 128,-1,38
 439 374 439 374 497 420 c 1,39,40
 533 456 533 456 552.5 489.5 c 128,-1,41
 572 523 572 523 575 569 c 2,42,-1
 575 578 l 2,43,44
 576 586 576 586 575.5 591.5 c 128,-1,45
 575 597 575 597 576 604 c 2,46,-1
 576 614 l 1,47,48
 571 635 571 635 551 648.5 c 128,-1,49
 531 662 531 662 505 669 c 128,-1,50
 479 676 479 676 451 678.5 c 128,-1,51
 423 681 423 681 402 681 c 0,52,53
 388 681 388 681 360.5 678 c 128,-1,54
 333 675 333 675 298.5 670.5 c 128,-1,55
 264 666 264 666 227.5 659.5 c 128,-1,56
 191 653 191 653 160 645.5 c 128,-1,57
 129 638 129 638 107.5 630 c 128,-1,58
 86 622 86 622 82 614 c 0,59,60
 71 593 71 593 72 574 c 128,-1,61
 73 555 73 555 70 532 c 0,62,63
 69 524 69 524 65 498 c 128,-1,64
 61 472 61 472 56 437 c 128,-1,65
 51 402 51 402 45.5 363 c 128,-1,66
 40 324 40 324 35 289 c 128,-1,67
 30 254 30 254 26 228.5 c 128,-1,68
 22 203 22 203 21 195 c 2,69,-1
 19 183 l 2,70,71
 19 172 19 172 18.5 159.5 c 128,-1,72
 18 147 18 147 17 136 c 2,73,-1
 16 116 l 1,74,-1
 14 101 l 1,75,-1
 14 75 l 2,76,77
 14 70 14 70 14 64 c 256,78,79
 14 58 14 58 13 53 c 2,80,-1
 12 38 l 1,0,1
142 307 m 2,81,-1
 142 316 l 2,82,83
 143 323 143 323 142.5 329.5 c 128,-1,84
 142 336 142 336 143 343 c 2,85,-1
 143 352 l 1,86,87
 147 423 147 423 154 469 c 128,-1,88
 161 515 161 515 186 542 c 128,-1,89
 211 569 211 569 262 579.5 c 128,-1,90
 313 590 313 590 404 590 c 2,91,-1
 409 590 l 2,92,93
 417 590 417 590 421.5 589.5 c 128,-1,94
 426 589 426 589 430 589 c 2,95,-1
 439 589 l 2,96,97
 450 586 450 586 451 580.5 c 128,-1,98
 452 575 452 575 452 567 c 0,99,100
 452 554 452 554 433.5 529.5 c 128,-1,101
 415 505 415 505 386.5 475 c 128,-1,102
 358 445 358 445 323 414 c 128,-1,103
 288 383 288 383 254.5 357.5 c 128,-1,104
 221 332 221 332 193.5 316 c 128,-1,105
 166 300 166 300 152 300 c 0,106,107
 151 300 151 300 149.5 301 c 128,-1,108
 148 302 148 302 148 302 c 2,109,110
 144 302 144 302 142 307 c 2,81,-1
EndSplineSet
Validated: 41
EndChar

StartChar: s
Encoding: 115 115 92
Width: 719
Flags: W
LayerCount: 2
Fore
SplineSet
14 181 m 0,0,1
 12 151 12 151 26.5 126 c 128,-1,2
 41 101 41 101 66 81 c 128,-1,3
 91 61 91 61 123.5 46 c 128,-1,4
 156 31 156 31 190 20.5 c 128,-1,5
 224 10 224 10 257 5 c 128,-1,6
 290 0 290 0 316 0 c 0,7,8
 380 0 380 0 447.5 21.5 c 128,-1,9
 515 43 515 43 570.5 81 c 128,-1,10
 626 119 626 119 663.5 172 c 128,-1,11
 701 225 701 225 705 287 c 0,12,13
 706 332 706 332 682 366 c 128,-1,14
 658 400 658 400 620 423.5 c 128,-1,15
 582 447 582 447 536 460.5 c 128,-1,16
 490 474 490 474 448 478 c 2,17,-1
 237 490 l 2,18,19
 226 493 226 493 215.5 496.5 c 128,-1,20
 205 500 205 500 205 511 c 0,21,22
 208 517 208 517 208 519 c 0,23,24
 235 544 235 544 266.5 566 c 128,-1,25
 298 588 298 588 332.5 605 c 128,-1,26
 367 622 367 622 404.5 632 c 128,-1,27
 442 642 442 642 481 642 c 0,28,29
 496 642 496 642 509.5 638.5 c 128,-1,30
 523 635 523 635 536 631 c 128,-1,31
 549 627 549 627 562 623.5 c 128,-1,32
 575 620 575 620 589 620 c 0,33,34
 608 620 608 620 616 631 c 128,-1,35
 624 642 624 642 624 658 c 0,36,37
 625 677 625 677 615 695.5 c 128,-1,38
 605 714 605 714 588.5 727.5 c 128,-1,39
 572 741 572 741 550.5 749.5 c 128,-1,40
 529 758 529 758 508 758 c 0,41,42
 476 758 476 758 431 748.5 c 128,-1,43
 386 739 386 739 337 721.5 c 128,-1,44
 288 704 288 704 239.5 680 c 128,-1,45
 191 656 191 656 152 627 c 128,-1,46
 113 598 113 598 88 565 c 128,-1,47
 63 532 63 532 62 498 c 0,48,49
 60 475 60 475 70.5 458 c 128,-1,50
 81 441 81 441 99 429 c 128,-1,51
 117 417 117 417 139.5 410.5 c 128,-1,52
 162 404 162 404 186 403 c 2,53,-1
 459 374 l 2,54,55
 477 372 477 372 501.5 363.5 c 128,-1,56
 526 355 526 355 548 341 c 128,-1,57
 570 327 570 327 584 308.5 c 128,-1,58
 598 290 598 290 597 268 c 0,59,60
 596 249 596 249 580 230 c 128,-1,61
 564 211 564 211 539.5 193 c 128,-1,62
 515 175 515 175 484 160 c 128,-1,63
 453 145 453 145 422.5 133.5 c 128,-1,64
 392 122 392 122 364.5 115.5 c 128,-1,65
 337 109 337 109 318 109 c 0,66,67
 281 109 281 109 248.5 119 c 128,-1,68
 216 129 216 129 187 146 c 128,-1,69
 158 163 158 163 133 185 c 128,-1,70
 108 207 108 207 87 231 c 0,71,72
 84 231 84 231 77 232 c 128,-1,73
 70 233 70 233 68 233 c 0,74,75
 40 233 40 233 28 219 c 128,-1,76
 16 205 16 205 14 181 c 0,0,1
EndSplineSet
Validated: 41
EndChar

StartChar: t
Encoding: 116 116 93
Width: 595
Flags: W
LayerCount: 2
Fore
SplineSet
225 183 m 2,0,-1
 224 152 l 2,1,2
 222 128 222 128 223.5 101 c 128,-1,3
 225 74 225 74 232.5 51.5 c 128,-1,4
 240 29 240 29 256.5 14.5 c 128,-1,5
 273 0 273 0 302 0 c 0,6,7
 326 0 326 0 336.5 10.5 c 128,-1,8
 347 21 347 21 348 42 c 0,9,10
 349 67 349 67 346 90.5 c 128,-1,11
 343 114 343 114 340 138 c 128,-1,12
 337 162 337 162 334.5 185.5 c 128,-1,13
 332 209 332 209 334 234 c 0,14,15
 334 251 334 251 337 284 c 128,-1,16
 340 317 340 317 346 357 c 128,-1,17
 352 397 352 397 360 439.5 c 128,-1,18
 368 482 368 482 378 520 c 128,-1,19
 388 558 388 558 399.5 586.5 c 128,-1,20
 411 615 411 615 424 627 c 0,21,22
 438 640 438 640 462.5 645.5 c 128,-1,23
 487 651 487 651 515 653 c 128,-1,24
 543 655 543 655 571.5 656.5 c 128,-1,25
 600 658 600 658 624 663.5 c 128,-1,26
 648 669 648 669 663.5 681 c 128,-1,27
 679 693 679 693 680 716 c 0,28,29
 681 732 681 732 674.5 742 c 128,-1,30
 668 752 668 752 656.5 756.5 c 128,-1,31
 645 761 645 761 630.5 762.5 c 128,-1,32
 616 764 616 764 602 764 c 0,33,34
 589 764 589 764 556.5 759 c 128,-1,35
 524 754 524 754 479.5 745.5 c 128,-1,36
 435 737 435 737 382.5 725.5 c 128,-1,37
 330 714 330 714 277 701.5 c 128,-1,38
 224 689 224 689 175 675 c 128,-1,39
 126 661 126 661 88 648 c 128,-1,40
 50 635 50 635 27 623.5 c 128,-1,41
 4 612 4 612 4 603 c 0,42,43
 3 584 3 584 11 572 c 128,-1,44
 19 560 19 560 42 552 c 1,45,-1
 82 552 l 2,46,47
 105 552 105 552 127.5 557.5 c 128,-1,48
 150 563 150 563 172.5 570 c 128,-1,49
 195 577 195 577 217.5 582.5 c 128,-1,50
 240 588 240 588 263 588 c 0,51,52
 267 588 267 588 271.5 587.5 c 128,-1,53
 276 587 276 587 276 580 c 2,54,-1
 276 545 l 1,55,56
 272 500 272 500 264.5 455 c 128,-1,57
 257 410 257 410 249 365.5 c 128,-1,58
 241 321 241 321 234 275.5 c 128,-1,59
 227 230 227 230 225 183 c 2,0,-1
EndSplineSet
Validated: 41
EndChar

StartChar: u
Encoding: 117 117 94
Width: 543
Flags: W
AnchorPoint: "top" 293 787 basechar 0
LayerCount: 2
Fore
SplineSet
12 177 m 2,0,1
 14 139 14 139 31.5 107 c 128,-1,2
 49 75 49 75 77 51 c 128,-1,3
 105 27 105 27 142.5 13.5 c 128,-1,4
 180 0 180 0 222 0 c 0,5,6
 263 0 263 0 304.5 10.5 c 128,-1,7
 346 21 346 21 382 41 c 128,-1,8
 418 61 418 61 446.5 90 c 128,-1,9
 475 119 475 119 489 157 c 1,10,11
 490 174 490 174 493 208.5 c 128,-1,12
 496 243 496 243 499.5 287 c 128,-1,13
 503 331 503 331 507.5 379 c 128,-1,14
 512 427 512 427 515.5 471 c 128,-1,15
 519 515 519 515 522 550 c 128,-1,16
 525 585 525 585 526 602 c 2,17,-1
 528 651 l 1,18,-1
 532 703 l 1,19,20
 529 724 529 724 513 734 c 128,-1,21
 497 744 497 744 474 744 c 0,22,23
 457 744 457 744 442.5 733 c 128,-1,24
 428 722 428 722 425 703 c 2,25,-1
 385 192 l 2,26,27
 382 173 382 173 369 156 c 128,-1,28
 356 139 356 139 337 125.5 c 128,-1,29
 318 112 318 112 297 104 c 128,-1,30
 276 96 276 96 257 96 c 0,31,32
 201 96 201 96 173.5 124 c 128,-1,33
 146 152 146 152 136.5 192 c 128,-1,34
 127 232 127 232 129 277 c 128,-1,35
 131 322 131 322 134 355 c 0,36,37
 138 433 138 433 150 505.5 c 128,-1,38
 162 578 162 578 165 653 c 0,39,40
 168 679 168 679 154.5 694.5 c 128,-1,41
 141 710 141 710 109 710 c 0,42,43
 81 710 81 710 67.5 690.5 c 128,-1,44
 54 671 54 671 48 645 c 128,-1,45
 42 619 42 619 41 592.5 c 128,-1,46
 40 566 40 566 39 552 c 0,47,48
 37 540 37 540 34 512 c 128,-1,49
 31 484 31 484 28 452.5 c 128,-1,50
 25 421 25 421 23 393 c 128,-1,51
 21 365 21 365 21 355 c 2,52,-1
 21 343 l 2,53,54
 19 332 19 332 18 317.5 c 128,-1,55
 17 303 17 303 16 289 c 2,56,-1
 14 266 l 1,57,-1
 13 247 l 1,58,-1
 13 221 l 2,59,60
 13 214 13 214 13 207 c 0,61,62
 13 201 13 201 12 194 c 2,63,-1
 12 177 l 2,0,1
EndSplineSet
Validated: 41
EndChar

StartChar: v
Encoding: 118 118 95
Width: 555
Flags: W
LayerCount: 2
Fore
SplineSet
18 649 m 0,0,1
 14 590 14 590 20 526.5 c 128,-1,2
 26 463 26 463 37.5 399 c 128,-1,3
 49 335 49 335 63.5 273.5 c 128,-1,4
 78 212 78 212 92 157 c 0,5,6
 100 115 100 115 116 72 c 128,-1,7
 132 29 132 29 168 0 c 0,8,9
 171 0 171 0 182 -1.5 c 128,-1,10
 193 -3 193 -3 198 -3 c 0,11,12
 227 -3 227 -3 250 14 c 128,-1,13
 273 31 273 31 290 55.5 c 128,-1,14
 307 80 307 80 318 107.5 c 128,-1,15
 329 135 329 135 334 157 c 0,16,17
 335 163 335 163 342 188 c 128,-1,18
 349 213 349 213 356.5 242 c 128,-1,19
 364 271 364 271 371 296.5 c 128,-1,20
 378 322 378 322 381 328 c 0,21,22
 384 338 384 338 392.5 360.5 c 128,-1,23
 401 383 401 383 411.5 411.5 c 128,-1,24
 422 440 422 440 433.5 471.5 c 128,-1,25
 445 503 445 503 455.5 532.5 c 128,-1,26
 466 562 466 562 474.5 585 c 128,-1,27
 483 608 483 608 487 620 c 0,28,29
 491 630 491 630 501 647 c 128,-1,30
 511 664 511 664 521.5 683 c 128,-1,31
 532 702 532 702 540.5 721 c 128,-1,32
 549 740 549 740 551 754 c 0,33,34
 551 773 551 773 538.5 786 c 128,-1,35
 526 799 526 799 506 799 c 0,36,37
 480 799 480 799 459.5 781 c 128,-1,38
 439 763 439 763 423.5 737.5 c 128,-1,39
 408 712 408 712 397.5 685.5 c 128,-1,40
 387 659 387 659 382 641 c 0,41,42
 378 631 378 631 371 612.5 c 128,-1,43
 364 594 364 594 357 575.5 c 128,-1,44
 350 557 350 557 344.5 542.5 c 128,-1,45
 339 528 339 528 339 525 c 0,46,47
 335 513 335 513 327 488.5 c 128,-1,48
 319 464 319 464 309.5 433 c 128,-1,49
 300 402 300 402 290 368 c 128,-1,50
 280 334 280 334 271.5 303 c 128,-1,51
 263 272 263 272 256.5 247.5 c 128,-1,52
 250 223 250 223 247 212 c 0,53,54
 247 210 247 210 244 204.5 c 128,-1,55
 241 199 241 199 237 192 c 128,-1,56
 233 185 233 185 227.5 180 c 128,-1,57
 222 175 222 175 218 175 c 0,58,59
 203 175 203 175 194.5 198.5 c 128,-1,60
 186 222 186 222 180.5 260 c 128,-1,61
 175 298 175 298 172 347 c 128,-1,62
 169 396 169 396 165 446.5 c 128,-1,63
 161 497 161 497 155.5 546 c 128,-1,64
 150 595 150 595 140 633 c 128,-1,65
 130 671 130 671 114 694.5 c 128,-1,66
 98 718 98 718 74 718 c 0,67,68
 57 718 57 718 46 711.5 c 128,-1,69
 35 705 35 705 29 695 c 128,-1,70
 23 685 23 685 20.5 672.5 c 128,-1,71
 18 660 18 660 18 649 c 0,0,1
EndSplineSet
Validated: 41
EndChar

StartChar: w
Encoding: 119 119 96
Width: 790
Flags: W
LayerCount: 2
Fore
SplineSet
14 237 m 0,0,1
 11 163 11 163 44 105.5 c 128,-1,2
 77 48 77 48 140 0 c 1,3,-1
 159 0 l 2,4,5
 177 0 177 0 194 4.5 c 128,-1,6
 211 9 211 9 224 21 c 2,7,-1
 368 143 l 1,8,-1
 390 143 l 1,9,10
 394 136 394 136 405.5 120.5 c 128,-1,11
 417 105 417 105 431 88 c 128,-1,12
 445 71 445 71 457.5 55.5 c 128,-1,13
 470 40 470 40 476 34 c 0,14,15
 485 23 485 23 490 16 c 128,-1,16
 495 9 495 9 500 5.5 c 128,-1,17
 505 2 505 2 511 0.5 c 128,-1,18
 517 -1 517 -1 528 -1 c 0,19,20
 560 -1 560 -1 587.5 16.5 c 128,-1,21
 615 34 615 34 638 62.5 c 128,-1,22
 661 91 661 91 679 126.5 c 128,-1,23
 697 162 697 162 710 197.5 c 128,-1,24
 723 233 723 233 730.5 266 c 128,-1,25
 738 299 738 299 740 321 c 0,26,27
 741 333 741 333 743 358.5 c 128,-1,28
 745 384 745 384 747 416.5 c 128,-1,29
 749 449 749 449 752 484.5 c 128,-1,30
 755 520 755 520 757 552.5 c 128,-1,31
 759 585 759 585 761 611 c 128,-1,32
 763 637 763 637 764 649 c 0,33,34
 771 667 771 667 773 679 c 128,-1,35
 775 691 775 691 776 710 c 0,36,37
 779 733 779 733 769.5 752.5 c 128,-1,38
 760 772 760 772 729 772 c 0,39,40
 714 772 714 772 702 765 c 128,-1,41
 690 758 690 758 681.5 747 c 128,-1,42
 673 736 673 736 668 722 c 128,-1,43
 663 708 663 708 663 695 c 2,44,-1
 625 308 l 2,45,46
 623 295 623 295 617.5 268.5 c 128,-1,47
 612 242 612 242 603 215 c 128,-1,48
 594 188 594 188 580.5 168 c 128,-1,49
 567 148 567 148 551 148 c 0,50,51
 537 148 537 148 525.5 159 c 128,-1,52
 514 170 514 170 505.5 185.5 c 128,-1,53
 497 201 497 201 492 218 c 128,-1,54
 487 235 487 235 486 246 c 0,55,56
 487 257 487 257 488 283.5 c 128,-1,57
 489 310 489 310 489 341 c 2,58,-1
 489 437 l 2,59,60
 487 444 487 444 488 451 c 128,-1,61
 489 458 489 458 489 467 c 0,62,63
 490 488 490 488 490 515 c 256,64,65
 490 542 490 542 483 565.5 c 128,-1,66
 476 589 476 589 460 605 c 128,-1,67
 444 621 444 621 415 621 c 0,68,69
 395 621 395 621 382 616 c 128,-1,70
 369 611 369 611 361 593 c 0,71,72
 360 582 360 582 359.5 555.5 c 128,-1,73
 359 529 359 529 357 498 c 0,74,75
 355 468 355 468 353.5 441 c 128,-1,76
 352 414 352 414 351 403 c 0,77,78
 349 388 349 388 342.5 363 c 128,-1,79
 336 338 336 338 325.5 309 c 128,-1,80
 315 280 315 280 301.5 250.5 c 128,-1,81
 288 221 288 221 271 196.5 c 128,-1,82
 254 172 254 172 235 157 c 128,-1,83
 216 142 216 142 195 142 c 0,84,85
 182 142 182 142 171 152 c 128,-1,86
 160 162 160 162 151.5 176 c 128,-1,87
 143 190 143 190 137 204 c 128,-1,88
 131 218 131 218 129 226 c 2,89,-1
 130 235 l 1,90,-1
 130 278 l 1,91,92
 134 344 134 344 145 406.5 c 128,-1,93
 156 469 156 469 177 532 c 0,94,95
 182 551 182 551 190.5 571 c 128,-1,96
 199 591 199 591 207.5 611 c 128,-1,97
 216 631 216 631 222.5 652 c 128,-1,98
 229 673 229 673 231 695 c 0,99,100
 233 716 233 716 222.5 730 c 128,-1,101
 212 744 212 744 187 744 c 0,102,103
 166 744 166 744 147 724 c 128,-1,104
 128 704 128 704 112 670.5 c 128,-1,105
 96 637 96 637 82.5 594.5 c 128,-1,106
 69 552 69 552 58 506.5 c 128,-1,107
 47 461 47 461 39 416 c 128,-1,108
 31 371 31 371 25.5 334 c 128,-1,109
 20 297 20 297 17 271 c 128,-1,110
 14 245 14 245 14 237 c 0,0,1
EndSplineSet
Validated: 41
EndChar

StartChar: x
Encoding: 120 120 97
Width: 677
Flags: W
LayerCount: 2
Fore
SplineSet
326 313 m 0,0,1
 332 307 332 307 343 290.5 c 128,-1,2
 354 274 354 274 366 256 c 128,-1,3
 378 238 378 238 388.5 221.5 c 128,-1,4
 399 205 399 205 403 198 c 0,5,6
 412 183 412 183 427 150 c 128,-1,7
 442 117 442 117 460.5 83.5 c 128,-1,8
 479 50 479 50 500 25 c 128,-1,9
 521 0 521 0 542 0 c 0,10,11
 565 0 565 0 573.5 6 c 128,-1,12
 582 12 582 12 585 32 c 0,13,14
 587 82 587 82 568.5 131.5 c 128,-1,15
 550 181 550 181 522.5 228.5 c 128,-1,16
 495 276 495 276 463 320 c 128,-1,17
 431 364 431 364 406 403 c 0,18,19
 401 412 401 412 400 415 c 128,-1,20
 399 418 399 418 399 426 c 0,21,22
 400 447 400 447 420 471 c 128,-1,23
 440 495 440 495 469.5 520 c 128,-1,24
 499 545 499 545 533 571 c 128,-1,25
 567 597 567 597 596.5 623 c 128,-1,26
 626 649 626 649 646 674.5 c 128,-1,27
 666 700 666 700 667 724 c 0,28,29
 667 741 667 741 656 750 c 128,-1,30
 645 759 645 759 627 759 c 0,31,32
 597 759 597 759 566.5 741.5 c 128,-1,33
 536 724 536 724 506.5 698 c 128,-1,34
 477 672 477 672 449.5 641.5 c 128,-1,35
 422 611 422 611 398 585 c 128,-1,36
 374 559 374 559 354.5 541.5 c 128,-1,37
 335 524 335 524 321 524 c 0,38,39
 310 524 310 524 308 527.5 c 128,-1,40
 306 531 306 531 299 539 c 0,41,42
 297 540 297 540 290 549.5 c 128,-1,43
 283 559 283 559 275 569.5 c 128,-1,44
 267 580 267 580 259.5 589.5 c 128,-1,45
 252 599 252 599 250 602 c 2,46,-1
 149 695 l 2,47,48
 142 703 142 703 133 703 c 256,49,50
 124 703 124 703 116 703 c 0,51,52
 93 703 93 703 83 695.5 c 128,-1,53
 73 688 73 688 70 668 c 0,54,55
 69 654 69 654 75 643.5 c 128,-1,56
 81 633 81 633 92 620 c 0,57,58
 99 610 99 610 118 587 c 128,-1,59
 137 564 137 564 158.5 538 c 128,-1,60
 180 512 180 512 199 489.5 c 128,-1,61
 218 467 218 467 226 458 c 0,62,63
 233 450 233 450 234 443.5 c 128,-1,64
 235 437 235 437 234 430 c 2,65,-1
 234 421 l 2,66,67
 234 416 234 416 231.5 413 c 128,-1,68
 229 410 229 410 225 403 c 0,69,70
 199 370 199 370 163 329 c 128,-1,71
 127 288 127 288 93 243 c 128,-1,72
 59 198 59 198 34.5 151.5 c 128,-1,73
 10 105 10 105 8 62 c 0,74,75
 6 39 6 39 15.5 29 c 128,-1,76
 25 19 25 19 51 19 c 0,77,78
 81 19 81 19 107 41.5 c 128,-1,79
 133 64 133 64 155.5 97.5 c 128,-1,80
 178 131 178 131 198.5 170 c 128,-1,81
 219 209 219 209 237.5 242.5 c 128,-1,82
 256 276 256 276 274.5 298.5 c 128,-1,83
 293 321 293 321 311 321 c 0,84,85
 314 321 314 321 318.5 318.5 c 128,-1,86
 323 316 323 316 326 313 c 0,0,1
EndSplineSet
Validated: 41
EndChar

